<?xml version="1.0" encoding="UTF-8"?>
<!DOCTYPE svg PUBLIC "-//W3C//DTD SVG 1.1//EN" "http://www.w3.org/Graphics/SVG/1.1/DTD/svg11.dtd">
<!-- Creator: CorelDRAW 2017 -->
<svg xmlns="http://www.w3.org/2000/svg" xml:space="preserve" width="24.2992mm" height="24.2992mm" version="1.1" style="shape-rendering:geometricPrecision; text-rendering:geometricPrecision; image-rendering:optimizeQuality; fill-rule:evenodd; clip-rule:evenodd"
viewBox="0 0 2429.92 2429.92"
 xmlns:xlink="http://www.w3.org/1999/xlink">
 <defs>
  <style type="text/css">
   <![CDATA[
    .fil0 {fill:#373435}
   ]]>
  </style>
 </defs>
 <g id="Capa_x0020_1">
  <metadata id="CorelCorpID_0Corel-Layer"/>
  <path class="fil0" d="M1113.9 446.78c-397.96,57.55 -727.31,403.01 -668.95,872.72 47.74,383.99 420.07,729.41 877.35,663.29 387.29,-56 724.32,-407.08 659.64,-880.6 -52.59,-385.01 -419.67,-720.25 -868.04,-655.41zm-630.29 -435.34c-169.5,27.72 -299.57,132.06 -372.64,233.06 -105.99,146.51 -108.62,296.74 -109.1,508.82 -0.45,199.55 -13.74,1082.45 12.06,1207.33 35.69,172.8 134.36,293 236.81,361.48 163.43,109.25 279.08,104.65 503.97,104.59 196.49,-0.04 1079.63,13.13 1198.71,-9.66 169.13,-32.38 293.47,-131.88 365.01,-234.9 105.77,-152.32 109.8,-280.88 109.74,-499.12 -0.05,-196.74 12.67,-1082.42 -8.87,-1200.86 -31.52,-173.35 -132.15,-300.24 -232.2,-366.51 -180.23,-119.37 -249.91,-112.72 -502.67,-112.6 -203.12,0.1 -1074.13,-12.35 -1200.82,8.37zm590.75 273.41c-469.79,76.97 -879.18,506.29 -790.26,1073.52 74.8,477.12 512.67,869.02 1077.62,785.85 466.48,-68.68 877.57,-518.46 782.01,-1086.78 -76,-451.92 -512.89,-863.76 -1069.37,-772.59zm-79.65 1398.12l434.8 0c-0.08,-85.02 -4.49,-131.05 -47.97,-176.95 -82.53,-87.11 -369.9,-148.26 -386.83,176.95zm430.18 -854.67l0 434.87c0,193.48 167.29,172.07 167.29,14.99l-0.03 -449.86c0,-172.99 -167.26,-192.5 -167.26,0zm-567.87 544.22c46,22.86 68.48,28.19 126.36,11.44 49.69,-93.79 26.13,-391.37 27.12,-510.99 0.42,-51.11 7.58,-110.83 -21.03,-145.8 -25.86,-31.61 -85.38,-37.35 -117.98,-8.26 -51.93,46.36 -38.87,569.07 -14.47,653.61z"/>
 </g>
</svg>
