<?xml version="1.0" encoding="UTF-8"?>
<!DOCTYPE svg PUBLIC "-//W3C//DTD SVG 1.1//EN" "http://www.w3.org/Graphics/SVG/1.1/DTD/svg11.dtd">
<!-- Creator: CorelDRAW 2017 -->
<svg xmlns="http://www.w3.org/2000/svg" xml:space="preserve" width="50.7998mm" height="30.4798mm" version="1.1" style="shape-rendering:geometricPrecision; text-rendering:geometricPrecision; image-rendering:optimizeQuality; fill-rule:evenodd; clip-rule:evenodd"
viewBox="0 0 5079.98 3047.98"
 xmlns:xlink="http://www.w3.org/1999/xlink">
 <defs>
  <style type="text/css">
   <![CDATA[
    .str0 {stroke:#373435;stroke-width:20;stroke-miterlimit:22.9256}
    .fil9 {fill:black}
    .fil1 {fill:#020202}
    .fil0 {fill:#14233A}
    .fil8 {fill:#21241F}
    .fil3 {fill:#3B3C3D}
    .fil6 {fill:#3E3D39}
    .fil2 {fill:#404865}
    .fil7 {fill:#52544D}
    .fil4 {fill:#55928A}
    .fil11 {fill:#835327}
    .fil13 {fill:#B5773E}
    .fil10 {fill:#C2E3DD}
    .fil14 {fill:#CA8344}
    .fil12 {fill:#CEA05A}
    .fil5 {fill:#EEF5F4}
    .fil15 {fill:#55928A;fill-rule:nonzero}
    .fil16 {fill:#9AC6D9;fill-rule:nonzero}
   ]]>
  </style>
 </defs>
 <g id="Capa_x0020_1">
  <metadata id="CorelCorpID_0Corel-Layer"/>
  <rect class="fil0 str0" x="2695.95" y="908.55" width="2115.79" height="2116.49"/>
  <g id="_2435201217616">
   <path class="fil1" d="M2709.14 3015.03l0 -2069.03c0,-20.09 3.56,-20.51 7.45,-37.2l2031.47 -0.7c25.63,0.18 43.93,-3.02 43.93,23.01l0 2073.29 7.48 -0.04 0 -1879.83c0,-98.26 17.11,-325.4 -89.06,-374.03 -43.54,-19.93 -76.31,-25.18 -134.14,-25.18l-1651.4 0.02c-90.6,0 -140.84,1.92 -170.29,57.58 -68.39,129.23 -52.91,152.76 -52.91,326.73l0 1905.41 7.47 -0.03zm588.58 -2148.64l-1.23 -43.33 30.81 -1.08c0.56,4.69 22.18,4.53 2.38,29.9 -5.23,6.7 -21.11,10.09 -31.96,14.51zm279.78 -60.65c32.64,-17.15 217.92,-6.92 284.89,-7.65 39.81,-0.44 66.43,-9.59 61.56,31.31l-346.42 1.53 -0.03 -25.19z"/>
   <path class="fil2" d="M3297.72 866.39c10.85,-4.42 26.73,-7.81 31.96,-14.51 19.8,-25.37 -1.82,-25.21 -2.38,-29.9l-30.81 1.08 1.23 43.33z"/>
   <g>
    <path class="fil3" d="M2701.67 3015.06l0 -1905.41c0,-173.97 -15.48,-197.5 52.91,-326.73 29.45,-55.66 79.69,-57.58 170.29,-57.58l1651.4 -0.02c57.83,0 90.6,5.25 134.14,25.18 106.17,48.63 89.06,275.77 89.06,374.03l0 1879.83 66.91 -0.34 0 -220.66c0,-26.81 -1.04,-55.53 -0.25,-82.07 1.11,-36.71 6.83,-37.18 7.93,-73.9l0.06 -238.57c-0.48,-38.37 -5.99,-40.98 -7.78,-74.06 -5.89,-109.14 7.48,-202.56 7.48,-312.46 0,-106.63 0,-213.25 0,-319.87 0,-110.55 -7.44,-198.45 -7.44,-312.43 0,-106.62 0,-213.24 0,-319.86 0,-113.95 3.1,-205.01 -46.52,-273.35 -46.38,-63.88 -114.68,-106.03 -221.28,-106.03l-1696.02 0c-177.29,0 -267.8,122.35 -267.8,297.55l4.39 238.96c0.46,19.86 -4.39,15.2 -4.39,43.71l0 1764.43 66.91 -0.35z"/>
    <path class="fil3" d="M3923.95 829.4c4.87,-40.9 -21.75,-31.75 -61.56,-31.31 -66.97,0.73 -252.25,-9.5 -284.89,7.65l0.03 25.19 346.42 -1.53z"/>
   </g>
  </g>
  <g id="_2435201192976">
   <path class="fil4" d="M1436.15 1074.76c47,23.91 39.93,21.34 61.87,66.17 20.61,12.47 47.46,-23.15 50.17,-43.77 4.22,-25.44 -4.3,-45.96 -17.65,-60.73 -15.9,-17.6 -24.02,-26.42 -53.49,-25.97 -5.75,-0.39 -3.5,-0.18 -6.54,-2.53 -3,-99.12 -80.2,-104.37 -101,-117.15 8.75,-8.14 36.95,-19.8 49.01,-25.86l144.16 -82.94 -13.96 119.21c2.58,1.89 -3.97,4.94 4.74,0.95l15.21 -14.75c5.82,-5.64 9.68,-9.91 15.51,-15.77 6.9,-6.95 21.37,-23.71 26.41,-33.14 6.99,-13.1 2.29,-7.54 11.8,-17.13 5.11,-5.16 9.02,-11.39 13.26,-17.93 8.79,-13.54 17.5,-24.95 21.31,-42.79 8.44,-6.32 13.9,-19.35 19.41,-31.18l14.89 4.95c8,2.89 15.17,9.26 24.31,12.68l69.84 31.61c0.64,0.4 1.3,0.9 1.88,1.3l3.73 3.13 0.64 0.2 57.86 24.39 96.14 43.07c-1.96,12 -14.56,24.6 -20.57,36.17 -6.19,11.93 -8.11,27 -14.9,38.65l-12.53 -8.05c-14.19,-1.46 -19.79,7.73 -26.14,14.98 -3.77,4.3 -5.92,6.38 -9.41,11.21l-9.27 11c-8.64,7.9 -26.74,36.04 -29.83,49.34 -4.56,19.64 15.82,47.66 24.76,55.13 13.97,3.23 24.93,-7.92 36.36,-17.73l10.14 -8.07 41.87 -35.61c4.42,-17.67 0.44,-17.77 0.47,-34.12 30.2,-10.62 70.46,-8.54 115.33,-56.36 25.38,-27.03 48.45,-70.69 51.55,-121.79 -42.82,2.63 -103.87,23.95 -137.12,51.8 -2.58,2.16 -4.4,4.13 -6.84,6.07 -7.67,6.12 -2.64,3.28 -11.35,6.81 -12.77,-38.2 -56.49,-138.58 -62.12,-166.64 32.65,-0.08 71.55,12.27 99.17,11.43 -21.08,-27.01 -121.73,-134.57 -136.66,-158.28l65.71 -94.98c11.66,-16.92 21.43,-30.41 33.31,-47.52 9.36,-13.49 26.52,-36.23 32.35,-49.82 -24.72,3.8 -151.08,69.09 -176.25,72.93 6.88,-31.94 41.05,-111.97 40.89,-137.29 -26.05,14.6 -89.63,72.68 -103.33,76.96l-30.48 -261.24c-15.06,19.78 -122.28,292.92 -136.14,308.2 -21.69,-12.08 -209.87,-217.57 -225.78,-220.46 -3.02,22.17 65.93,209.67 73.47,255.33l-75.18 -15.92c6.99,23.91 69.28,105.84 71.77,124.4l-271.87 58.62c3.19,7.26 68.51,25.99 75.24,28.2 40.18,13.22 214.13,68.39 227.68,77.02 -4.07,19.37 -74.48,141.01 -89.08,176.89 -18.45,1.45 -42.1,-4.57 -65.4,-2.89 -3.68,94.91 54.38,151.41 144.14,156.9 -1.81,11.65 -11.96,22.36 -3.47,32.71z"/>
   <path class="fil5" d="M1578.42 415.31c-12.57,-7.03 -41.98,-40.19 -55.81,-53.04 -32.66,-30.33 -146.17,-151.08 -162.8,-160.01 2.26,17.4 67.83,234.38 71.49,238.14 24.03,12.51 117.74,21.77 134.77,33.84 -0.65,0.57 1.03,3.49 -11.34,1.94 -30.42,-3.83 -168.08,-43.19 -195.34,-42.99l61.93 100.53c7.74,12.33 62.39,94.51 59.59,101.82 -10.33,-3.93 -21.41,-28.75 -28.24,-39.45 -8.55,-13.39 -16.54,-28.75 -26.43,-41.48 -15.19,-0.93 -157.37,31.38 -190.11,38.88l-47.83 9.93c-2.66,0.57 -5.95,1.21 -8.13,2.07 -7.02,2.75 -3.92,1.4 -7.33,4.13l286.92 96.62c-5.53,24.9 -76.19,140.49 -86.03,172.17 21.04,-4.6 96.33,-48.5 120.37,-63.02 21.06,-12.71 36.5,-22.47 55.96,-35.16 13.8,-9 13.18,-7.85 15.01,-28.69 0.91,-10.32 -1.15,-35.29 6.96,-39.91 6.61,13.47 -13.19,145.98 -13.71,174.46 25.41,-11.78 99.35,-124.58 114.77,-164.88 11.23,1.86 112.7,50.42 131.59,59.26 41.99,19.65 88.71,42.97 131.3,59.81 -0.59,-9.51 -35.82,-97.34 -43.77,-118.51 -2.61,-6.93 -12.16,-37.44 -17.77,-40.35 -21.03,-5.09 -122.06,-7.58 -131.16,-17.13 8.05,-4.63 40.55,0.88 52.72,2.06 19.23,1.87 38.22,3.84 56.91,6.03 37.39,4.38 75.85,10.32 113.25,13.64 -5.25,-12.85 -76.05,-88.09 -94.02,-110.96 -8.91,-11.34 -25.64,-27.08 -31.39,-38.34 5.07,-11.45 50.34,-72.21 61.67,-88.77 18.94,-27.68 44.39,-60.5 61.58,-89.99 -11.94,1.86 -51.23,20.98 -63.11,26.09 -20.5,8.81 -43.1,18.74 -63.51,27.55 -43.36,18.7 -35.61,9.82 -46.89,44.2 -4.56,13.9 -16.38,60.85 -25.81,68.57l0.7 -12.81c1.27,-4.19 3.39,-9.75 4.83,-14.06 13.69,-40.95 61.01,-178.23 63.34,-200.9 -20.97,9.05 -129.97,102.94 -150.29,119.67 -14.42,11.88 -40.65,37.86 -51.74,40.29 4.91,-18.23 95.79,-76.57 102.44,-91.66 1.01,-18.63 -24.71,-237.27 -28.51,-244.17l-127.03 294.58z"/>
   <path class="fil6" d="M961.47 2132.78c-47.86,33.01 -63.87,45.21 -128.04,65.66 -46.49,14.82 -108.32,31.39 -162.17,31.84 -12.39,-1.56 3.77,-18.19 -70.16,-23.27 -13.86,-0.95 -31.84,-1.17 -42.38,5.54 -17.3,11 4.91,7.36 -31.19,2.43 -73.06,-9.98 -174.11,15.24 -244.56,37.08 -30.24,9.37 -40.3,17.23 -49.76,46.21 -23.68,72.56 19.42,157.39 37.87,231.31 6.88,27.51 10.08,54.42 19.12,77.4 22.81,58.02 65.31,61.56 116.93,24.28 54.97,-39.71 102.5,-126.62 146.27,-184.4 6.89,-9.1 17.27,-19.9 21.81,-27.79 35.12,3.53 63.82,-5.77 88.33,-28.38 9.31,-8.59 13.2,-9.77 15.93,-25.89 138.14,-20.49 276.89,-72.58 381.65,-154.7 21.75,-17.05 78,-67.6 88.87,-89.63 3.36,-21.32 -2.04,-27.14 -20.53,-31.51 -7.2,6.32 -2.15,2.68 -6.77,8.11l-58.33 61.68c-8.85,11.46 -12.54,9.59 -22.48,19.23l-75.02 55.05 -146.4 67.73c-33.98,12.64 -106.34,29.66 -143.28,29.67 3.52,-10.72 0.97,-9.21 15.88,-10.25 7.4,-0.52 10.86,-0.94 18.88,-2.32 13.13,-2.25 25.66,-3.86 35.3,-5.94 22.63,-4.87 43.65,-10.78 67.48,-18.66 68.22,-22.55 123.61,-51.01 182.66,-92.44 3.24,-2.28 3.01,-2.15 6.03,-4.34l41.14 -34.33c4.24,-4.03 7.25,-5.25 12.1,-8.66 5.64,-3.97 52.18,-53.71 60.31,-66.26 -80.64,-0.82 -57.15,19.84 -103.81,54.02l-27.29 22.4c-54.03,43.49 -111.83,64.06 -180.19,83l-118.98 21.46c-17.09,0.96 -15.31,-5.34 -15.32,-5.36 5.47,-3.87 91.64,-13.45 113.17,-19.87 36.1,-10.77 67.92,-18.15 100.98,-31.76 59.68,-24.55 109.69,-62.55 152.99,-109.61 -29.11,7.55 -51.51,21.46 -77.04,31.27z"/>
   <path class="fil6" d="M1336.88 2153.4l6.26 -0.26c11.9,3.51 14.47,24.79 18.91,35.74 61.11,150.72 119.91,270.26 207.26,409.82l68.88 100.3c11.44,15.58 16.11,13.46 11.94,32.55 -7.67,-0.88 -18.32,-5.18 -25.96,-6.83 -33.96,-7.33 -61.36,-12.2 -97.48,-5.91 -35.4,6.17 -77.25,30.82 -79.61,69.81 19.91,13.33 9.06,12.42 46.05,30.21 22.27,10.71 39.67,11.4 68.48,11.49 42.76,0.12 91.14,-18.4 110,-41.76l10.33 10.47c16.18,0 30.39,1.17 41.08,-7.46l4.28 4.75c34.13,59.82 47.37,85.4 102.83,129.96 37.63,30.23 104.68,64.61 167.61,69.79 -0.61,-37.31 23.94,-54.49 45.59,-69.2 23.3,-15.84 49.03,-29.51 79.29,-38.13 -8.68,-8.53 -25.47,-8.45 -44.8,-12.76 -73.25,-16.32 -131.48,-37.12 -191.88,-81.04l-61.04 -50.72c4.75,-10.66 17.88,-18.56 -2.2,-57.28 -11,-21.22 -19.12,-28.91 -48.3,-30.28l-81.86 -121.19c-67.21,-111.04 -121.17,-226.17 -158.45,-351.84l-16.68 -61.42c-6.4,-24.69 -1.76,-17.65 0.88,-18.27 -6.28,2.18 -8.9,7.9 -41.45,15.69l-112.61 30.07c-12.39,4.87 -3.74,3.7 -27.35,3.7z"/>
   <path class="fil6" d="M2622.74 651.81l25.47 -0.82c-26.14,16.74 -20.27,2.7 -70.18,14.65 -97.57,23.35 -185.71,113.69 -233.63,195.85 -60.41,103.55 -54.1,286.44 -220.44,290.68 -72.57,1.85 -136.8,-72.26 -174.78,-125.61 -7.02,-9.86 -16.06,-16.66 -13.04,-28.76l-41.87 35.61 -10.14 8.07c-11.43,9.81 -22.39,20.96 -36.36,17.73 0.54,0.6 1.63,0.33 2.01,1.33 0.37,0.97 1.51,0.95 2.02,1.2 0.49,0.25 1.43,0.75 2.03,1.03 13.23,6.25 4.23,-3.23 17.75,20.38 6.32,11.03 12.36,19.3 18.72,28.25 77.62,109.3 214.02,138.27 341.75,101.18 52.62,-15.28 89.05,-35.91 129.35,-60.87 71.19,-44.07 143.27,-119.81 190.24,-187.33 39.04,-56.13 112.68,-180.81 118.75,-261.87 13.28,3.26 18.1,6.95 32.81,2.32l7.36 -3.2c0.38,-0.18 1.16,-0.59 1.73,-0.91 0.19,-0.78 -0.13,-2.82 -0.17,-2.4l-0.66 -6.14c-0.56,-7.65 -7.41,3.29 0.22,-4.88l-2.99 -3.21c-0.41,-0.43 -1,-1.06 -1.45,-1.52 -22.22,-22.7 -19.13,-23.31 -27.81,-32.57 -3.18,-3.39 -1.24,-1.68 -5.36,-4.69 3.98,12.19 1.77,3.56 -0.82,5.3l-11.35 -1.71c11.88,-1.41 1.42,1.28 5.86,-4.27 -8.89,2.6 -13.78,2.56 -23.12,3.29 -3.54,0.28 -9.71,0.68 -13.02,1.27 -0.89,0.16 -1.6,0.32 -2.38,0.49l-4.4 1.35c-0.4,-0.64 -1.43,0.45 -2.1,0.78z"/>
   <path class="fil6" d="M1703.93 1609.32c-1.57,-6.26 22.19,-73.52 26.04,-86.62 47.98,-163.47 76.61,-347.87 74.25,-519.97 -0.84,-60.77 -4.94,-164.59 -18.77,-218.69 3.32,-3.14 -1.22,-1.43 5.57,-0.92l-3.73 -3.13c-0.58,-0.4 -1.24,-0.9 -1.88,-1.3l-69.84 -31.61c-9.14,-3.42 -16.31,-9.79 -24.31,-12.68 -5.7,4.42 -4.67,-7.05 -4.67,10.58 6.39,4.76 5.03,47.59 5.58,54.86 4.41,58.42 2.1,125 -7.04,182.48 -18.2,114.55 -57.68,212.35 -102.88,312.62 -12.75,28.27 -65.7,137.78 -70.31,155.54 -6.67,25.69 -10.34,29.41 -25.73,47.4 -1.02,1.2 -1.53,1.58 -3.47,4.68 -2.94,4.69 -3.44,6.76 -5.3,10.5l-11.84 23.35c19.17,9.47 7.23,-2.67 37.92,16.22 0.46,0.28 1.11,0.67 1.57,0.93 0.47,0.27 1.14,0.63 1.61,0.89 18.37,10.07 33.78,14.45 34.09,36.65 33,0 100.42,-0.41 129.87,6.74 0.83,0.2 1.44,0.38 2.27,0.59l4.52 1.14c0.91,0.22 3.5,0.81 4.36,1.02 11.77,2.92 14.77,2.76 22.12,8.73z"/>
   <path class="fil6" d="M1141.8 1851.84c-16.87,6.82 -18.28,12.41 -26.46,30.18 -7.74,16.81 -11.45,28.68 -3.78,44.89l53.04 32.57c14.53,9.98 53.14,22.97 58.59,29.23 18.27,0.85 22.91,-2.03 28.63,-14.06 25.24,32.19 12.2,24.06 49.66,46.14 6.02,3.55 11.63,6.9 18.05,6.44 13.14,-0.95 4.53,0.02 6.49,-2.83l9.2 32.72c2,12.43 2.68,6.06 -2.69,8.33 -5.69,7.37 -6.8,4.51 -9.5,17.65 -1.69,8.19 -1.29,17.65 -1.03,26.12 0.58,18.14 4.59,34.76 14.88,44.18 23.61,0 14.96,1.17 27.35,-3.7l112.61 -30.07c32.55,-7.79 35.17,-13.51 41.45,-15.69 7.06,-8.48 5.37,-10.22 9.04,-22.02 35.05,1.98 72.12,15.59 129.76,-14.76 32.76,-17.26 71.75,-48.24 76.33,-88.16 -21.77,-9.84 -59.2,-25.75 -96.41,-22.37 -17.82,1.62 -31.95,5.01 -47.35,11.07 -13.69,5.4 -26.54,15.86 -38.45,22.18 -11.18,14.75 -24.09,22.36 -33.85,41.19l-14.96 -0.3c-8.35,-75.28 -13.99,-198.58 -7.8,-278.26l5.42 -67.48c0.26,-4.97 -0.19,-9.18 0.11,-11.27 1.28,-8.93 -2.66,7.46 0.94,-4.59 1.48,-4.94 1.21,-3.9 3.27,-7.09 7.89,8.48 5.82,20.32 4.36,33.38l-4.37 101.3c-1.57,-3.24 -2.72,0.77 5.27,-12.49 19,-31.52 25.02,-46.41 40.59,-79.11 5.33,-11.2 8.11,-26.82 18.63,-29.91 -59.52,-13.38 -17.12,-16.62 -56.5,-12.3 -18.22,2 -71.44,-19.1 -93.13,-27.21l-30.43 -11.36c-0.59,-0.25 -1.26,-0.57 -1.85,-0.82l-25.16 -7.97c-12.97,-2.85 -21.57,-4.22 -31.82,-9.8 7.88,8.18 1.01,14.51 -4.24,37.39 -18.14,78.99 -20.25,122.47 -19.25,205.7 0.38,30.84 5.2,61.38 5.24,88.44 -18.32,-7.21 -22.4,-5.18 -41.64,-5.18 -6.24,-11.31 -8.31,-24.27 -15.31,-34.06 -21.28,-29.77 -72.28,-48.46 -112.93,-46.24z"/>
   <path class="fil7" d="M1656.96 760.63c12.26,3.91 7.84,-6.59 9.33,15.31l-0.55 47.15c0,94.66 -5.08,138.88 -24.11,229.31 -3.32,15.83 -8.84,34.61 -12.94,49.73l-15.34 47.89c-16.4,45.45 -28.46,67.58 -50,108.77l-66.11 108.76 -78.82 155.52c-11.16,-3.64 -5.26,-2.64 -11.01,-4.86l-6.98 -2.32c-17.65,-4.6 -49.08,-11.07 -59.75,5.33l-5.99 12.45c-5.01,11.61 -4.36,21.01 -9.98,26.11l-12 -8.51c-3.78,-2.75 -7.05,-4.6 -11.3,-7.97 -11.23,-9.29 -36.3,-13.58 -39.87,-17.22 -10.52,-1.43 -16.27,-2.97 -28.03,-2.85 -14.13,0.14 -16.91,2.62 -29.91,3.04 -29.58,8.45 -56.48,15.42 -73.08,33.58 7.15,21.65 32.8,31.59 56.89,43.7 7.65,2.48 8.3,3.89 15.81,6.02 7.61,2.16 10.54,2.26 19.86,2.43 14.41,0.25 30.58,1.62 44.35,-2.04 12.28,-1.8 16.99,-1.89 28.66,-4.54 11.37,-2.58 19.3,-6.1 28.62,-7.28l5.22 7.65c10.25,5.58 18.85,6.95 31.82,9.8l25.16 7.97c0.59,0.25 1.26,0.57 1.85,0.82l30.43 11.36c21.69,8.11 74.91,29.21 93.13,27.21 39.38,-4.32 -3.02,-1.08 56.5,12.3 53.71,14.38 52.08,7.88 79.88,12.79 11.06,1.95 16.91,2.28 31.62,1.55 18.02,-4.23 20.52,-16.46 29.69,-28.81 12.15,6.78 16.32,13.61 36.51,19.73 40.37,12.23 117.14,-3.2 131.74,-24.34 -17.08,-29.56 -75.44,-60.93 -125.76,-52.33 -20.46,3.49 -28.84,11.44 -44.1,15.22l-4.47 -9.74c-7.35,-5.97 -10.35,-5.81 -22.12,-8.73 -0.86,-0.21 -3.45,-0.8 -4.36,-1.02l-4.52 -1.14c-0.83,-0.21 -1.44,-0.39 -2.27,-0.59 -29.45,-7.15 -96.87,-6.74 -129.87,-6.74 -0.31,-22.2 -15.72,-26.58 -34.09,-36.65 -0.47,-0.26 -1.14,-0.62 -1.61,-0.89 -0.46,-0.26 -1.11,-0.65 -1.57,-0.93 -30.69,-18.89 -18.75,-6.75 -37.92,-16.22l11.84 -23.35c1.86,-3.74 2.36,-5.81 5.3,-10.5 1.94,-3.1 2.45,-3.48 3.47,-4.68 15.39,-17.99 19.06,-21.71 25.73,-47.4 4.61,-17.76 57.56,-127.27 70.31,-155.54 45.2,-100.27 84.68,-198.07 102.88,-312.62 9.14,-57.48 11.45,-124.06 7.04,-182.48 -0.55,-7.27 0.81,-50.1 -5.58,-54.86 0,-17.63 -1.03,-6.16 4.67,-10.58l-14.89 -4.95c-5.51,11.83 -10.97,24.86 -19.41,31.18z"/>
   <path class="fil6" d="M1203.6 1526.27c13,-0.42 15.78,-2.9 29.91,-3.04 11.76,-0.12 17.51,1.42 28.03,2.85 -7.26,-15.88 11.66,-114.41 16.63,-135.42 15.29,-64.69 35.85,-111.28 87.77,-146.17 26.83,-18.03 78.09,-63.68 107.85,-87.45 8.51,-6.8 13.24,-13.85 24.23,-16.11 -21.94,-44.83 -14.87,-42.26 -61.87,-66.17 -4.47,16.29 -76.21,83.32 -92.15,98.27 -33.76,31.67 -59.11,53.97 -108.31,81.57 -142.65,80.01 -354.66,195.03 -402.99,357.35 -22.67,76.12 -28.31,168.67 4.72,245.12 4.95,11.47 9.42,20.67 15.57,31.4 5.7,9.92 10.81,24.11 21.34,28.41 9.03,-13.21 1.02,-57.46 0.73,-78.47 -0.38,-27.73 1.25,-57.14 5.03,-83.55 7.13,-49.73 20.42,-98.35 38.75,-140.03 64.27,-146.11 196.59,-224.23 326.11,-296.19 18.7,-10.38 12.43,-19.25 39.16,-51.92 26.32,-32.19 65.21,-50.91 95.37,-81.6 15.37,-15.63 29.16,-28.34 44.29,-44.28l33.02 -34.61c6.42,-7.53 4.46,-7.81 14.29,-10.44 -3.36,10.28 -29.96,35.45 -39.26,45.29 -65.14,68.86 -102.2,86.51 -134.99,120.13 -32.29,33.11 -42.27,61 -50.98,118.49 -5.26,34.63 -16.4,114.18 -27.88,143.34l-14.37 3.23z"/>
   <path class="fil8" d="M988.32 2620.94c6.99,15.77 27.98,52.67 42.83,62.94 4.78,3.31 -0.51,0.58 5.14,2.77 5.14,-10.2 42.64,-47.09 52.45,-58.49 17.42,-20.23 34.41,-38.34 52.38,-59.59 66.41,-78.53 139.72,-169.42 193.73,-259.23 6.7,-11.13 37.32,-62.94 38.21,-73.23 0.7,-8.24 -26.24,-66.2 -29.92,-82.97l-6.26 0.26c-10.29,-9.42 -14.3,-26.04 -14.88,-44.18 -0.26,-8.47 -0.66,-17.93 1.03,-26.12 2.7,-13.14 3.81,-10.28 9.5,-17.65 -3.99,-4.69 -0.75,-1.83 -2.67,-5.52 -0.21,-0.41 -0.54,-1.18 -0.78,-1.62l-4.37 -6.38 -74.74 151.6c-52.35,99.87 -105.4,193.89 -166.77,286.45 -14.18,21.39 -78.81,121.09 -94.88,130.96z"/>
   <path class="fil6" d="M1553.46 902.14c3.02,3.66 2.57,0.7 0.93,7.46l-28.58 54.65c-5.36,8.55 -13.47,19.95 -19.43,27.53 -14.88,18.91 -12.97,13.73 -20.21,15.74l-9.12 2.94c29.47,-0.45 37.59,8.37 53.49,25.97 13.35,14.77 21.87,35.29 17.65,60.73 17.03,-16.05 45.46,-52.8 50.44,-73.8 4.22,-17.78 6.94,-31.26 9.92,-48.63 1.6,-9.29 2.74,-18.76 3.85,-28.18 1.19,-10.11 -0.81,-20.61 6.49,-23.51 8.15,20.72 -26.2,146.44 -34.49,169.91 -19.77,55.93 -46.24,97.62 -73.37,140.57 -36.64,58.01 -84.05,135.85 -113.93,203.47 -5.19,11.75 -27.22,69.46 -33.34,73.32 -3.38,-4.55 -4.47,2.4 -0.83,-10.27l32.92 -78.91c-1.3,5.88 -17.82,20.94 -23.22,27.66l-62.09 88.79c-6.57,8.31 0.63,4.77 -9.13,5.72 4.25,3.37 7.52,5.22 11.3,7.97l12 8.51c5.62,-5.1 4.97,-14.5 9.98,-26.11l5.99 -12.45c10.67,-16.4 42.1,-9.93 59.75,-5.33l6.98 2.32c5.75,2.22 -0.15,1.22 11.01,4.86l78.82 -155.52 66.11 -108.76c21.54,-41.19 33.6,-63.32 50,-108.77l15.34 -47.89c4.1,-15.12 9.62,-33.9 12.94,-49.73 19.03,-90.43 24.11,-134.65 24.11,-229.31l0.55 -47.15c-1.49,-21.9 2.93,-11.4 -9.33,-15.31 -3.81,17.84 -12.52,29.25 -21.31,42.79 -4.24,6.54 -8.15,12.77 -13.26,17.93 -9.51,9.59 -4.81,4.03 -11.8,17.13 -5.04,9.43 -19.51,26.19 -26.41,33.14 -5.83,5.86 -9.69,10.13 -15.51,15.77l-15.21 14.75z"/>
   <path class="fil9" d="M1894.27 1033.41c3.3,30.09 60.88,91.39 76.04,104.75 28.26,24.92 69.6,50.12 120.19,58.52 53.12,8.82 108.87,-2.9 144.72,-28.02 47.93,-33.6 41,-56.86 67.02,-68.58 12.78,-5.76 20.39,-9.62 31.24,-15.66 117.28,-65.29 202.79,-160.87 264.18,-274.18 10.1,-18.65 53.83,-105.12 55.59,-125.12 -18.34,-5.29 -105.37,36.9 -124.69,47.99 -142.37,81.74 -162.31,189.53 -218.5,320.27 -37.25,86.66 -92.06,157.51 -214.98,139.49 -138.88,-20.36 -184.87,-151.09 -200.81,-159.46z"/>
   <path class="fil8" d="M1267.43 1609.96c-10.17,2.9 -21.87,5.64 -34.18,1.79l-75.24 216.62c-4.63,15.43 -1.78,22.36 -16.21,23.47 40.65,-2.22 91.65,16.47 112.93,46.24 7,9.79 9.07,22.75 15.31,34.06 19.24,0 23.32,-2.03 41.64,5.18 -0.04,-27.06 -4.86,-57.6 -5.24,-88.44 -1,-83.23 1.11,-126.71 19.25,-205.7 5.25,-22.88 12.12,-29.21 4.24,-37.39l-5.22 -7.65c-9.32,1.18 -17.25,4.7 -28.62,7.28 -11.67,2.65 -16.38,2.74 -28.66,4.54z"/>
   <path class="fil8" d="M1036.29 2686.65l39.46 37.26c-0.67,-12.7 6.43,-11.8 23.67,-27.82 10.53,-9.8 17.38,-16.32 26.86,-25.19 18.8,-17.59 34.17,-33.47 51.7,-52.41 83.33,-90.06 162.12,-191.7 221.7,-301.8 8.17,-15.1 1.79,-19.66 -5.15,-35.28 -4.87,-10.96 -9.98,-28.7 -17.75,-36.75 -7.5,8.36 -26.57,48.36 -34.6,61.59 -91.18,150.15 -171.7,232.15 -280.08,357.73 -7.26,8.42 -14.18,20.94 -25.81,22.67z"/>
   <path class="fil4" d="M919.99 2728.49c16.12,11.76 15.97,18.12 48.21,28.84 19.61,6.52 42.88,14.3 66.22,9.71 18.35,-9.99 40.68,-21.2 41.33,-43.13l-39.46 -37.26c-5.65,-2.19 -0.36,0.54 -5.14,-2.77 -14.85,-10.27 -35.84,-47.17 -42.83,-62.94 -16.73,-2.42 -25.73,10.7 -38.49,16.76 0.06,-44.76 -0.57,-76.5 -16.53,-113.8 -10.21,-23.84 -37.48,-61.72 -61.58,-68.28 -24.07,24.65 -47.59,121.3 3.83,183.35 6.42,7.75 11.76,12.95 19.42,19.64 8.2,7.18 15.62,11.19 22.93,18.08 -8.04,29.04 -5.83,27.41 2.09,51.8z"/>
   <path class="fil8" d="M961.47 2132.78c25.53,-9.81 47.93,-23.72 77.04,-31.27 -43.3,47.06 -93.31,85.06 -152.99,109.61 -33.06,13.61 -64.88,20.99 -100.98,31.76 -21.53,6.42 -107.7,16 -113.17,19.87 0.01,0.02 -1.77,6.32 15.32,5.36l118.98 -21.46c68.36,-18.94 126.16,-39.51 180.19,-83l27.29 -22.4c46.66,-34.18 23.17,-54.84 103.81,-54.02 -8.13,12.55 -54.67,62.29 -60.31,66.26 -4.85,3.41 -7.86,4.63 -12.1,8.66l-41.14 34.33c-3.02,2.19 -2.79,2.06 -6.03,4.34 -59.05,41.43 -114.44,69.89 -182.66,92.44 -23.83,7.88 -44.85,13.79 -67.48,18.66 -9.64,2.08 -22.17,3.69 -35.3,5.94 -8.02,1.38 -11.48,1.8 -18.88,2.32 -14.91,1.04 -12.36,-0.47 -15.88,10.25 36.94,-0.01 109.3,-17.03 143.28,-29.67l146.4 -67.73 75.02 -55.05c9.94,-9.64 13.63,-7.77 22.48,-19.23l58.33 -61.68c4.62,-5.43 -0.43,-1.79 6.77,-8.11 18.49,4.37 23.89,10.19 20.53,31.51l23.05 -30.17c39.14,-56.44 40.46,-84.32 50.15,-101.59 -5.45,-6.26 -44.06,-19.25 -58.59,-29.23l-53.04 -32.57c4.87,18.57 -80.82,132.72 -104.17,159.12 -7.58,8.57 -13.03,14.95 -21.23,23.02l-24.69 23.73z"/>
   <path class="fil6" d="M1603.89 1876.52c11.3,-30.97 25.82,-62.48 38.11,-93.3 6.7,-16.8 30.76,-83.61 38.32,-93.63 -14.71,0.73 -20.56,0.4 -31.62,-1.55 -27.8,-4.91 -26.17,1.59 -79.88,-12.79 3.97,17.58 -40.57,96.22 -47.81,109.26 -15.54,28 -18.08,21.97 -18.44,61.75 -0.16,18.94 -0.77,37.29 35.61,44.6 6.79,-7.13 8.37,-16.04 12.22,-24.25l78.17 -174.45c3.89,-6.22 1.33,-2.92 5.94,-6.96 3.95,5.73 2.11,-1.59 2.64,7.01 0.34,5.66 -4.97,15.3 -7.38,21.1l-80.98 181.53c38.34,4.14 45.93,-7.72 55.1,-18.32z"/>
   <path class="fil8" d="M1034.42 2767.04c-23.34,4.59 -46.61,-3.19 -66.22,-9.71 -32.24,-10.72 -32.09,-17.08 -48.21,-28.84 2.86,14.87 -18.22,58.35 -20.94,109.6 -2.83,53.24 5.37,70.52 21.36,110.49 0.52,-0.62 1.13,-2.45 1.33,-2.04l3.68 -8.33c7.44,-26.31 9.08,-41.4 57.07,-50.86 43.29,-8.53 72.9,-7.83 116.32,-3.88 -14.45,-32.27 -81.35,-60.2 -80.75,-110.46 6.03,-0.02 11.45,-0.95 16.36,-5.97z"/>
   <path class="fil8" d="M884.74 1881.94c4.74,-7.67 2.35,-41.09 3.52,-54.03 1.46,-16.36 4.33,-32.31 7.8,-48.65 6.54,-30.8 15.86,-58.08 27.47,-87.01 54.62,-136.08 154.71,-222.22 272.54,-302.83 27.66,-18.92 44.55,-22.23 48.36,-37.31 1.8,-7.17 4.44,-20.45 5.51,-27.84 -17.01,5.22 -59.7,31.76 -75.29,41.23 -163.32,99.2 -271.05,207.62 -291.21,408.65 -2.26,22.45 -7.31,90.88 1.3,107.79z"/>
   <path class="fil5" d="M2660.38 615.24c-3.94,-9.75 -14.25,-15.39 -21.95,-25.45 -13.09,-17.13 -24.11,-42.33 -30.33,-63.2 -6.02,-20.2 -7.51,-14.76 -27.59,-22.42 -23.33,-8.89 -42.35,-18.14 -64.24,-29.41 -30.98,-15.95 -48.04,-13.65 -86.21,-11.69 -2.1,42.92 36.96,92.57 74.55,117.66 38.85,25.92 93.3,40.99 155.77,34.51z"/>
   <path class="fil10" d="M843.5 1883.28c-15.99,-22.53 -30.11,-73.17 -33.04,-105.15 -8.9,-6.27 -14.78,-14.38 -23.64,-21.62 -8.46,-6.92 -17.55,-13.35 -27.6,-19.17 -19.92,-11.54 -48.16,-19.95 -73.89,-22.6 -1.43,54.62 12.95,102.54 37.96,136.58 20.79,28.3 61.04,60.41 106.78,66.09l3.35 -5.76c8.87,-16.56 11.64,-14.6 10.08,-28.37z"/>
   <path class="fil5" d="M1332.56 1598.97c17.69,7.26 44.99,13.29 63.9,19.58 22.37,7.43 42.39,15.18 63.13,22.86 16.11,5.95 48.31,23 62.26,8.87 11.41,-11.56 20.36,-52.05 7.34,-70.86 -17.77,-25.66 -112.07,-52.09 -151.85,-59.75 -15.86,-3.06 -22.47,-4.84 -31.24,7.23 -12.24,16.86 -17.85,45.12 -13.54,72.07z"/>
   <path class="fil5" d="M560.34 2219.31c0.59,25.01 13.07,68.6 19.04,92.88 8.08,32.85 7.34,66.05 8.16,102.13 22.3,0.74 38.71,-8.29 53.64,-17.41 19.48,-11.9 29.69,-13.8 29.62,-43.04 -0.09,-36.24 -3.34,-67.7 -7.72,-100.12 -3.36,-24.86 0.33,-26.91 -23.19,-33.2 -14.65,-3.92 -33.32,-6.33 -49.33,-6.3 -11.16,0.02 -21.75,1.83 -30.22,5.06z"/>
   <path class="fil5" d="M1724.28 1982.68c-65.44,-25.32 -124.21,-30.58 -177.17,23.46 -20.9,21.32 -28.49,31.76 -23.76,54.74 1.59,7.69 -4.35,11.61 22.67,17.45 69.74,15.07 170.19,-37.64 178.26,-95.65z"/>
   <path class="fil5" d="M1301.71 891.34c-2.42,47.01 19.69,87.84 43.22,109.43 22.34,20.49 48.36,29.74 80.32,34.02 18.64,2.49 18.2,3.42 28.13,-7.46 8.58,-9.41 11.69,-8.79 10.83,-27.15 -0.58,-12.23 -2.87,-23.62 -6.76,-33.82 -7.29,-19.16 -20.04,-33.43 -34.1,-44.07 -27.96,-21.14 -80.13,-35.16 -121.64,-30.95z"/>
   <path class="fil5" d="M1930.92 956.28c82.74,0.79 155.86,-73.48 165.52,-163.08 -60.65,2.21 -138.94,41.59 -166.98,98.53 -3.86,7.83 -9.82,22.46 -10.94,33.55 -1.67,16.45 7.55,16.71 12.4,31z"/>
   <path class="fil5" d="M1667.37 2782.82c-1.97,-12.49 -6.31,-16.52 -10.71,-28.98 -5.8,-16.4 -3.94,-13.79 -21.9,-18.43 -20.78,-5.36 -41.15,-10.46 -65.28,-11.11 -51.98,-1.38 -92.89,12.6 -110.14,45.9 -16.95,32.75 68.55,53.55 94.4,53.8 33.83,0.34 66.05,-8.11 91.93,-23.96 9.97,-6.1 13.77,-11.52 21.7,-17.22z"/>
   <path class="fil8" d="M1551.21 1989.88c17.48,-34.99 36.98,-74.45 52.68,-113.36 -9.17,10.6 -16.76,22.46 -55.1,18.32l80.98 -181.53c2.41,-5.8 7.72,-15.44 7.38,-21.1 -0.53,-8.6 1.31,-1.28 -2.64,-7.01 -4.61,4.04 -2.05,0.74 -5.94,6.96l-78.17 174.45c-3.85,8.21 -5.43,17.12 -12.22,24.25 -36.38,-7.31 -35.77,-25.66 -35.61,-44.6 0.36,-39.78 2.9,-33.75 18.44,-61.75 7.24,-13.04 51.78,-91.68 47.81,-109.26 -10.52,3.09 -13.3,18.71 -18.63,29.91 -15.57,32.7 -21.59,47.59 -40.59,79.11 -7.99,13.26 -6.84,9.25 -5.27,12.49l4.37 -101.3c1.46,-13.06 3.53,-24.9 -4.36,-33.38 -2.06,3.19 -1.79,2.15 -3.27,7.09 -3.6,12.05 0.34,-4.34 -0.94,4.59 -0.3,2.09 0.15,6.3 -0.11,11.27l-5.42 67.48c-6.19,79.68 -0.55,202.98 7.8,278.26l14.96 0.3c9.76,-18.83 22.67,-26.44 33.85,-41.19z"/>
   <path class="fil11" d="M913.59 1918.49c14.48,-0.47 6.19,-1.66 11.91,3.22 -1.24,51.03 -79.73,56.29 -88.22,12.31 -2.2,-11.43 -1.79,-37.45 14.98,-36.53l-8.76 -14.21c1.56,13.77 -1.21,11.81 -10.08,28.37l-3.35 5.76c-45.74,-5.68 -85.99,-37.79 -106.78,-66.09 -25.01,-34.04 -39.39,-81.96 -37.96,-136.58 25.73,2.65 53.97,11.06 73.89,22.6 10.05,5.82 19.14,12.25 27.6,19.17 8.86,7.24 14.74,15.35 23.64,21.62 -3.85,-27.46 -86.13,-71.32 -130.48,-69.23 -8.26,60.45 21.01,138.5 68.9,176.96 10.69,8.59 40.63,27.7 51.05,29.19 -36.83,4.59 -56.01,4.14 -91.4,23.25 -13.29,7.17 -14.24,10.46 -27.97,2.84 -28.42,-15.79 -84.6,-42.25 -112.53,-14.22 4.38,38.29 52.56,15.77 122.68,45.71 30.38,12.97 26.1,-29 138.02,-26.54l0.38 -19.67c-2.67,9.77 9.53,40.11 43.38,46.08 32.53,5.74 48.37,-8.99 56.7,-35.53 30.71,-0.36 49.72,-14.08 83.47,2.8 31.21,15.61 15.01,28.8 72.54,25.83l10.55 -17.25c-13.86,-0.9 -33.4,2.49 -45.16,-2.77 -6.34,-2.83 -15.22,-13.29 -27.8,-19.07 -14.66,-6.74 -69.2,-15.54 -84.12,-3.76 -9.23,-3.56 -6.43,-10.66 -16.69,-8.71 -15.98,3.03 -2.81,0.34 -8.39,4.45z"/>
   <path class="fil8" d="M1681.94 2799.03l16.69 3.13c-3.31,1.05 -16.97,20.88 -21.76,26.2 -43.62,48.42 -91.77,44.53 -101.8,54.56 -15.22,17.29 -1.08,56.24 10.11,69.1 29.65,4.45 78.16,-19.62 98.05,-31.26 26.49,-15.49 55.8,-41.4 69.71,-64.44 -2.78,-10.93 -10.79,-19.51 -16.26,-29.25 -5.59,-9.97 -11.05,-19.53 -14.86,-30.63 3.52,-2.35 -1.54,-2.07 5.48,-0.12l-4.28 -4.75c-10.69,8.63 -24.9,7.46 -41.08,7.46z"/>
   <path class="fil6" d="M1233.25 1611.75c12.31,3.85 24.01,1.11 34.18,-1.79 -13.77,3.66 -29.94,2.29 -44.35,2.04 -9.32,-0.17 -12.25,-0.27 -19.86,-2.43 -7.51,-2.13 -8.16,-3.54 -15.81,-6.02 6.28,15.24 -46.34,80.58 -54.49,90.01 -25.16,29.07 -45.78,51.56 -73.71,77.21 -37.61,34.54 -83.72,67.28 -127.84,95.94 -14.46,9.39 -32.84,18.83 -45.65,28.97l0.45 18.48c66.04,10.23 266.76,-186.91 316.96,-249.44 17.13,-21.33 15.56,-45.95 30.12,-52.97z"/>
   <path class="fil5" d="M1685.48 2792.14c42.63,1.77 107.98,-37.11 139.7,-59.96 2.56,-26.34 -13.86,-58.77 -31.56,-66.6 -14.9,-6.6 -59.94,14.02 -73.83,20.73 -63.84,30.84 -86.04,44.14 -34.31,105.83z"/>
   <path class="fil10" d="M924.88 2669.79c13.79,-27.22 18.84,-6.93 18.77,-55.58 -0.1,-58.51 -25.04,-135.08 -69.32,-150.28 -19.87,22.48 -28.59,87.25 -19.2,122.6 8.92,33.55 42.18,76.53 69.75,83.26z"/>
   <path class="fil5" d="M1339.81 2146.06c21.93,-0.23 92.72,-23.16 116.63,-29.33 12.13,-3.13 48.52,-13.43 55.13,-18.41 15.86,-11.92 7.42,-42.06 3.38,-59.8l-125.02 25.86c-26.14,3.93 -54.34,4.23 -58.8,17.77 -6.93,21.05 1.19,48.52 8.68,63.91z"/>
   <path class="fil5" d="M1529.92 1651.52c28.07,15.11 49.22,20.84 86.41,25.88 57.62,7.8 75.44,12.14 85.9,-18.94 15.37,-45.69 -13.74,-51.05 -50.42,-56.16 -34.45,-4.79 -75.21,-4.65 -111.09,-3.16 -1.31,9.46 -0.55,19.97 -2.94,28.83 -2.32,8.59 -6.37,12.83 -7.86,23.55z"/>
   <path class="fil10" d="M1069.42 2728.76c-15.75,-23.05 -54.97,-36.36 -85.07,-102.27 -20.05,2.31 -43.88,30.57 -53.85,43.91 -42.44,56.77 33.43,82.78 78.53,90.94 30.52,5.52 56.11,-20.4 60.39,-32.58z"/>
   <path class="fil10" d="M1114.89 1918.16c44.09,30.45 33.47,23.49 81.89,48.61 13.64,7.08 34.07,21.74 47.18,6.85 7.69,-8.73 19.89,-31.45 15.47,-48.56 -12,-46.42 -105.71,-81.6 -127.17,-57.69 -9.55,10.64 -17.53,31.15 -17.37,50.79z"/>
   <path class="fil5" d="M1139.53 1559.29c3.86,14.45 18.6,21.8 32.06,28.99 46.91,25.06 123.9,19.01 153.24,0.2 2.67,-19.1 4.59,-21.79 -26.78,-38.87 -15.28,-8.32 -30.72,-15.33 -51.33,-17.06 -51.37,-4.31 -73.96,9.01 -107.19,26.74z"/>
   <path class="fil5" d="M1853.19 1055.34c15.2,-5.62 70.99,-52.01 78.86,-65.63 1.07,-32.1 -21.52,-59.06 -39.81,-68.12 -16.96,8.48 -70.14,75.14 -61.94,99.09 5.13,14.96 13.56,28.42 22.89,34.66z"/>
   <path class="fil5" d="M1710.02 1627.34l-0.28 24.14c21.68,16.05 36.34,27.85 75.9,26.93 32.9,-0.77 57.8,-10.15 81.92,-20.66 -8.18,-21.57 -46.59,-39.32 -67.78,-45.09 -37.26,-10.14 -61.86,0.16 -89.76,14.68z"/>
   <path class="fil12" d="M2767.95 669.5c1.85,6.57 -4.88,2.02 7.6,6.98 3.04,1.2 11.39,2.8 14.7,3.6 8.83,2.14 19.87,4.46 29.53,5.51 23.18,2.51 47.54,-0.31 70.31,1.79 16.65,30.23 88.83,103.06 135.97,111l10.09 -26.98c-10.47,-9.35 -20.82,-13.69 -30.68,-20.26 -28.75,-19.15 -57.46,-42.77 -83.23,-65.12 -52.06,-45.13 4.99,-10.26 -116.32,-17.07 -9.02,-0.51 -12.2,-1.35 -19.82,-2.64 -12.2,-2.08 -12.61,-3.46 -18.15,3.19z"/>
   <path class="fil5" d="M1439 1067.81c15.06,12.67 38.8,15.96 53.62,45.67 2.14,4.31 2.77,6.49 4.58,10.78 0.95,2.29 1.35,3.51 2.35,5.35 3.9,7.25 1.81,3.55 4.79,7.17 20.11,-2.11 34.99,-20.95 38.49,-40.94 7.6,-43.41 -41.48,-93.88 -71.63,-76.84 -13.19,7.45 -29.87,30.27 -32.2,48.81z"/>
   <path class="fil13" d="M2456.65 408.52l0.72 26.3c42.33,25.23 79.76,46.38 124.28,63.59 6.07,2.34 11.89,4.31 17.04,6.06 21.08,7.18 9.82,10.72 25.13,45.51 8.18,18.58 24.82,49.35 40.94,54.03 -6.85,-25.43 -29.8,-45.75 -34.57,-110.3 -11.43,-6.7 -27.63,-13.87 -39.6,-20.45 -46.62,-25.63 -84.38,-56.52 -115.2,-73.23l-18.74 8.49z"/>
   <path class="fil7" d="M1852.84 954.74l9.27 -11c3.49,-4.83 5.64,-6.91 9.41,-11.21 6.35,-7.25 11.95,-16.44 26.14,-14.98 -4.38,-4.9 -6.91,-2.23 -12.19,-4.54 -13.55,-5.91 -38.76,-90.1 -42.3,-102.93 2.28,-3.39 -5.27,-3.21 6.35,-2.37l-57.86 -24.39c4.16,38.5 7.79,62.61 21.69,95.49 5.66,13.38 11.07,25.87 18.22,39.05 6.45,11.89 18.12,24.18 21.27,36.88z"/>
   <path class="fil11" d="M138.21 2697c15.78,-1.24 150.86,-48.45 162.41,-56.76 -3.82,-9.25 -10.38,-17.43 -15.46,-30.22 -4.64,-11.68 -7.05,-26.95 -12.21,-37.42 -18.08,5.91 -123.59,108.79 -134.74,124.4z"/>
   <path class="fil13" d="M2699.83 458.62c-1.68,13.37 -12.29,35.83 -16.2,54.24 -4.28,20.1 -3.42,45.44 -1.53,67.65l16.66 -3.08c1.95,-34.92 -10.7,-47.73 10.45,-100.85 4.62,-11.61 10.26,-19.31 13.4,-28.37 -26.05,-22.07 -41.26,-28.06 -52.15,-70.28 -15.83,-61.39 14.12,-90.92 -24.88,-94.75 -19.29,39.66 -9.75,109.28 20.8,145.73 17.33,20.67 22.4,19.24 33.45,29.71z"/>
   <path class="fil12" d="M2674.07 645.31c4.12,3.01 2.18,1.3 5.36,4.69 8.68,9.26 5.59,9.87 27.81,32.57 0.45,0.46 1.04,1.09 1.45,1.52l2.99 3.21c66.6,2.14 60.34,-48.91 27.88,-81.51 -37.21,-37.36 -65.45,-14.63 -70.98,7.19 -3.98,15.71 4.8,21.55 5.49,32.33z"/>
   <path class="fil11" d="M91.43 2512.31c12.16,-0.98 129.65,-45.66 144.05,-55.49 3.25,-2.21 2.67,-1.88 4.94,-4.02l-17.43 -67.4c-8.5,4.29 -123.07,116.2 -131.56,126.91z"/>
   <path class="fil11" d="M635.59 2064.9c12.1,23.1 33.96,13.73 55.86,4.66l91.18 -36.41c47.56,-16.92 18.35,-10.83 42.74,-40.64 16.7,-20.41 17.81,-8.75 21.4,-24.92 -32.23,-16.67 -47.3,37.51 -64.27,44.95 -0.13,0.05 -113.61,25.31 -146.91,52.36z"/>
   <path class="fil12" d="M2622.74 651.81c0.67,-0.33 1.7,-1.42 2.1,-0.78l4.4 -1.35c0.78,-0.17 1.49,-0.33 2.38,-0.49 3.31,-0.59 9.48,-0.99 13.02,-1.27 9.34,-0.73 14.23,-0.69 23.12,-3.29l-5.22 -13.73c-40.31,-3.05 -79.09,1.34 -120.24,-5.57 -30.1,-5.05 -74.58,12.86 -101.45,20.13l10.02 24.49c23.61,-2.1 51.85,-15.4 76.7,-18.87 12.16,-1.7 84.56,-1.38 95.17,0.73z"/>
   <path class="fil14" d="M2822.81 527.79c30.52,8.45 40.68,21.18 89.84,22.91 28.16,0.99 75.65,-5.02 93.48,-19.18 -5.54,-39.51 -38.22,-15.83 -55.35,-11.64 -48.72,11.9 -90.27,-5.15 -130.78,-17.13 -14.59,-1.27 -3.38,-1.55 -7.76,4.93l10.57 20.11z"/>
   <path class="fil8" d="M912.57 2737.66c-20.53,51.94 -78.7,63.16 -87.16,77.43 -4.38,7.38 -15.39,37.17 -5.62,46.29 11.07,10.35 51.28,-8.21 62.75,-15.11 16.62,-10.01 10.31,-26.67 19.08,-63.93 3.21,-13.64 10.63,-33.12 10.95,-44.68z"/>
   <path class="fil13" d="M2197.9 2963.06c-17.4,-13.81 -110.25,-38.12 -139.04,-33.48 -4.88,6.95 -16.05,25.87 -7.89,38.67 9.16,14.36 141.27,-2.55 146.93,-5.19z"/>
   <path class="fil12" d="M2764.04 869.95c9.73,6.63 17.16,6.34 30.2,6.43 -3.87,-45.14 -4.35,-80.29 -4.61,-126.18 -7.85,-9.83 -18.03,-16.41 -26.74,-27.15 -6.28,-7.75 -15.67,-28.88 -21.95,-33.38 -15.98,3 -11.61,6.47 6.99,32.85 7.24,10.27 23.2,27.5 24.62,35.6 3.76,21.36 -9.71,83.6 -8.51,111.83z"/>
   <path class="fil8" d="M1022.77 2973.47c-19.35,-13.48 -82.84,-18.92 -41.87,-73.5l3.88 -5.74c-34.28,3.17 -61.52,24.02 -53.53,63.3 6.46,31.74 79.12,23.33 91.52,15.94z"/>
   <path class="fil10" d="M913.59 1918.49l-44.47 4.75c-8.17,-7.52 -13.44,-16.29 -16.86,-25.75 -16.77,-0.92 -17.18,25.1 -14.98,36.53 8.49,43.98 86.98,38.72 88.22,-12.31 -5.72,-4.88 2.57,-3.69 -11.91,-3.22z"/>
   <path class="fil10" d="M1321.79 2021.33l-15.71 -81.54 -38.64 -1.05c-5.69,7.18 -12.63,18.77 -10.09,28.85 4.14,16.44 40.32,49.06 64.44,53.74z"/>
   <path class="fil13" d="M1054.91 2972.02c-8.11,-18.04 -45.87,-99.25 -73.63,-63.47 -17.42,22.46 -3.39,39.12 14.64,47.42 10.81,4.98 46.03,17.39 58.99,16.05z"/>
   <path class="fil11" d="M908.66 1976.08c8.79,10.7 15.08,10 24.78,24.54 7.52,11.28 11.23,21.43 12.83,35.98 2.21,20.1 15.13,28.37 30.82,45.26 6.75,7.27 5.58,8.87 15.67,12.51l12.59 -15.89c-25.14,-31.36 -31.7,-14.22 -39.43,-59.3 -3.77,-21.98 -25.68,-47.83 -42.13,-55.25l-15.13 12.15z"/>
   <path class="fil8" d="M1003.83 2892.77c14.65,11 21.53,16.32 31.76,31.37 8.79,12.92 16.95,27.45 22.98,42.06 12.71,-1.95 36.78,-9.52 41.76,-18.76 -12.28,-7.81 -30.23,-5.98 -34.79,-19.36 -6.42,-18.86 6.74,-30.45 12.45,-41.3 -26.59,-2.5 -65.65,0.5 -74.16,5.99z"/>
   <path class="fil13" d="M2247.83 2918.8c-8.98,-7.58 -85.72,-25.61 -102.43,-22.63 -5.24,8.58 -10.15,23.83 -2.98,35.32 11.81,18.91 104.02,-12.01 105.41,-12.69z"/>
   <path class="fil13" d="M1154.85 2957.45c-8.86,-20.71 -52.51,-87.76 -76.82,-58.85 -23.49,27.93 4.74,35.79 18.23,40.28 15.04,5.01 44.7,17.1 58.59,18.57z"/>
   <path class="fil11" d="M2822.81 527.79l-10.57 -20.11c4.38,-6.48 -6.83,-6.2 7.76,-4.93 -6.41,-5.15 -0.94,-2.73 -10.67,-3.99 -14.06,38.36 -49.97,65.75 -75.06,86.05 -2.89,2.35 -2.52,1.98 -4.33,3.98l16.05 15.11c31.64,-10.48 70.05,-73.76 76.82,-76.11z"/>
   <path class="fil11" d="M1487.78 2910.68c9.74,24.57 48.38,33.48 82.51,34.55l-8.04 -37.59 -74.47 3.04z"/>
   <path class="fil11" d="M183.64 2599.58c17.09,-1.69 35.07,-6.59 50.38,-11.11 19.8,-5.84 22.09,-15.11 36.71,-23.14l-3.02 -23.84c-17.93,3.9 -78.68,47.34 -84.07,58.09z"/>
   <path class="fil5" d="M2647.83 659.08c6.76,26.52 26.1,45.02 58.34,37.91 -6.74,-18.42 -11.72,-4.19 -33.03,-43.07 -5.08,-0.3 -6.77,-0.71 -12.2,0.06l-13.11 5.1z"/>
  </g>
  <path class="fil5" d="M4296.64 1419.73c-89.13,12.89 -162.9,90.27 -149.83,195.47 10.69,86.01 94.09,163.38 196.51,148.57 86.74,-12.55 162.23,-91.18 147.74,-197.24 -11.78,-86.23 -93.99,-161.32 -194.42,-146.8zm-141.17 -97.5c-37.96,6.21 -67.1,29.58 -83.46,52.2 -23.74,32.81 -24.33,66.46 -24.44,113.96 -0.1,44.7 -3.08,242.45 2.7,270.42 8,38.7 30.1,65.62 53.04,80.96 36.61,24.47 62.51,23.44 112.88,23.43 44.01,-0.01 241.81,2.94 268.49,-2.17 37.88,-7.25 65.73,-29.53 81.75,-52.61 23.69,-34.11 24.59,-62.91 24.58,-111.79 -0.01,-44.07 2.84,-242.44 -1.99,-268.97 -7.06,-38.82 -29.6,-67.25 -52.01,-82.09 -40.36,-26.73 -55.97,-25.25 -112.58,-25.22 -45.5,0.02 -240.59,-2.76 -268.96,1.88zm132.31 61.23c-105.22,17.24 -196.91,113.4 -177,240.45 16.76,106.87 114.83,194.64 241.37,176.01 104.48,-15.38 196.56,-116.12 175.15,-243.41 -17.02,-101.22 -114.88,-193.47 -239.52,-173.05zm-17.83 313.15l97.38 0c-0.02,-19.04 -1,-29.35 -10.74,-39.63 -18.49,-19.51 -82.85,-33.21 -86.64,39.63zm96.35 -191.42l0 97.4c0,43.33 37.47,38.54 37.47,3.36l-0.01 -100.76c0,-38.75 -37.46,-43.12 -37.46,0zm-127.19 121.89c10.3,5.12 15.33,6.31 28.3,2.56 11.13,-21 5.85,-87.66 6.07,-114.45 0.1,-11.45 1.7,-24.82 -4.71,-32.65 -5.79,-7.08 -19.12,-8.37 -26.42,-1.85 -11.64,10.38 -8.71,127.45 -3.24,146.39z"/>
  <g id="_2435201193584">
   <path class="fil15" d="M2831.58 2271.42l73 -182.52 0 -7.39 -73 -175.12 70.38 0 48.76 139.49 48.77 -139.49 69.31 0 -73.01 175.12 0 7.39 73.01 182.52 -73.01 0 -43.31 -140.56 -47.9 140.56 -73 0zm314.87 5.16c-15.96,0 -28.81,-5.65 -38.54,-17.04 -9.64,-11.29 -14.51,-25.3 -14.51,-42.05l0 -311.1 73.01 0 0 288.91c0,7.59 2.33,13.72 7.01,18.49 4.67,4.77 10.7,7.11 18.1,7.11 3.99,0 7.89,-0.39 11.68,-1.36 3.8,-0.98 7.6,-2.63 11.3,-4.97 3.69,-2.43 6.61,-4.28 8.66,-5.74 2.04,-1.46 5.06,-3.89 8.95,-7.3 3.9,-3.41 6.33,-5.45 7.3,-6.23l0 -288.91 73.01 0 0 365.03 -73.01 0 0 -39.33c-7.2,6.23 -12.46,10.81 -15.86,13.63 -3.31,2.92 -8.37,6.72 -15.19,11.59 -6.91,4.86 -12.94,8.37 -18.1,10.51 -5.26,2.24 -11.78,4.18 -19.57,6.03 -7.79,1.76 -15.87,2.73 -24.24,2.73zm216.56 -5.16l0 -365.03 73 0 0 48.77c7.4,-14.41 18.21,-27.06 32.32,-37.77 14.21,-10.81 29.89,-16.16 47.21,-16.16 0.59,0 4.48,0.39 11.68,1.17l0 80.69c-13.43,-5.35 -26.96,-7.98 -40.49,-7.98 -15.19,0 -27.45,4.58 -36.8,13.73 -9.24,9.05 -13.92,21.12 -13.92,36.21l0 246.37 -73 0zm184.82 0l0 -511.04 73 0 0 280.92 91.21 -134.91 73.01 0 -81.77 127.52 81.77 237.51 -73.01 0 -54.7 -176.58 -36.51 48.77 0 127.81 -73 0zm264.35 -419.83l0 -73.01 73.01 0 0 73.01 -73.01 0zm0 419.83l0 -365.03 73.01 0 0 365.03 -73.01 0z"/>
   <path class="fil16" d="M4030.36 2243.96c-22.08,0 -38.09,-5.69 -48.12,-16.92 -10.02,-11.22 -15.19,-28.28 -15.49,-51.03l0 -174.57 -28.06 0 0 -42.06 28.06 0 0 -98.25 56.12 0 0 98.25 42.13 0 0 42.06 -42.13 0 0 163.8c0,11.22 1.58,19.53 4.64,24.76 3.07,5.24 9.28,7.86 18.64,7.86 4.04,0 10.32,-0.67 18.85,-2.17l0 45.65c-14.06,1.72 -25.59,2.62 -34.64,2.62zm65.83 -3.97l0 -280.61 56.12 0 0 37.49c5.68,-11.07 13.99,-20.8 24.84,-29.03 10.93,-8.31 22.97,-12.42 36.29,-12.42 0.45,0 3.44,0.3 8.98,0.9l0 62.03c-10.32,-4.12 -20.73,-6.14 -31.13,-6.14 -11.67,0 -21.1,3.52 -28.28,10.55 -7.11,6.96 -10.7,16.24 -10.7,27.84l0 189.39 -56.12 0zm219.22 3.97c-13.54,0 -25.36,-2.4 -35.39,-7.04 -10.03,-4.71 -17.96,-10.77 -23.87,-18.33 -5.91,-7.48 -10.7,-17.14 -14.37,-28.88 -3.66,-11.83 -6.21,-23.58 -7.55,-35.32 -1.43,-11.75 -2.25,-25.45 -2.55,-41.08 -0.45,-12.28 -0.45,-24.62 0,-36.89 0.45,-14.6 1.42,-27.54 2.99,-38.92 1.5,-11.29 4.19,-22.29 8.01,-32.92 3.82,-10.7 8.68,-19.46 14.74,-26.34 6.06,-6.88 14.07,-12.42 23.95,-16.54 9.87,-4.19 21.32,-6.28 34.49,-6.28 11.98,0 22.53,1.57 31.73,4.71 9.13,3.14 16.69,7.93 22.75,14.29 6.06,6.36 11.15,13.4 15.11,21.11 4.04,7.78 7.11,17.13 9.13,28.21 2.02,11 3.44,21.85 4.27,32.55 0.82,10.7 1.19,22.97 1.19,36.81l0 6.59 -112.24 0 0 13.99c0,1.95 0,4.94 0,9.05 -0.3,5.39 -0.3,11 -0.07,16.77 0.22,5.76 0.45,11.44 0.75,16.98 0.3,5.54 1.12,10.85 2.39,15.87 1.35,5.08 2.92,9.5 4.86,13.24 1.88,3.82 4.57,6.81 8.01,9.05 3.44,2.17 7.48,3.22 12.12,3.22 5.84,0 10.7,-1.12 14.52,-3.37 3.74,-2.24 6.58,-5.68 8.38,-10.17 1.87,-4.57 3.14,-9.06 3.89,-13.62 0.68,-4.49 1.12,-10.25 1.27,-17.06l0 -11.9 55.68 0 0 11.22c-1.28,29.94 -8.68,52.61 -22.15,67.95 -13.4,15.34 -34.12,23.05 -62.04,23.05zm-27.61 -172.33l55.67 0 0 -16.91c-0.14,-7.41 -0.52,-13.92 -1.27,-19.46 -0.75,-5.61 -2.02,-11.15 -3.89,-16.69 -1.79,-5.53 -4.64,-9.8 -8.38,-12.72 -3.82,-2.92 -8.53,-4.41 -14.07,-4.41 -5.68,0 -10.47,1.57 -14.36,4.64 -3.82,3.06 -6.66,7.48 -8.53,13.24 -1.8,5.76 -3.07,11.45 -3.82,16.99 -0.75,5.61 -1.2,12.19 -1.35,19.98l0 15.34zm222.3 172.33c-13.54,0 -25.36,-2.4 -35.39,-7.04 -10.03,-4.71 -17.96,-10.77 -23.87,-18.33 -5.91,-7.48 -10.7,-17.14 -14.37,-28.88 -3.66,-11.83 -6.21,-23.58 -7.55,-35.32 -1.43,-11.75 -2.25,-25.45 -2.55,-41.08 -0.45,-12.28 -0.45,-24.62 0,-36.89 0.45,-14.6 1.42,-27.54 2.99,-38.92 1.5,-11.29 4.19,-22.29 8.01,-32.92 3.82,-10.7 8.68,-19.46 14.74,-26.34 6.06,-6.88 14.07,-12.42 23.95,-16.54 9.87,-4.19 21.32,-6.28 34.49,-6.28 11.98,0 22.53,1.57 31.73,4.71 9.13,3.14 16.69,7.93 22.75,14.29 6.06,6.36 11.15,13.4 15.11,21.11 4.04,7.78 7.11,17.13 9.13,28.21 2.02,11 3.44,21.85 4.27,32.55 0.82,10.7 1.19,22.97 1.19,36.81l0 6.59 -112.24 0 0 13.99c0,1.95 0,4.94 0,9.05 -0.3,5.39 -0.3,11 -0.07,16.77 0.22,5.76 0.45,11.44 0.75,16.98 0.3,5.54 1.12,10.85 2.39,15.87 1.35,5.08 2.92,9.5 4.86,13.24 1.88,3.82 4.57,6.81 8.01,9.05 3.44,2.17 7.48,3.22 12.12,3.22 5.84,0 10.7,-1.12 14.52,-3.37 3.74,-2.24 6.58,-5.68 8.38,-10.17 1.87,-4.57 3.14,-9.06 3.89,-13.62 0.68,-4.49 1.12,-10.25 1.27,-17.06l0 -11.9 55.68 0 0 11.22c-1.28,29.94 -8.68,52.61 -22.15,67.95 -13.4,15.34 -34.12,23.05 -62.04,23.05zm-27.61 -172.33l55.67 0 0 -16.91c-0.14,-7.41 -0.52,-13.92 -1.27,-19.46 -0.75,-5.61 -2.02,-11.15 -3.89,-16.69 -1.79,-5.53 -4.64,-9.8 -8.38,-12.72 -3.82,-2.92 -8.53,-4.41 -14.07,-4.41 -5.68,0 -10.47,1.57 -14.36,4.64 -3.82,3.06 -6.66,7.48 -8.53,13.24 -1.8,5.76 -3.07,11.45 -3.82,16.99 -0.75,5.61 -1.2,12.19 -1.35,19.98l0 15.34z"/>
  </g>
 </g>
</svg>
