<?xml version="1.0" encoding="UTF-8"?>
<!DOCTYPE svg PUBLIC "-//W3C//DTD SVG 1.1//EN" "http://www.w3.org/Graphics/SVG/1.1/DTD/svg11.dtd">
<!-- Creator: CorelDRAW 2017 -->
<svg xmlns="http://www.w3.org/2000/svg" xml:space="preserve" width="19.8118mm" height="26.7546mm" version="1.1" style="shape-rendering:geometricPrecision; text-rendering:geometricPrecision; image-rendering:optimizeQuality; fill-rule:evenodd; clip-rule:evenodd"
viewBox="0 0 1981.18 2675.46"
 xmlns:xlink="http://www.w3.org/1999/xlink">
 <defs>
  <style type="text/css">
   <![CDATA[
    .fil0 {fill:#373435}
   ]]>
  </style>
 </defs>
 <g id="Capa_x0020_1">
  <metadata id="CorelCorpID_0Corel-Layer"/>
  <g id="_2435067825760">
   <path class="fil0" d="M1555.28 1076.77c3.58,16.72 4.96,32.71 17.69,40.21l-24.99 30.44c-13.15,-16.44 -19.03,-31.43 -23.69,-52.45l-2.6 -15.17c-11.94,7.35 -5.8,19.66 -8.05,34.68 -2.58,17.15 -9.8,9.83 -0.32,32.12 21.42,50.33 32.84,-10.31 28.18,60.8 12.47,-12.06 7.09,-30.6 6.43,-49.58l0.64 51.16c20.49,-16.48 8.45,-25.43 10.07,-51.7 16.65,-19.46 25.91,-28.57 34.85,-54.12 -18.54,-6.6 -9.03,-3.02 -20.13,-3.87 -8.76,-21.6 -9.32,-22.66 -4.27,-46.37 -16.06,16.63 -4.05,8.14 -13.81,23.85z"/>
   <path class="fil0" d="M978.62 1021.1l5.2 -0.97 13.75 -31.03c27.18,-2.38 17.71,6.9 43.9,-9.32 18.04,-11.17 13.43,-7.76 29.07,3.25 3.62,-5.25 9.06,-9.97 12.59,-13.97 -16.58,-19.56 -56.03,-14.83 -76.99,-3.95 -33.62,17.46 -21.12,30.46 -27.52,55.99z"/>
   <path class="fil0" d="M805.95 1123.68c19.57,-22.86 52.21,-165.43 42.13,-186.97 -8.08,16.21 -43.33,167.47 -42.13,186.97z"/>
   <path class="fil0" d="M659.12 2038.27c-9.9,15.56 -15.21,170.23 4.6,184.37 3.98,-74.24 0.24,-109.38 -4.6,-184.37z"/>
   <path class="fil0" d="M1151.95 2274.61c0.58,-3.62 2.86,-14.55 9.8,-14.81l-9.8 14.81zm-6.47 -29.96c12.3,3.47 1.31,16.47 -6.74,29.62 -9.89,16.15 -13.3,14.97 -12.24,34.98 16.17,-7.44 37.7,-27.04 45.58,-40.49 -13.15,-18.77 4.59,-9.1 -7.16,-33.27l-1.96 -6.52c-18.46,8.54 -8.74,1.61 -17.48,15.68z"/>
   <path class="fil0" d="M914.56 1317.82c26.56,19.18 6.58,3.46 25.59,24.9l1.4 -11.31c13.03,-2.07 25.58,-2.88 37.58,-6.64 7.3,-2.29 11.53,-5.88 19.49,-7.47 26.35,-5.28 8.17,-3.91 16.8,4.34l15.15 9.65c-2.85,-20.12 -4.12,-8.26 7.42,-12.93 -14.14,-12.5 -16.36,-7.4 -27.62,-20.97 -41.48,18.74 -46.38,27.53 -95.81,20.43z"/>
   <path class="fil0" d="M166.72 1196.68l0.49 14.48 -13.72 -5.73c9.45,14.55 -4.67,3.6 13.7,14.71l17.52 46.86 8.49 -3.17c-3.85,-36.39 -6.04,-34.17 5.02,-69.73 -14.63,1.7 -16.5,-2.03 -21.96,11.78l-9.54 -9.2z"/>
   <path class="fil0" d="M1940.59 1212.52c11.03,13.15 -3.54,6.87 16.3,10.67 26.49,-29.67 -14.44,-53.76 -41.36,-60.47l9.72 22.19 24.56 19.85 -9.22 7.76z"/>
   <path class="fil0" d="M453.54 2419.25c-17.8,0.64 -28.34,-2.54 -37.49,12.2 32.28,-4.76 62.98,20.74 97.61,4.91 -30.84,-21.25 -36,3.86 -60.12,-17.11z"/>
   <path class="fil0" d="M577.28 2467.81c3.8,23.6 -3.15,25.16 -3.73,51.18l19.93 -16.97c-5.97,-10.82 -0.22,7.33 -2.81,-9.07 -0.24,-1.5 -0.17,-8.88 -1.14,-14.63 -3.03,-17.92 -0.91,-10.68 -7.87,-20.36l-4.38 9.85z"/>
   <path class="fil0" d="M832.14 880.78c7.32,-17.13 13.36,-52.4 1.55,-65.53 -6.33,16.28 -9.74,53.75 -1.55,65.53z"/>
   <path class="fil0" d="M1698.54 1268.41l8.26 -0.24c-10.87,-17.09 -18.07,-20.04 -38.09,-23.64 6.2,15.17 13.11,20.24 29.83,23.88z"/>
   <path class="fil0" d="M1015.03 1292.38c14.66,-14.58 6.7,-18.31 20.61,-41.53 -21.02,6.98 -2.94,4.65 -24.25,1.78 2.38,21.76 12.05,9.15 3.64,39.75z"/>
   <path class="fil0" d="M1513.21 1215.14l16.08 0.56 -0.97 9.16 13.19 -18.03 -21.37 -8.28c-3.16,7.89 -1.08,8.02 -6.93,16.59z"/>
   <path class="fil0" d="M1661.12 1118.18c-15.24,-3.83 -11.78,-6.76 -10.25,8.9l22.4 8.55c4.09,-31.49 2.03,-8.56 -12.15,-17.45z"/>
   <polygon class="fil0" points="1071.47,2354.5 1082.87,2350.04 1072.41,2341.02 "/>
   <polygon class="fil0" points="463.74,2506.26 465.83,2500.32 450.62,2495.31 463.06,2483.35 449.38,2495.33 "/>
   <path class="fil0" d="M890.18 1253.62c22.95,0.37 7.16,-6.11 24.69,7.26 -0.23,-33.26 25.95,-127.69 37.08,-178.33 6.35,-28.92 3.29,-44.37 6.34,-71.68 22.09,29.72 -3.7,132.08 22.78,166.68l-9.81 -129.89c-0.14,-31.96 -2.57,-15.45 9.21,-25.78 -43.55,-53.41 28.38,-96.96 79.02,-87.89 -1.29,-1.16 -2.95,-2.5 -4.01,-3.3 -1,-0.76 -2.63,-2.13 -3.83,-3.02 -1.28,-0.94 -5.72,-3.88 -7.04,-4.82 -0.16,-0.12 -12.5,-9.39 -12.99,-9.79l-1.15 8.2c-90.42,38.33 -60.01,38.07 -80.13,97.53 -18.23,53.89 -1.6,80.15 -60.16,234.83z"/>
   <path class="fil0" d="M561.47 1725.14c10.88,2.45 20.06,1.39 21.77,14.4 24.23,-7.29 10.89,-5.87 15.32,2.85 40.17,-20.05 97.16,-5.87 120.74,14.77l-16.41 80.31 17.96 -1.6 2.02 -48.65c24.66,-11.56 70.97,-24.98 95.7,-19.53 -2.71,-14.88 -2.97,-5.21 4.69,-20.7l-84.27 25.86c-7.98,-11.43 -0.62,0.11 -5.16,-12.44 -6.81,-18.79 0.55,-12.03 -12.15,-19.69 7.16,6.75 3.76,4.85 16.04,-0.98 -40.69,-35.33 -77.92,-22.24 -82.09,-22.53 -24.09,-1.66 4.88,3.27 -20.52,-10.28 -23.19,1.16 -57.78,6.04 -73.64,18.21z"/>
   <path class="fil0" d="M508.3 2374.59c25.18,-2.55 25.57,-10.81 35.24,4.83 24.59,-21.34 35.58,-32.36 68.41,-29.35 37.12,3.39 54.38,-5.07 86.02,-6.63 3.41,29.9 13.36,59.41 42.83,68.69 8.76,-8.68 -4.62,-1.35 9.66,-6.32 5.55,-1.93 3.31,-0.1 9.47,-1.71 21.95,-5.74 6.09,4 20.52,-9.02l-36.13 5.74c-23.74,-21.35 -27.15,-26.58 -36.68,-57.19 24.03,-3.95 66.96,3.96 82.36,-13.99l-92.74 7.11 5.56 -11.15c-40.21,22.14 -64,13.18 -104.23,11.7 -6.04,-0.22 -84.89,33.98 -90.29,37.29z"/>
   <path class="fil0" d="M665.08 1095.07l-19.64 8.74c23.73,17.57 41.85,8.89 80.42,45.74 28.13,26.88 33.91,37.82 53.1,72.2 21.45,6.74 35.36,6.54 60.15,17.38 26.85,11.73 27.31,20.62 46.64,34.14 5.63,-8.43 1.83,-2.81 5.13,-14.19 -15.72,-6.77 -29.9,-18.89 -45.1,-26.47 -15.58,-7.78 -36.65,-11.36 -49.59,-18.74 -20.82,-11.88 -50.3,-55.07 -57.63,-78.29l22.82 -61.76 -7.06 -9.95c-10.24,19.24 -5.35,47.64 -25.76,72.05 -22.7,-12.96 -35.26,-24.57 -63.33,-31.53l-0.15 -9.32z"/>
   <path class="fil0" d="M625.63 1623.68c-13.17,15.55 -13.07,16.81 -7.94,37.98 55.5,0.73 93.74,1.12 133.43,43.33 1.22,31.86 -9.04,32.08 -10.63,53.41 23.58,-11.99 15.3,-33.48 32.57,-56.16l-26.83 -20.04 33.71 -109.31 -1.01 -9.02c-26.28,23.8 -21.45,79.02 -41.93,109.63 -34.38,2.3 -18.81,-17.58 -115.68,-20.89l4.31 -28.93z"/>
   <path class="fil0" d="M1228.39 1128.98l-4.15 12.69 -19.05 -5.71c-14.87,13.84 -9.11,12.08 -29.69,18.67 -34.82,-32.82 -87.48,-71.3 -111.17,-109.74 -7.61,-12.34 -15.08,-30.7 -26.35,-37.35 5.43,28.27 37.48,62.72 56.72,85.3 46.72,54.83 51.44,45.54 76.8,69.17 -10.07,26.38 -9.43,8.28 -13.2,41.29 12.3,-8.1 3.61,2.22 15.42,-13.55 46.67,-62.29 39.41,-26.45 66.34,-55.04l-11.67 -5.73z"/>
   <path class="fil0" d="M565.86 1259.7c-25.57,3.04 -30.81,-9.83 -48.4,-21.57 -17.6,-11.75 -22.97,-18.83 -7.05,-37.57l55.45 59.14zm16.54 12.96l15.52 -9c-20.69,-22.58 -65.94,-20.25 -71.93,-75.05l33.82 -15.38c-6.41,-5 -9.12,-6.47 -14.72,-10.42 -15.95,20.83 -73.88,32.85 -46.11,73.14 34.36,49.86 77.1,28.23 83.42,36.71z"/>
   <path class="fil0" d="M465.83 2500.32c15.95,-15.41 27.68,-35.41 46.03,-35.48 5,22.61 9.22,26.45 -4.34,48.22l-43.78 -6.8 -14.36 -10.93 13.68 -11.98 -12.44 11.96 15.21 5.01zm55.21 14.64c11.21,-22.96 11.89,-72.61 -27.22,-59.25 -47.36,16.18 -57.13,26.1 -58.13,50.81 20.64,11.81 63.76,21.05 85.35,8.44z"/>
   <path class="fil0" d="M859 1078.81c23.6,-27.05 47.53,-192.24 44.53,-233.46 -5.69,11.87 -46.66,217.36 -44.53,233.46z"/>
   <path class="fil0" d="M361.46 1288.6l-19.54 -7.95c-8.08,18.87 -52.12,-24.75 -59.35,-40.1l22.02 -35.26 10.3 3.19 -7.42 -14.52c-13.6,7.67 -30.6,26.07 -37.68,39.97 8.15,47.36 84.67,75.78 91.67,54.67z"/>
   <path class="fil0" d="M371.95 2452.51c-8.17,10.28 -7.64,-3.38 -3.65,17.19 25.11,-7.43 20.67,-13.31 50.03,-7.37l-4.48 38.83c-21.16,7.05 -24.76,2.77 -45.09,-2.74l-2.25 20.67 12.56 6 5.15 -14.35c23.73,7.31 14.37,9.89 36.28,2.5 9.46,-19.39 10.46,-44.74 -2.83,-62.4 -22.25,-4.82 -39.49,15.04 -45.72,1.67z"/>
   <path class="fil0" d="M1260.29 2354.2c13.01,18.44 10.91,16.1 11.22,40.77 0.19,15.42 -2.85,34.02 8.67,40.5 -4.91,-36.13 -18.44,-108.37 16.15,-128.81 15.35,11.47 10.97,14.34 9.27,32.83l3.1 16.95c14.28,-12.34 11.59,-34.56 5.08,-52.28 -43.35,-17.2 -47.91,12.74 -45.04,50.71l-8.45 -0.67z"/>
   <path class="fil0" d="M221.16 1153.88c-0.54,14.68 3.54,1.91 -6.11,19.23 17.03,6.33 -2.02,5.36 -0.32,29.94 0.99,14.28 10.65,18.61 14.84,30.36 10.44,29.36 1.74,39.16 29.97,64.57l9.16 -0.86c-9.7,-20.18 -20.37,-17 -25.72,-41.61 -13.5,-62.05 -6.45,-14.71 -17.21,-43.07 -14.35,-37.85 26.57,-53.01 45.31,-78.54l-3.11 -3.33 -34.29 31.02 -12.52 -7.71z"/>
   <path class="fil0" d="M1033.53 760.14l-1.92 -25.95 23.28 0.22 -20.23 -9.01c-3.79,-26.64 -3.33,-73.37 -26.24,-88.69 2.41,28.26 10.77,106.09 25.11,123.43z"/>
   <path class="fil0" d="M1332.52 2172.49l-52.2 2.63c-27.59,-23.1 -25.04,-45.47 -71.67,-38.39 33.61,17.33 24.57,10.12 52.98,37.72 23.92,23.23 49.55,9.76 70.89,-1.96z"/>
   <path class="fil0" d="M913.51 1267.44c-0.58,26.15 -24.12,15.03 -1.68,46.55l-2.4 -27.93c25.8,0.39 73.79,-7.98 94.82,-20.17l-4.83 -34.79 -10.56 0.88 3.32 23.88c-18.25,16.98 -41.55,18.61 -66.4,21.94l-12.27 -10.36z"/>
   <path class="fil0" d="M963.96 948.39c6.7,-13.09 -3.11,-37.14 -6.18,-56.83 -3.77,-24.17 -2.29,-43.86 -15.44,-62.59 -4.4,39.42 1.47,86.35 21.62,119.42z"/>
   <path class="fil0" d="M666.03 1880.68c13.4,-24.43 24.37,-95.16 21.42,-122.8l-12.11 28.17c-2.09,10.4 -4.1,19.15 -6.01,29.65 -3.57,19.64 -9.02,49.37 -3.3,64.98z"/>
   <path class="fil0" d="M859 1078.81c-11.14,10.2 -43.65,121.01 -36.4,133.52 19.9,-17.76 14.34,-40.55 20.32,-65.96 5.43,-23.1 16.59,-42.08 16.08,-67.56z"/>
   <path class="fil0" d="M1160.33 1647.86l-1.93 10c34.13,29.1 39.76,2.48 66.26,-4 10.75,-2.63 19.07,6.12 32.39,-10.33 10.59,-13.07 9.54,-26.67 -2.57,-34.88 -1.41,29.32 3.97,33.28 -26.03,37.1 -34.44,4.39 -15.36,8.77 -42.6,17.34l-25.52 -15.23z"/>
   <path class="fil0" d="M853.23 918.54c9.76,-13.23 22.93,-114.28 16.29,-129.48 -11.65,18.45 -21.03,108.49 -16.29,129.48z"/>
   <path class="fil0" d="M327.05 1170.64l15.69 -11.36 30.1 6.43c-22.92,-33.41 -106.76,2.37 -116.43,38.05 22.22,-4.4 28.48,-27.5 57.14,-36.05 16.08,-4.79 8.39,-10.5 13.5,2.93z"/>
   <path class="fil0" d="M864.11 2276.65c-4.11,9.41 -1.05,6.51 -6.35,15.13 21.16,0.28 36.55,5.89 58.51,4.5 20.54,-1.29 29.68,-8.36 52.19,-8.65l-0.29 -15.77c-39.64,16.55 -62.23,23.17 -104.06,4.79z"/>
   <path class="fil0" d="M1061.8 624.78l-5.87 -16.12 -17.96 4.95c-15.04,-15.97 -21.88,-31.67 -38.06,-39.26 5.17,17.46 35.24,53.26 45.41,66.36 13.61,-29.21 -2.39,-3.88 16.48,-15.93z"/>
   <path class="fil0" d="M1202.86 1204.34l1.01 -16.66 25.84 -32.26c-20.93,-4.17 -33.42,3.87 -42.86,23.03 2.3,10.46 0.53,4.98 6.04,13.33 0.78,1.18 9.06,11.34 9.97,12.56z"/>
   <path class="fil0" d="M987.65 2310.98c14.57,17.15 41.78,30.36 61.54,22.29l-42.38 -18.68 37.77 -3.05c-19.6,-17.6 -27,-3.16 -56.93,-0.56z"/>
   <path class="fil0" d="M1305.55 2021.6c56.95,-1.71 41.9,2.21 85.34,21.53l1.11 -7.71c-24.12,-22.44 -50.05,-22.22 -82.03,-25.42l-4.42 11.6z"/>
   <path class="fil0" d="M1698.54 1268.41l34.77 32.19c17.57,-20.07 16.79,-0.52 27.15,-31.35 -22.45,4.05 -9.21,2.24 -27.2,10.98l-26.46 -12.06 -8.26 0.24z"/>
   <path class="fil0" d="M1369.21 2166.15c10.28,8.16 -0.02,2.26 18.17,8.86 31.18,11.31 14.04,11.46 33.65,27.79 1.92,-27.79 -24.93,-51.45 -51.82,-36.65z"/>
   <path class="fil0" d="M1222.38 1556.42c1.66,24.91 10.87,43.39 32.1,52.23 -2.71,-31.33 -21.54,-9.33 -17.92,-56.23l-14.18 4z"/>
   <path class="fil0" d="M467.91 1244.24l13.49 28.68c-15.07,8.95 -8.63,-0.13 -21.82,11.87 24.18,-2.93 19.3,-8.54 41.09,-6.86 -24.54,-31.51 -11.82,-15.18 -25.68,-49.43l-7.08 15.74z"/>
   <path class="fil0" d="M891.99 649.87c13.97,-3.67 46.81,-30.25 49.08,-42.92 -18.36,-0.06 -12.57,1.26 -27.7,16.51 -13.77,13.87 -19.58,10.39 -21.38,26.41z"/>
   <path class="fil0" d="M462.95 1221.54l12.04 6.96c2.67,-32.16 6.27,-26.96 20.52,-51.97 -13.08,-5.54 -2.23,2.07 -17,-11.39 2.96,21.67 -8.18,34.25 -15.56,56.4z"/>
   <path class="fil0" d="M787.54 2315.94l-47.52 0.37c2.45,-17.96 9.16,-30.81 -5.55,-43.31l0.47 48.61c21.48,3.44 35.04,4.93 52.6,-5.67z"/>
   <path class="fil0" d="M1360.12 2327.52l15.57 -5.31 -26.96 -48.55c2.87,23.94 12.89,28.7 11.39,53.86z"/>
   <path class="fil0" d="M1353.66 2223.49c-26.97,6.96 -18.61,24.62 -9.57,46.36 7.71,-18.15 -8.31,-10.44 9.57,-46.36z"/>
   <path class="fil0" d="M817.29 1707.02c-31.94,-16.34 -8.64,-0.06 -26.05,-27.13 -2.53,15.87 0.41,9.24 -7.34,21.99l33.39 5.14z"/>
   <path class="fil0" d="M1206.6 1566.03c12.02,17.62 5.05,13.35 19.13,6.68l-14.95 -10.88 -4.18 4.2z"/>
   <polygon class="fil0" points="735.29,2270.66 740.72,2266.19 726.41,2259.86 "/>
   <path class="fil0" d="M765.26 831.31l14.56 2.02 -5.08 43.26c13.84,-16.71 10.8,-41.2 27.44,-63.97 10.18,29.13 -19.19,130.67 -23.43,168.31l-22.6 -12.64 0.5 -18.15 -15.31 0.01c10.43,40.01 11.73,19.29 30.36,45.18 -3.51,22.59 0.95,19.27 -18,27.36 21.36,18.83 4.28,3.86 0.62,41.18l7.06 9.95c43.8,-105.29 42.34,-257.99 71.03,-286.87 19.16,-19.29 43.78,-47.45 68.42,-56.2 63.17,44.37 76.15,65.88 110.29,109.52l-2.08 -17.94 11.4 3.57c-8.9,-11.68 -112.63,-101.72 -125.09,-107.13 -7.2,5.27 -128.98,111.08 -130.09,112.54z"/>
   <path class="fil0" d="M1400.02 2015.26c18.01,-7.93 14.81,-5.64 15.09,-22.81 -4.35,-7.65 -11.32,-96.05 -17.31,-120.46 -3.92,-15.99 -29.99,-94.98 -23.88,-99.35 -2.28,-29.38 -20.91,-36.43 -32.72,-57.93l-16.88 -0.67c58.21,108.45 72.34,176.43 75.7,301.22z"/>
   <path class="fil0" d="M1597.47 1157.64l21.14 -13.87c16.16,4.49 14.1,1.08 18.22,17.13 -11.13,12.23 -17.01,11.08 -36.23,12.99l-3.13 -16.25zm0 0c-22.61,12.46 -2.32,42.38 -6.42,72.76 5.5,-7 8.9,-14.52 11.55,-16.97 6.47,-5.96 0.95,3.31 17.14,-10.84l-16.2 1.02 -2.83 -24.44 47.25 -5.3 -3.38 16.65 17.48 3.72c-2.7,-20.93 -8.01,-36.69 -25.22,-50.5l-40.97 -28.45 1.6 42.35z"/>
   <path class="fil0" d="M621.89 581.77l146.17 69.53c-7.56,-17.13 -128.18,-75.09 -151.81,-82.52l5.64 12.99z"/>
   <path class="fil0" d="M848.35 2220.07c29.87,7.77 29.62,19.46 64.55,15.42 15.33,-1.77 24.61,1.73 38.38,-2.74 20.27,-6.58 5.32,-13.82 29.8,-9.73 -9.77,-9.8 -13.73,-15.07 -22.47,-24.87l1.74 20.91c-35.73,17.61 -64.84,9.76 -97.86,-4.11 -4.88,-18.93 0.35,-19.31 -11.72,-30.68 2.52,26.44 9.63,11.37 -2.42,35.8z"/>
   <path class="fil0" d="M1162.96 2228.97l1.96 6.52c13.43,-25.26 14.1,-37.33 42.77,-32.82 9.13,25.86 -18.2,40.64 -31.26,67.5l11.23 2.82c8.84,-30.59 33.19,-22.25 35.71,-65.83l-20.91 -16.98c-24.09,4.78 -30.79,16.91 -39.5,38.79z"/>
   <path class="fil0" d="M1287.81 2072.85c21.96,-1.24 53.77,-6.8 72.99,2.12 24.11,11.18 22.99,27.22 42.46,37.87 3.5,-21.08 22.27,-13.94 2.07,-45.5l-1.45 31.48c-23.66,-12.93 -20.87,-30.29 -55.83,-36.51 -0.08,-0.02 -22.71,0.04 -25.76,0.12 -5.04,0.14 -11.33,-0.41 -16.26,0.71 -22.08,5.02 -6.08,-1.24 -18.22,9.71z"/>
   <path class="fil0" d="M1379.2 2337.26c10.42,13.82 -1.18,8.65 16.34,8.03l-1.06 -38.19 12.76 -11.37 -13.31 -3.77c-0.22,-18.03 0.32,-37.89 -7.8,-54.41 -5.77,-11.77 -23.95,-28.97 -32.47,-14.06l15.33 5.27c8.18,6.68 20.13,67.03 20.7,83.24 0.92,26.11 7.07,20.3 -10.49,25.26z"/>
   <path class="fil0" d="M983.82 1020.13c1.7,1.36 4.05,0.38 5.44,3.61 10.98,25.58 -8.09,-10.57 10.28,7.88l-2.37 -25.75c20.45,-13.34 18.85,-4.38 32.27,-10.26 20.93,-9.18 -3.66,-13.27 32.67,-16.29l16.55 22.22 -2.96 -20.46 27.28 -13.12 -19.85 1.1c-3.53,4 -8.97,8.72 -12.59,13.97 -15.64,-11.01 -11.03,-14.42 -29.07,-3.25 -26.19,16.22 -16.72,6.94 -43.9,9.32l-13.75 31.03z"/>
   <path class="fil0" d="M1104.2 2357.03c12.64,9.32 13.53,5.96 29.77,10.28 -23.52,3.15 -39.59,9.88 -57.39,-2.88 15.28,-9.29 7.52,-5.2 27.62,-7.4zm-24.65 31.7c34.63,-24.28 35.93,-2.45 67.93,-20.4 -14.2,-9.92 -25.1,-11.66 -43.28,-11.3l-21.33 -6.99 -11.4 4.46c-9.94,27.62 5.53,11.17 8.08,34.23z"/>
   <path class="fil0" d="M370.02 1124.47c1.42,0.8 6.52,3.22 8.16,3.91 15.14,6.37 20.77,1.99 41.49,20.25 11.87,10.46 28.68,27.92 41.97,32.23 -15.52,-32.57 -59.76,-60.41 -99.56,-62.4l7.94 6.01z"/>
   <path class="fil0" d="M669.81 1312.3l12.6 -19.52 53.81 -5.33c-13.61,-14.51 -13.06,-8.51 -34.06,-7.53 -27.57,1.28 -13.69,-5.86 -34.9,12.54l-0.12 -19.09 -6.92 14.09c14.87,18.72 11.11,0.39 9.59,24.84z"/>
   <path class="fil0" d="M797.63 636.46c15.76,-13.94 31.44,-38.26 35.33,-57.64 -20.98,8.66 -33.13,34.78 -35.33,57.64z"/>
   <path class="fil0" d="M577.28 2467.81l4.38 -9.85 -3.99 -15.51 -29.42 -11.68c6.89,18.91 19.17,12.84 29.03,37.04z"/>
   <path class="fil0" d="M712.66 1471.01c1.56,-1.43 11.76,-8.75 14.08,-16.27 9.84,-31.93 0.63,-12.36 -6.51,-21.28 -4.97,22.76 -8.16,13.7 -7.57,37.55z"/>
   <path class="fil0" d="M845.51 567.03c11.62,-16.53 -2.57,-24.04 -16.68,-38.03l16.68 38.03z"/>
   <g>
    <path class="fil0" d="M822.21 2462.68c12.29,-11.63 7.11,-10.36 31.51,-6.5 14.24,2.25 17.72,3.75 26.94,10.81 -22.3,4.85 -42.82,9.64 -58.45,-4.31zm699.48 -1382.87l2.6 15.16 21.72 -42.23 9.27 24.02c9.76,-15.7 -2.25,-7.21 13.82,-23.84 1.52,-33.48 -42.13,-36.1 -39.76,-98.93 3.01,-80.15 -50.64,-83.89 -9.95,-109.81 23.09,8.62 3.94,9.04 29.66,20.27 7.54,27.5 14.87,14.97 12.11,52.98 -1.33,18.31 -8.56,49.98 5.5,59.38 16.99,37.38 15.73,19.35 20.66,66.96l15.5 -15.02c0.54,-0.26 2.24,-0.68 3.3,-1.17 0.06,-22.77 -0.16,-77.66 4.38,-98.03 3.48,-15.62 30.52,-52.9 38.68,-74.36 36.9,-30.52 -15.6,-160.09 57.3,-155.75 1.45,31.21 -14.24,54.88 -17.85,83.23 -4.55,35.83 9.53,63.67 -10.84,95.53 -16.68,26.12 -30.64,30.04 -38.36,65.53 -6.63,30.53 -10.04,64.2 -9.8,94.71 16.95,-15.13 1.57,-8 20.06,-10.81l12.99 19.82c17.27,-28.36 38.24,-61.7 61.83,-81.02 29.86,-24.47 98.61,3.28 104.68,-32.98 13.9,-9.97 16.78,-16.54 24.72,-33.08 19.43,-16.41 100.37,-49.41 102.61,-3.92 -18.72,9.22 -64.63,8.54 -72.75,26.13 -17.64,10.42 -17.66,10.26 -25.65,29.21 -41.02,19.32 -0.63,25.74 -78.4,29.9 -42.62,2.25 -79.11,51.62 -103.72,81.65 18.65,36.4 4.81,15.52 9.71,32.6l21.41 1.33c42.8,6.82 67.88,2.71 101.6,35.81 46.09,45.25 48.09,22.46 106.81,29.64 26.92,6.71 67.85,30.8 41.36,60.47 -19.84,-3.8 -5.27,2.48 -16.3,-10.67 -20.6,-13.21 -23.97,-21.14 -52.27,-24.02 -24.27,-2.48 -53.9,6.12 -75.55,-7.53 -37.65,-23.74 -30.26,-62.21 -103.04,-58.17 -11.43,-10.74 -32.97,-4.62 -48.61,-4.61 14.18,8.88 16.24,-14.05 12.15,17.44l-22.41 -8.54 -7.83 0.64c15.73,17.85 32.99,32.11 49.84,51.36 -23.38,100.13 80.58,24.5 104.95,157.63 5.7,31.15 -2.87,37.7 -35.2,44.32l-29.31 -80.44 -34.77 -32.19c-16.72,-3.64 -23.63,-8.71 -29.83,-23.88l-6.65 -50.29 -17.48 -3.72 -24.84 12.08c-16.19,14.14 -10.67,4.87 -17.14,10.83 -2.65,2.45 -6.04,9.97 -11.55,16.97 -6.32,19.26 -13.55,33.17 -29.76,44.99 -33.74,-24.86 -22.91,-38.53 -12.72,-66.41l-0.64 -51.16c0.67,18.97 6.04,37.52 -6.44,49.58l0.02 -0.57 -13.19 18.02 6.99 46.68c-37.39,30.94 -84.33,58.03 -135.46,56.43 -60.7,-1.9 -99.5,-45.96 -141.96,-48.48 -23.47,-26.83 -36.25,-14.95 -29.95,-60.66 -11.43,-13.15 -13.41,-8.88 -20.4,-25.41 9.55,-20.49 57.28,-61.83 76.5,-84.56 28.88,-34.16 44.48,-71.13 95.1,-74.27 18.06,-0.2 44.58,-2.29 61.75,-0.18 18.85,2.32 34.94,14.27 51.92,16.92l-20.27 -17.17c18.93,-0.97 19.33,-4.46 34.45,5.53 -1.34,12.2 -26.4,40.07 -33.66,67.78 -28.81,-16.43 -68.08,-30.25 -99.39,-12.48 -30.64,7.78 -53,36.96 -74.15,60.56 -10.37,11.57 -16.67,23.92 -27.28,35.19 -11.86,12.59 -26.55,18.42 -33.19,32.78 26.75,-9.43 52.39,-34.62 69.71,-58.69 27.32,-37.97 44.15,-40.18 67,-66.2l51.26 -2.97c-25.22,15.43 -49.99,40.18 -63.69,64.1 -20.93,6.09 -38.21,31.22 -62.01,36.87l0.45 29 -9.03 4.03 0.04 6.51c114.6,48.27 124.13,74.42 220.16,-21.02 5.86,-8.56 3.77,-8.7 6.93,-16.59 -13.28,-6.02 -28.44,-30.24 -35.09,-45.1l-3.1 -12.18c-2.74,-54.3 2.69,-57.07 36.71,-94.13l-31.35 -62.74 -3.82 -31.47c-3.08,-57.43 1.41,-79.11 12.59,-133.11 2.97,-17.18 4.01,-22.92 17.71,-33.66l17.86 35.27c10.78,7.89 7.38,2.58 12.59,18.6l0.26 4.36c-17.82,-13.41 -12.56,-10.72 -33.14,-10.97 -42.51,29.58 -2.16,52.72 4.03,91.44 3.93,24.62 -5.27,40.84 2.89,65.09 6.51,19.34 21.83,25.01 34.13,41.98 -14.68,18.47 -26.37,24.01 -30.72,47.88zm-260.6 519.87c15.65,19.73 41.69,43.71 16.27,74.71 -16.43,20.03 -44.32,32.06 -69.54,32.14 -25.84,-1.03 -56.54,-19.83 -49.42,-48.66l1.93 -10.01 -15.3 -7.17c-9.06,-14.94 -59.98,-61.64 -75.2,-68.85 -2.92,-10.38 -30.5,-43.5 -38.61,-45.6 -7.43,-19.67 -23.11,-45.86 -38.92,-58.47 -3.43,-26.95 -45.43,-86.38 -52.15,-125.05 -19.01,-21.44 0.97,-5.72 -25.59,-24.9l-2.73 -3.83c-22.44,-31.52 1.11,-20.4 1.68,-46.55l1.36 -6.56c-17.53,-13.37 -1.74,-6.89 -24.69,-7.26l0.7 5.45c-3.3,11.39 0.5,5.77 -5.13,14.2 12.18,38.15 0.96,28.49 -0.83,55.48l-10.5 14.76 -10.03 -9.75c-17.34,15.77 -82.01,199.28 -85.46,230.11l1.01 9.03 11.3 106.99c17.41,27.07 -5.88,10.79 26.05,27.13l5.97 39.97c-7.66,15.49 -7.4,5.82 -4.69,20.7 12.4,95.99 155.37,348.46 140.04,430.47 8.74,9.79 12.7,15.06 22.48,24.86 4.36,21.34 12.1,36.81 -12.92,48.84l0.29 15.77 19.19 23.34c29.93,-2.59 37.33,-17.03 56.93,0.57 19.22,20.21 -0.53,21.84 27.83,29.48l10.46 9.02 21.33 6.99c18.18,-0.36 29.08,1.38 43.28,11.3 -32,17.95 -33.3,-3.88 -67.93,20.4 -28.5,15.28 -73.25,4.61 -101.11,-9.11 -38.58,-19 -44.34,-34.06 -60.94,-66.74 -16.65,32.55 -11.6,41.66 -48.78,61.15 -21.53,11.28 -65.08,27.51 -88.27,21.05 -14.43,13.02 1.42,3.28 -20.52,9.02 -6.16,1.61 -3.92,-0.22 -9.47,1.71 -14.28,4.96 -0.9,-2.36 -9.66,6.32 31.44,14.29 110.57,15.09 60.5,70.67 -42.46,5.44 -112.02,-22.94 -137.77,-56.32l3.66 -62.93c-17.51,26.84 -2.27,97.02 -73.71,138.47l-19.93 16.97c-45.79,12.19 -37.71,15.2 -94.43,15.25 -37.32,0.03 -68.82,-8.22 -100.05,-9.15l-12.56 -6 2.25 -20.67 -25.03 -11.8 24.57 -16.93c-3.99,-20.56 -4.52,-6.9 3.65,-17.18 10.56,-14.44 26.18,-26.58 44.1,-21.06 9.15,-14.74 19.69,-11.56 37.49,-12.2 42.19,-2.99 57.69,-22.13 90,-39.83 -9.67,-15.64 -10.06,-7.38 -35.24,-4.83 -41.59,3.58 -84.11,-0.85 -109,-35.82 7.48,-28.15 42.5,-50.61 68.98,-59.05 45.7,-14.56 70.66,-4.52 113.25,-0.77l-9.95 -16.44c60.44,26.14 114.49,1.63 145.58,9.18 11.9,26.02 7.73,39.63 -14.34,53.91l-5.56 11.15 92.74 -7.11c32.34,-0.13 56.27,-8.26 67.76,-37.86 5.3,-8.62 2.24,-5.72 6.35,-15.13 -25.5,-10.24 5.39,-12.17 -32.66,-10.31 -19.36,0.94 -33.41,4.17 -53.42,-0.01 -25.88,-5.4 -54.28,-23.83 -61.17,-48.71 47.29,-40.77 110.42,13.21 131.49,2.45 12.05,-24.43 4.94,-9.36 2.42,-35.8 3.4,-64.51 -128.55,-276.15 -129.92,-348.4l-17.96 1.6c2.71,12.46 -10.13,174.89 -10.23,209.03 -0.14,50.71 11.62,179.74 4.08,218.08 -64.84,-0.25 -26.72,3.7 -57.23,5.71 -9.76,0.64 -53.46,-12.53 -60.05,-17.39 -14.29,-33.25 -10.85,-184.23 -8.49,-226.99 3.17,-57.47 18.11,-176.61 14.78,-225.5 9.76,-12.41 10.21,-41.21 13.26,-60.02l-12.99 17.77 12.16 -16.63c-3.19,-7.94 8.47,-9.03 -14.94,-1.99 -1.72,-13.01 -10.89,-11.95 -21.77,-14.4l-71.87 -1.03 -64.3 -33.01 -26.08 -34.23 17.18 -18.4 47.19 -9.07c53.38,-2.83 54.51,1.96 101.59,12.14l29.45 23.87 23.06 -3.75c-5.13,-21.17 -5.23,-22.43 7.94,-37.98l18.97 -91.73c4.82,-27.22 10.21,-20.68 -9.34,-28.46l-32.91 145.12 -36.93 -19.64c-30.31,-16.15 -36.56,-13.35 -70.38,-16.85 -24.23,0.73 -65.7,1.78 -83.53,18.27 -47.09,17.02 -16.46,52.8 10.41,66.83 5.94,17.92 42.69,36.43 61,35.6 31.52,23.97 60.41,1.66 96.96,10.93l-6.34 47.81c-13.46,71.63 -17.61,150.76 -19.41,223.61 -0.93,37.36 7.05,219.12 0.64,236.67 -39.58,11.09 -61.73,-5.03 -109.14,21.13 -139.72,77.1 1.12,110.76 31.6,122.13 -18.86,15.96 -62.35,9.47 -94.86,27.92 -15.77,8.95 -51.64,50.8 -55.2,65.56 8.88,18.35 47.16,52.88 68.3,54.67 34.06,2.89 83.53,-1.25 120.09,-0.62 102.32,1.77 88.32,-34.71 146.46,-88.87 31.56,7.37 65.5,44.12 119.27,46.62 35.23,1.64 26.11,-14.63 66.89,-15.45 22.92,-0.46 50.06,5.04 60.08,-17.9 -9.29,-36.54 -78.79,-7.91 -94.67,-54.66 14.87,-9.21 39.8,-12.39 59.94,-23.12 18.15,-9.67 33.76,-28.76 47.02,-33.79 49.28,30.6 41.81,47.84 115.8,55.26 50,5.01 36.73,-7.91 68.76,-20.11 23.37,-8.9 47.91,1.22 59.46,-22.46 -9.35,-25.35 -43.27,-16.7 -72.04,-31.21l-1.62 -31.96c-26.96,-8.67 -86.8,-10.23 -100.3,-16.44 -5.74,-27.39 24.72,-27.7 5.19,-65.97 -16.31,-31.97 -14.62,-12.8 -22.97,-57.01 -24.96,-132.03 -84.38,-241.76 -126.36,-356.6 -14.11,-38.59 -16.56,-24.43 -8.96,-65.65 7.21,-39.11 -2.93,-33.35 -22.12,-53.98 -16.32,-17.55 -21.98,-115.43 -17.89,-140.95 3.85,-23.97 32.19,-91.88 42.12,-119.21 13.77,-37.88 30.03,-83.3 66.23,-96.53 36.28,17.44 40.18,113.61 77.67,138.71 6.9,18.98 24.2,48.06 39.89,58.35 4.43,17.53 27.2,46.45 42.07,51.59 10.19,18.02 52.06,55.03 71.33,65.68 15.16,51.87 11.23,62.71 71.72,77.01 8.97,19.84 21.48,49.72 37.52,62.42 2.08,18.44 27.12,71.28 34.61,98.19 10.32,37.1 14.89,81.91 10.3,120.02 -13.85,16.58 -21.18,11.52 -34.66,33.65 -13.03,21.41 -4.97,25.49 -28.09,39.52 -46.73,28.36 -142.76,82.21 -108.51,150.38 28.62,56.98 -21.51,52.62 -5.86,94.06 37.72,11.84 51.87,-52.96 85.31,-29.01 15.41,11.04 15.48,32.86 24.26,49.43 11,20.76 20.51,17.89 33.04,33.89 2.71,25.49 -3.72,60.93 14.94,80.08 47.72,0.62 -1.94,-42.13 98.17,-106.89 18.37,11.56 8.83,16.4 32.8,10.78 10.07,-23.78 -1.69,-31.01 11.27,-50.96 9.17,-14.11 16.92,-15.1 25.85,-36.1 23.9,-56.18 -1.52,-108.38 -15.34,-147.46 -8.69,-24.54 1.44,-27.05 -4.78,-56.78 -11.4,-54.47 8.95,-49.65 14.64,-96.42 23.62,-194.06 -128.26,-266.65 -133.09,-350.28 -4.84,-21.36 -10.65,-24.9 -29.99,-33.43 -16.1,-49.67 -12.75,-42.31 -47.85,-73.23 -6.31,-19.21 -9.54,-30.12 -22.99,-41.76 -5.41,-67.23 -160.71,-176.58 -160.73,-176.63 -2.39,-46.89 34.88,-38.35 23.41,-78.85 -27.39,-13.16 -34.58,-2.67 -60.14,-8.41 -13.26,-29.05 -20.18,-132.27 -17.13,-165.19 14.7,15.99 25.19,48.44 43.72,57.65 7.03,17.57 9.92,22.8 25.74,31.77 8.94,22.95 35.95,41.76 53.73,58.87 36.59,35.17 29.26,17.9 54.62,65.02 17.58,32.67 39.89,40.46 75.39,40.38 92.56,-0.2 138.96,101.66 272.06,10.8 42.75,-29.19 54.9,-5.87 77.59,-37.15 19.25,-26.53 13.88,-59.31 53.39,-59.98 24.19,44.48 -18.28,24.96 61.8,83.19 36.32,26.41 24.78,66.94 47.23,98.72 28.22,7.25 47.2,-2.74 65.02,-23.79 3.76,-31.82 -5.4,-74.15 -25.14,-99.55 -26.94,-34.66 -50.81,-30.95 -78.27,-52.15 -8.77,-18.87 -4.59,-46.99 -17.03,-58.07l-5.31 -22.8 20.54 1.3c43.47,6.89 36.63,-1.43 66.62,30.69 26.91,28.82 21.91,34.55 64.76,34.36 32.42,-0.15 55.26,-5.02 80.91,17.6 23.04,20.31 36.43,28.88 59.11,-2.05 -0.08,-35.69 -9.62,-39.41 -38.53,-60.21 -32.69,-23.5 -49.83,-11.4 -85.6,-14.52 -42.09,-3.66 -62.59,-71.06 -135.15,-59.26 -17.74,-14.13 -9.67,0.52 -22.78,-17.21 4.91,-21.54 26.96,-37.7 42.92,-52.67 34.38,-32.26 55.68,-0.45 78.48,-22.15 19.08,-0.54 33.28,-13.47 38.83,-30.24l34.25 -35.52c11.09,1.77 73.02,-12.7 82.79,-20.93 8.61,-21.91 -4.63,-32.08 -20.63,-46.34 -31.25,-6.17 -106.43,-3.55 -112.4,35.21 -14.92,11.03 -15.02,14.94 -23.19,32.01 -15.3,2.36 -16.81,10.14 -46.3,11.38 -50.98,2.15 -56.38,1.6 -98.01,57.06 -15.2,20.25 -2.53,11.75 -22.21,16.47 -17.14,-40.43 11.93,-91.31 33.95,-124.33 28.89,-43.32 1.81,-40.09 25.5,-141.15 4.76,-20.28 22.61,-49.53 -4.66,-61.83 -26.61,-12.01 -40.38,6.85 -51.32,26.84 -15.68,28.65 -16.14,34.5 -11.76,67.57 5.34,40.22 -1.11,37.59 -4.75,69.2 -14.69,11.8 -26.58,35.8 -37.37,54.03 -14.37,24.28 -12.48,44.74 -16.68,72.1l-16.83 -7.26c8.49,-52.7 9.8,-59.42 -5.5,-110.79 -8.94,-30.01 -21.28,-74.77 -50.73,-87.51 -17.63,5.33 -28.45,15.95 -25.9,33.13 -24.5,22.49 -37.98,139.61 -15.61,161.98 -5.77,16.51 -0.98,15.48 4.52,32.45l0.08 16.61c-41.37,10.46 -69.02,-13.98 -116.33,5.19l-15.19 5.31c-4.29,-29.4 11.22,-51.11 -10.2,-78.37 -46.78,-5.83 -99.98,84.31 -112.83,126.11l-13.46 43.18 -50.14 -33.08c-8.44,-15.02 -13.08,-19.85 -27.86,-27.59l-40.25 -63.12c21.99,-14.5 66.4,-14.45 79.98,-38.1 20.62,-9.92 26.06,-15.83 36.94,-35.84 18.46,-6.5 23.87,-40.96 17.23,-60.17 -44.45,-27.09 -156.48,17.5 -153.06,59.15l-18.84 0.4c-9.94,-17.5 -1.26,-11.43 -13.97,-26.21l-3.18 -22.63c-8.38,-12.09 -6.76,2.64 -4.43,-15.88l25.29 4.54 -3.47 -26.38 2.68 -13.35c-13.21,11.16 -10.01,-16.43 -11.03,21.24 -16.12,3.29 -5.36,4.29 -13.78,-4.39l-11.04 -8.04 -11.4 -3.57 2.09 17.94 17.53 55.65 2.96 17.14c0.49,0.4 12.83,9.67 12.99,9.79 1.32,0.94 5.76,3.88 7.04,4.82 1.2,0.89 2.83,2.26 3.83,3.02 1.07,0.8 2.72,2.14 4.01,3.3l12.19 5.22 7.39 -15.25c37.77,-44.02 64.08,-69.28 131.68,-55.93 3.48,28.91 -7.98,21.39 -11.42,44.37l-27.79 28.79 -68.56 26.76 -27.28 13.13 2.96 20.46c8.98,22.58 26.22,46.8 44.42,60.64 10.89,16.34 14.56,18.28 32.36,27.73 2.67,15.21 37.43,29.7 49.75,46.05l19.05 5.71 4.15 -12.69 3.5 -54.59c26.46,-27.9 53.23,-97.2 95.81,-111.26 10.31,92.01 -39.24,136.48 -97.99,192.29l-25.84 32.26 -1.01 16.66c5.34,10.96 8.13,9.3 11.23,18.19 5.35,15.32 0.41,13.28 3.74,27.36 5.17,21.85 16.22,16.88 30.57,31.69l-35.68 -0.51c-46.69,-16.47 -32.36,-54.79 -68.8,-81.47 -19.12,-13.99 -70.1,-67.54 -81.6,-68.73 -8.33,-17.64 -8.65,-20.55 -23.88,-31.06l-38.9 -68.19c-18.37,-18.45 0.7,17.7 -10.28,-7.88 -1.39,-3.23 -3.74,-2.25 -5.44,-3.61l-5.21 0.97 1.85 0.78c-11.77,10.33 -9.34,-6.18 -9.2,25.77l9.81 129.9c-1.61,20.82 5.26,33.73 7.79,54.43l10.56 -0.88 47.96 -3.92c-1.54,15.9 3.21,17.03 -11.74,23.67 -13.91,23.21 -5.95,26.95 -20.61,41.53l-4.66 5.01c11.26,13.57 13.48,8.47 27.62,20.97 32.46,11 62.39,43.32 86.31,67.37 20.28,20.4 51.73,78.28 67.12,90.57 5.2,17.03 11.89,33.71 23.45,44.48l7.51 35.64 14.18 -4c20.01,11.97 7.16,33.31 24.53,47.26zm-37.03 126.15l0.94 -13.85c33.46,-5.2 50.67,-20.78 67.47,-44.86 14.27,8.19 24.42,31.39 31.85,46.92l16.88 0.67c11.81,21.5 30.44,28.55 32.72,57.93 15.5,40.71 26.79,50.89 37.71,99.87 10.24,45.99 7.15,74.63 3.48,119.94 -0.28,17.17 2.92,14.88 -15.09,22.81 -1.52,18.8 2.84,12.4 -8.02,20.16l-1.1 7.71 14.43 24.2c20.2,31.57 1.43,24.43 -2.07,45.51 2.34,17.99 19.98,60.15 25.63,91.66 7.25,40.38 0.65,59.84 -21.65,91.23l-12.76 11.37 1.06 38.19c-17.52,0.62 -5.92,5.79 -16.35,-8.03l-3.5 -15.05 -15.57 5.31c-9.26,24.27 -22.68,27.59 -44.96,41.59l-6.46 -12.67 -3.1 -16.95c0.36,23.63 -11.55,78.87 -25.42,95.97 -11.52,-6.47 -8.48,-25.07 -8.67,-40.49 -0.31,-24.67 1.79,-22.34 -11.22,-40.77 -46.04,-9.9 -10.01,-64.78 -72.63,-81.21l-11.23 -2.82 -4.36 -1.41c-7.87,13.45 -29.4,33.05 -45.57,40.48 -1.06,-20 2.35,-18.82 12.24,-34.97 8.05,-13.15 19.04,-26.14 6.74,-29.62 -63.68,-83.1 80.67,-154.04 142.33,-171.8 12.15,-10.95 -3.86,-4.69 18.22,-9.71 4.93,-1.13 11.22,-0.57 16.26,-0.71 3.05,-0.08 25.68,-0.14 25.76,-0.13 -35.88,-11.01 -56.2,4.38 -86.91,5.24 6.02,-27.91 18.36,-37.09 44.41,-45.93l4.42 -11.61c1.52,-82.65 -12.95,-170.31 -58.68,-239.56l-27.23 -44.61zm-1014.63 -628.76c-2.38,-44.59 6.22,-86.07 35.01,-117.5 23.16,28.37 29.4,73.38 26.99,109.68l-3.46 41.32 3.11 3.33c13.69,-3.13 77.74,-17.89 83.49,-21.69l48.67 -0.17c46.9,22.77 37.32,23.6 75.27,53.1 14.77,13.46 3.92,5.85 17,11.39l6.53 -9.29 -27.49 -51.98c-2.39,-54.33 -2.01,-56.15 10.32,-106.7l2.66 -1.87 6.63 -6.2 9.1 11.61 33.09 66.8c4.16,43.19 -4.53,50.08 -5.32,83.08l14.06 0.83c5.6,3.95 8.31,5.41 14.72,10.43l13.02 -1.36 0 -5.82 20.81 -18.83c18.26,-26.71 8.38,0.28 18.92,-16.49l3.11 -9.46 -0.54 -14.69 30.31 -2.78 19.64 -8.74c8.01,-14.12 24.59,-28.45 35.64,-44.46 17.25,-24.97 11.98,-30.05 36.81,-36.58 -15.6,-13.43 -17.43,-15.21 -24.51,-35.39 -40.63,6.45 -87.97,6.32 -112.22,-48 -11.04,-16.61 -11.68,-13.72 -11.94,-33.21l38.63 0.76c37.58,6.76 88.27,19.93 93.54,58.85l20.31 -6.89 15.31 -0.01 18.09 -73.55 5.08 -43.26 -14.56 -2.02 -16.71 12.28 -1.28 -15.76c-21.77,0.4 -15.13,16.12 -11.79,34.06l19.78 -2.93 10 -13.77c9.49,16.9 4.12,8.14 -1.45,14.9 -1.25,21.26 -11.74,58.98 -23.95,75.22 -28.33,-13.28 -42.15,-40.76 -80.18,-40.64l-9.9 -12.18 28.91 -22.93 35.2 -21.7c-4.98,-11.72 9.23,-10.52 -12.44,-7.42l-26.89 18.98 -35.12 23.36c-18.46,-7.17 -2.74,-28.52 6.39,-48.6 7.88,-17.33 17.29,-35.38 25.62,-52.77 13.65,-28.52 37.17,-73.84 44.74,-101.78 -24.5,10.43 -213.3,4.61 -252.73,2.61 16,-18.93 132.04,-82.6 158.43,-90.47l-5.64 -12.99 -40.05 -21.75 177.69 -41.22 -71.92 9.69 -135.41 -151.01c53.85,1.46 183.29,75.37 221.06,67.13l19.03 -276.75 101.54 199.69 15.97 12.65 60.13 -103.8 13.3 160.93 121.22 -68.1c1.73,20.04 -14.97,58.02 -20.72,77.6 -18.19,61.9 -13.83,25.65 -54.77,45.44l238.77 -20.83c-5.47,25 -175.12,139.07 -206.16,150.21l5.87 16.12c23.73,33.12 103.9,88.82 113.74,115.39l-120.65 -5.76 -23.27 -0.22 1.91 25.95 2.68 27.43 10.52 3.71 -5.43 -39.84c22.47,-11.09 54.76,-9.54 72.95,1.48l83.14 5.17c0.6,-41.13 -93.8,-101.51 -118.88,-136.85 25.51,-32.71 216.25,-126.49 208.55,-172.9 -43.95,-14.89 -166.66,14.64 -195.69,4.04 -2.74,-35.98 34.78,-74.51 24.87,-110.39 -39.79,-13.09 -86.94,52.82 -125.86,49.59l-8.17 -153.92c-35.24,-5.82 -54.15,74.62 -82.39,95.93 -36.28,-23.32 -73.18,-204.55 -124.22,-202.41 -14.29,29.4 -16.88,230.26 -22.15,281.07l-190.47 -60.43 -33.85 -1.21 3.43 16.19c16.97,37.13 106.16,109.73 118.06,144.89 -22.3,11.86 -77.77,9.83 -92.69,31.57 3.86,23.35 11.99,15.35 32,31.62 -27.22,36.38 -147.77,62.69 -152.78,108.68 28.2,14.01 203.38,3.5 250.48,6.25 -0.88,25.32 -29.34,72.15 -41.52,98.31 -12.27,26.36 -23.28,80.87 -47.31,92.21l-21.7 4.2c-9.11,21.52 1.32,46.53 18.62,59.6 8.66,47.94 72.17,51.45 111.4,57.09 -1.07,25.82 -41.04,68.41 -61.21,88.36l-38.64 5.01c-12.34,1.77 -7.6,22.44 -8.82,36.67 -15.73,11.24 -24.08,18.36 -44.94,17.63l1.45 -27.12c0.88,-39.55 -4.11,-56.53 -24.23,-89.05 -5.71,-9.24 -38.94,-74.91 -49.25,-37.81 -19.43,16.39 -38.46,95.07 -20.57,113.9l-5.41 13.26c-18.73,-13.82 -27.96,-19.3 -48.99,-23.26 -16.89,-4.82 -45.2,-7.98 -56.86,2.82l-16.37 -1.16c-11.84,-21.07 -10.79,-29.6 -41.43,-24.23 -2.57,-35.23 -12.53,-92.47 -40.57,-114.43 -49.68,6.29 -59.08,93.14 -55.06,134.11 -14.94,14.33 0.33,2.68 -16.78,4.52l-2.3 -5.99c-5.04,-20.67 -4.81,-30.66 -20.62,-43.25 -16.81,-24.36 -68.09,-61.78 -78.13,-8.4l15.76 12.3c8.44,14.12 22.9,29.18 32.99,40.83 -2.75,39.2 29.5,28.54 46.89,73.27l3.35 12.66c-20.46,-2.81 -9.71,-2.99 -25.28,-9.75 -19.24,-8.37 -18.8,-2.78 -36.85,-5.27 -28.19,-3.89 -22.75,-21.64 -62.65,-25.71 -17.93,-1.62 -40.13,-4.32 -49.13,14.27 -15.05,31.09 13.13,31.26 32.64,34.1 34.12,4.97 22.96,16.21 46.47,25.89 21.19,8.72 39.34,-0.92 65.73,6.44 36.58,38.45 15.44,59.8 -4.66,88.56 -14.35,20.54 -4.36,31.81 -14.98,52.69 -11.34,22.28 -24.19,20.15 -9.34,49.42 72.43,37.14 49.31,-103.63 102.2,-106.46 16.27,20.4 -2.41,35.17 2.93,67.94 2.65,16.28 7.72,63.85 17.76,72.19 28.02,23.29 40.39,-4.15 41.84,-28.78 2.15,-36.75 -17.87,-53.88 -4.66,-80.54 10.87,-3.39 52.1,7.55 67.5,11.08 31.46,7.21 25.28,32.39 60.45,17.88 12.58,-33.9 -16.08,-30.28 24.11,-53.51 80.63,-46.61 87.95,10.51 143.54,-18.12 97.34,-50.13 79.22,30.18 78.32,56.21l0.44 14.82 10.38 2.04 5.67 -54.95c1.52,-24.44 5.28,-6.12 -9.59,-24.84l6.92 -14.09 -69.22 -9.71 -15.52 9.01c-39.34,16.43 -38.1,18.12 -81.73,5.26 -21.79,-1.68 -16.91,3.93 -41.09,6.86 -56.18,5.29 -115.39,93.04 -190.88,12.33l-9.16 0.86c3.69,32.76 -6.71,49.2 -2.03,69.91 4.91,21.76 18.32,44.44 2.57,68.18 -12.85,-5.86 -13.54,-37.97 -20.58,-60.48 -8.16,-26.1 5.18,-44.09 7.01,-74.43 -19.48,-11.32 -40.93,-15.26 -53.31,-37.33l-8.49 3.17 -17.52 -46.86c-18.37,-11.11 -4.25,-0.16 -13.7,-14.71 -22.83,-3.4 -57.37,-0.3 -72.76,-9.24 -8.84,-5.13 -16.36,-14.14 -23.64,-17.74 -15.5,-7.69 -20.11,-1.99 -38.29,-7.9l1.72 -12.44c57.72,-6.07 35.16,-1.7 74.24,18.72 17.99,9.4 22.77,2.82 40.7,5.8 14.31,2.38 18.16,7.91 31.26,14.05l9.54 9.2c5.45,-13.81 7.33,-10.08 21.96,-11.78l13.75 -24.26 3.08 3.27c9.65,-17.32 5.57,-4.55 6.11,-19.23l-11.61 -54.86 -0.12 -1.95zm-5.33 54.66l0.3 22.57c-25.27,-5.54 -3.36,0.27 -24.37,-16.18 -1.1,-18.38 -5.44,-24.03 -19.89,-36.07 -26.71,-22.26 -9.01,-10.35 -24.36,-32.8 -10.32,-26.87 -17.02,-28.71 -41.56,-42.53l3.55 -15.7c33.58,2.19 21.95,17.78 48.28,24.31 6.13,16.27 12.62,38.37 23.6,48.71 1.67,5.41 27.63,38.65 34.45,47.69zm1169.94 12.36c24.05,-15.74 34.97,-41.24 67.83,-52.85l22.21 12.91c7.77,24.54 -2.98,20.84 13.91,37.65 -1.33,19.5 12.13,24.89 22.46,41.73 -14.59,23.91 -53.28,56.06 -84.78,59.46 -24.44,2.64 -81.63,-20.7 -98.11,-38.36 3.85,-32.32 37.5,-33.6 56.48,-60.54zm-255.28 312.67c8.16,16.71 17.63,25.41 32.66,35.53 7.28,18.22 38.09,41.13 55.17,53.74l4.19 -4.2 -38.32 -53.96c-5.54,-17.12 -7.12,-21.44 -20.02,-31.98 -10.19,-55.69 -115.29,-115.38 -121.87,-144.6l-15.15 -9.65c15.16,36.44 72.01,140.93 103.34,155.12zm24.19 -0.59c-4.58,8.3 3.29,6.87 -5.02,5.01l-10.54 -6.41 -43.56 -60.81c28.81,11.14 48.43,55.83 59.12,62.21zm-774.05 -145.11c18.36,3.46 18.41,2.66 25.33,22.93 -30.9,-6.53 -21.11,-18.03 -25.33,-22.93zm-25.02 -157.95c37.02,0.16 77.78,32.58 102.33,61.24 -13,9.09 -71.61,38.9 -86.74,41.71l-23.11 -21.81 -9.54 -66.48 17.06 -14.66zm-56.15 -52.54c3.21,-16.95 3.19,-27.33 22.53,-28.67 -0.34,18.82 -9.31,24.16 -22.53,28.67zm864.22 1154.04l9.8 -14.81c-6.94,0.26 -9.22,11.19 -9.8,14.81zm-824.91 -1103.97c-10.41,5.58 -17.4,12.72 -19.57,23.32l7.42 14.52 0.59 58.29 26.44 13.88 19.54 7.95c35.47,-2.02 70.14,-35.08 106.45,-44.36l7.08 -15.74 -12.04 -6.96c-34.01,-13.81 -49.11,-48.81 -90.11,-55.83l-30.1 -6.43 -15.7 11.36zm-196.93 231.06c0.13,-23.55 -0.74,-11.61 11.48,-31.12 19.57,-31.24 -4.41,-38.97 45.94,-93.93 25.19,30 -8.03,33.72 -18.14,59.61 -6.3,16.14 0.14,64.65 -39.28,65.44zm610.61 864.49c56.19,25.97 40.96,14.19 99.64,17.85 -4.35,28.67 -23.75,28.41 -52.82,31.9 -17.56,10.6 -31.12,9.11 -52.6,5.67l-0.47 -48.61 0.82 -2.34 -8.88 -10.8 14.31 6.33zm-21.19 -369.95c3.73,3.57 125.28,265.71 118.48,304.75 -21.75,-1.53 -27.08,-10.35 -56.87,-11.17 -25.3,-0.7 -42.09,2.38 -65.03,4.59 -8.61,-38.04 -9.64,-267.81 3.42,-298.17zm316.68 -1108.67c0.37,8.21 3.08,24.48 3.18,30.08 0.35,20.94 7.49,9.12 -7.91,16.29 8.42,8.68 -2.34,7.68 13.78,4.39 1.02,-37.67 -2.18,-10.08 11.03,-21.24l-7.64 -65.2 65.6 1.03c-18.19,-11.02 -50.48,-12.57 -72.95,-1.48l5.43 39.84 -10.52 -3.71zm-334.76 42.87c21.67,-3.1 7.46,-4.3 12.44,7.42l12.8 -7.32c1.57,24.93 -4.56,15.26 8.79,31.35 -3.34,-17.94 -9.98,-33.66 11.79,-34.06 5.63,-21.67 24.58,-101.32 18.35,-116.98 -14.76,25.06 -6.95,50.79 -18.98,73.74 -11.78,22.46 -31.14,24.37 -45.19,45.85zm-107.81 316.79l20.35 -0.38 3.95 22.73 -45.11 -3.52 0 5.82c76.33,6.71 59.28,24.8 103.32,58.74 34.94,26.93 73.55,28.85 105.05,46.85 -42.53,16.76 -18.49,-29.11 -77.89,88.56 -23.29,46.12 -36.15,97.77 -49.14,113.61l9.97 -112.39 -10.38 -2.04 -0.44 -14.82c-19.17,21.68 -14.34,118.2 -18.06,153.1 19.55,7.78 14.16,1.24 9.34,28.46 6.94,-7.7 73.96,-185.89 110.72,-238.98 15.46,-0.94 14.67,0.31 28.89,-2.92 47.01,-10.67 13.82,-6.76 78.15,26l2.03 17.71 10.03 9.75 10.5 -14.76c-26.94,-15.53 -0.3,-14.55 -36.27,-31.45 -18.93,-8.88 -15.22,-12.57 -36.34,-20.11l-86.64 -28c-51.49,-21.84 -86.61,-62.35 -108.95,-111.13l-4.16 -7.32c-10.54,16.77 -0.66,-10.22 -18.92,16.49z"/>
   </g>
  </g>
 </g>
</svg>
