<?xml version="1.0" encoding="UTF-8"?>
<!DOCTYPE svg PUBLIC "-//W3C//DTD SVG 1.1//EN" "http://www.w3.org/Graphics/SVG/1.1/DTD/svg11.dtd">
<!-- Creator: CorelDRAW 2017 -->
<svg xmlns="http://www.w3.org/2000/svg" xml:space="preserve" width="27.3472mm" height="26.7546mm" version="1.1" style="shape-rendering:geometricPrecision; text-rendering:geometricPrecision; image-rendering:optimizeQuality; fill-rule:evenodd; clip-rule:evenodd"
viewBox="0 0 2734.72 2675.46"
 xmlns:xlink="http://www.w3.org/1999/xlink">
 <defs>
  <style type="text/css">
   <![CDATA[
    .fil1 {fill:#070707}
    .fil2 {fill:#454545}
    .fil0 {fill:#C1C1C1}
   ]]>
  </style>
 </defs>
 <g id="Capa_x0020_1">
  <metadata id="CorelCorpID_0Corel-Layer"/>
  <g id="_2435067817920">
   <path class="fil0" d="M555.49 1791.42c17.7,-15.21 29.09,-39.74 35.75,-63.98 -12.52,7.63 -2.4,-0.88 -10.97,7.56 -8.84,8.7 -21.13,44.93 -24.78,56.42z"/>
   <path class="fil1" d="M1175.06 2582.48c-4.55,-6.94 -8.76,-17.68 -6,-29.34 2.34,-9.9 1.28,-4.24 6,-10.2 13.42,10.05 8.86,30.4 0,39.54zm105.02 -45.11c8.11,5.32 10.14,-3.76 9.19,19.66 -0.39,9.53 -2.8,11.98 -6.64,20.33 -2.07,-4.51 -4.79,-11.72 -5.7,-16.72 -3.41,-18.6 0.33,-18.45 3.15,-23.27zm17.31 -11.24l41.37 -2.45 0.23 68.78 -48.2 2.56c4.61,-23.97 14.68,-39.63 6.6,-68.89zm-112.3 2.41l80.61 -1.14c-7.7,14.8 3.86,49.3 6.96,66.23l-83.47 1.2c1.26,-28.13 20.32,-37.75 -4.1,-66.29zm-22.17 65.82l-52.28 -3.74c-5.38,-27.16 0.28,-41.4 7.08,-64.35l52.37 1.23c-22.6,20.69 -12.75,32.7 -7.17,66.86zm-40.53 -76.43l10.03 -105.53c105.64,6.24 41.84,32.9 96.22,31.23 30.84,-39.47 -0.31,-47.04 25.18,-56.1 8.91,14.03 -4.03,47.62 16.23,79.16 13.12,20.42 34.25,28.84 47.74,44.76l-195.4 6.48zm147.85 -120.06c23.1,12.89 68.19,56.55 13.65,66.57 -12.25,-20.01 -13.76,-38.7 -13.65,-66.57zm-153.84 9.8l-3.74 65.9c-40.09,1.71 -63.91,-12.05 -78.89,-37.97 -20.88,-36.13 7.91,-30.2 82.63,-27.93zm213.14 -41.51c31.13,-7.15 57.73,9.55 58.63,37.12 -25.82,0.91 -64.85,-4.61 -58.63,-37.12zm61.67 -17.41c27.83,-5.64 39.77,11.55 48.08,31.52l-33.54 -2.15c-9.62,-10.67 -13.02,-12.69 -14.54,-29.37zm-162.69 25.58c-0.43,28.58 2.49,35.21 -10.21,54.85 -16.01,-9.08 -5.84,-15.35 -31.78,-23.54 -78.7,-24.84 -11.99,20.1 -75.68,-41.01l3.68 -24.13c30.23,-5.4 131.42,-17.41 151.4,-9.7 13.93,35.73 -9.85,36.31 -37.41,43.53zm44.02 -88.7c22.67,-1.38 115.66,10.1 141.74,39.83 -0.77,0.69 -2.3,0.24 -2.74,1.44l-9.17 3.46c-20.79,6.31 -16.27,-0.08 -27.29,20.28l-3.11 6.06c-18.03,-4.9 -33.37,-10.98 -47.57,-0.43 -25.49,21.95 0.87,34.04 8.57,51.21 -23.53,6.81 -17.1,9.19 -62.49,-25.16 33.29,-62.07 -1.19,-34.51 2.06,-96.69zm-337.88 48.35c39.74,-37.08 95.86,-31.68 139.76,-117.77l47.35 12.65 -2.15 80.98c-16.16,5.52 -25.26,0.22 -44.68,7.38 -11.34,4.19 -22.08,10.64 -37.77,14.57 -34.11,8.55 -68.13,0.71 -102.51,2.19zm339.5 -99.38l1.01 -48.79c28.08,3.56 37.65,6.88 43.05,30.29 -12.29,13.78 -22.19,14.96 -44.06,18.5zm-211.6 -70.17l60.25 12.29 -0.17 35.67c-27.87,-9.55 -69.05,-7.28 -60.08,-47.96zm-748.74 107.39c-9.01,-26.14 19.82,-78.66 33.45,-104.68 7.49,-14.29 10.66,-22.51 29.87,-19.15 10.59,19.81 -8,49.15 -18.24,70.19 -13.17,27.06 -17.06,51.39 -45.08,53.64zm808.66 -274.61l1.16 163.11c-20.4,-0.06 -34.81,-3.64 -48.89,-9.82 3.26,-38.97 27.59,-129.36 47.73,-153.29zm-996.03 186.39c16.65,-25.35 80,-72.42 126.63,-86.19 -5.92,15.97 3.51,5.11 -28.24,26.12 -9.79,6.48 -21.17,14.63 -31.21,21.29 -16.66,11.05 -49.27,38.36 -67.18,38.78zm79 -83.19c10.18,-19 27.16,-28.22 43.3,-40.46 13.54,-10.27 35.26,-29.46 54.47,-26.8 1.01,34.83 -77.75,63.06 -97.77,67.26zm989.78 216.53l-61.2 6.84c-2.43,-88.44 4.54,-176.37 2.52,-265.16 -1.9,-83.2 -3.72,-179.93 -1.5,-262.46 29.32,-19.6 41.63,-18.03 65.18,-0.07l-5 520.85zm59.97 -7.45l-46.57 6.68 3.62 -511.44 32.45 1.49c6.61,-17.14 0.94,-23.19 17.87,-26.58 8.54,9.89 5.87,7.24 6.09,24.89l-5.28 236.4c-2.12,79.1 4.47,195.08 -8.18,268.56zm-879.26 -95.82c5.81,-22.11 30.9,-55.11 9.96,-75.01 -25.37,-24.11 -44.16,14.74 -49.99,30.5 -33.82,-6.09 -60.31,-25.92 -88.64,-36.21 7.1,-14.71 10.47,-10.04 16.27,-27.8 7.31,-22.41 -3.3,-14.73 20.19,-27.65 13.75,-7.56 32.3,-16.06 32.55,-36.93 0.58,-49.33 -62.23,1.66 -62.9,2.09 -17.38,11.25 -33.05,30.16 -54.1,33.44 -9.25,-21.9 1.64,-26.15 12.5,-44.38 11.23,-18.84 13.83,-23.7 30.27,-35.31 81.84,-57.79 138.47,104.18 157.66,146.03 8.43,18.38 12.71,36.14 30.04,44.67 -7.5,-42.3 -64.15,-173.33 -121.06,-202.89 -12.09,-6.27 -21.25,-6.74 -30.53,-17.46 19.28,-18.98 59.92,-39.83 87.47,-52.27 40.29,-18.2 77.8,-46.63 92.81,-52.75 8.4,16.65 53.81,67.93 69.07,82.1 -5.43,20.19 -19.42,45.01 -27.57,74.1 -24.16,86.24 -47.31,189.3 -124,195.73zm96.65 -358.87c32.51,-4.7 123.12,42.34 67.99,81.88 -13.73,-5.87 -8.67,-3.79 -18.66,-16.92 -6.01,-7.9 -11.65,-14.91 -17.38,-21.95 -11.68,-14.36 -24.2,-26.98 -31.95,-43.01zm807.35 111.77l1.28 -149.03c32.1,15.09 53.33,15.77 75.71,23.96 0.9,0.33 2.42,1.08 3.14,1.36 0.71,0.28 2.12,0.81 3.07,1.42 -11.44,35.07 -61.82,103.09 -83.2,122.29zm5.78 -203.82c40.84,-9.31 22.37,24.85 52.78,37.04 43.9,17.61 56.19,-33.53 90.92,9.02 6.78,8.32 8.16,10.31 15.28,15.26 65.64,45.68 27.86,29.28 54.73,67.77 8.05,11.51 24.31,19.67 18.57,37.16 -47.28,10.69 -46.21,-17.03 -67.39,-27.6 -57.84,-28.87 -21.57,2.25 -49.4,-51.44 -26.14,-50.42 -139.59,-6.28 -115.49,-87.21zm-50.25 31.18c-30.34,2.52 -36.8,-22.23 -53.51,-26.02 -17.56,-3.98 -47.54,27.91 -62.79,4.89 -6.4,-9.67 -4.09,-28.53 1.98,-34.41 7.47,-7.22 27.9,-5.22 40.99,-5.26 41.28,-0.12 36.62,-17.6 65.43,-15.64l12.23 22.35c17.65,-2.61 29.87,-14.7 31.36,8.26 1.61,24.65 -12.92,16.13 -28.57,15.3l-7.12 30.53zm-679.98 -2.51c3.65,-11.49 15.94,-47.72 24.78,-56.42 8.57,-8.44 -1.55,0.07 10.97,-7.56 -6.66,24.24 -18.05,48.77 -35.75,63.98zm20.1 116.74c-7.33,-13.25 -10.64,-19.24 -16.37,-28.88 45.24,-57.65 43.98,-36.28 95.12,-126.87 28.66,-50.76 52.47,-99.87 59.69,-168.11l34.82 0.12c-18.36,90.22 -56.36,192.86 -109.77,262.14 -12.8,16.61 -45.43,53.72 -63.49,61.6zm-26.26 -38.85c-11.24,-5.72 -13.79,-10 -27.32,-14.86 9.57,-21.47 26.66,-23.38 52.56,-68.1 14.03,-24.21 29.35,-53.49 42.52,-80 30.84,-62.04 40.31,-116.72 64.3,-180.43 8.28,20.26 4.09,20.82 16.97,43.06 9.01,15.56 9.05,17.2 -1.91,54.98 -9.57,33.02 -23.33,66.82 -37,94.17 -29.11,58.26 -70.54,115.89 -110.12,151.18zm-72.37 -30.6c2.96,-88.14 125.64,-247.12 189.76,-312.07 -1.91,17.21 -34.23,124.45 -47.19,142.92 -17.44,24.86 -49.48,44.84 -75.63,116.89 -13.9,38.31 -16.49,66.31 -66.94,52.26zm806.83 -133.85c-16.62,-104.97 -24.94,-249.92 -20.37,-358.27 30.99,21.56 14.96,-7.37 47.79,72.83 37.16,90.77 33.29,226.93 -27.42,285.44zm-603.66 -346.69c19.04,5.03 30.64,23.61 50.64,33.7 -2.83,26.22 -56.86,137.04 45.16,135.24l19.92 1.38c7.33,25.83 -27.25,40.32 -54.04,41.31 -40.81,1.51 -39.52,-17.15 -48.53,-48.51 -15.2,-52.98 11.38,-47.11 1.59,-79.82 -9.52,-31.8 -13.9,-46.81 -14.74,-83.3zm605.59 385.5c-5.71,-35 -5.82,8.98 24.03,-44.78 48.03,-86.48 49.9,-177.2 18.64,-270.24 -8.43,-25.07 -36.12,-81.73 -38.24,-91.35 4.73,-5.72 8.05,-10.58 16.18,-15.93 25.98,33.6 56.62,154.89 60.72,207.78 6.48,83.81 -16.32,160.03 -44.41,226.52 -11.74,-5.49 -28.85,-7.26 -36.92,-12zm-510.5 -230.13c43.02,-65.56 118.36,-167.97 190.11,-202.32l20.8 12.27c-11.65,15.88 -39.83,33.98 -55.87,48.65 -24.4,22.33 -140.07,133.81 -155.04,141.4zm583.62 -236.98c38.66,47.82 75.55,186.7 75.55,265.89 0,79.9 -22.25,144.36 -45.11,218.5 -9.06,29.41 -23.37,32.43 -53.35,23.32 -5.13,-19.98 22.11,-71.31 29.43,-99.6 38.15,-147.48 3.83,-240.94 -49.61,-374.06 12.59,-13.17 23.18,-27.62 43.09,-34.05zm-233.97 439.23c-5.55,-128.26 -3.94,-294.44 -19.55,-418.32 -7.29,-57.9 14.08,-84.9 63.8,-52.47 2.79,18.48 25.61,437.12 22,476.28l-66.25 -5.49zm-361.18 -204.68c-46.33,-6.48 -44.35,-37.61 -22.62,-70.07 39.16,-58.52 126.48,-172.6 198.02,-183.77l17.74 44.59c-20.95,15.97 -42.22,26.37 -59.62,41.6 -40.25,35.22 -110.09,121.18 -133.52,167.65zm636.5 265.62c8.19,-41.52 26.05,-82.51 35.58,-127.01 21.13,-98.58 10.77,-177.04 -15.93,-272.89 -20.95,-75.22 -35.28,-72.05 -48.28,-104.77l26.66 -13.76c40.93,48.72 82.58,184.19 82.58,266.66 0,57.34 -5.39,95.31 -22.24,147.97 -6.78,21.19 -13.6,35.84 -23.39,55.3 -17.22,34.22 -13.48,40.72 -34.98,48.5zm-661.14 -353.81c10.15,-80.09 116.51,-226.92 206.33,-202.34 -14.11,16.65 0.08,15.77 -20.65,27.68 -29.95,17.22 -57.45,22.38 -95.55,62.15 -27.65,28.86 -69.22,76.39 -90.13,112.51zm517.42 -128.63c-4.76,-27.89 1.06,-45.07 -15.77,-55.28 -6.9,10.52 6.58,90.15 8.01,110.91 2.9,42.38 3.56,84.3 5.1,126.92 3.05,83.92 12.22,163.02 16.2,244.17 -31.8,0.89 -16.25,1.88 -34.26,-12.03 -15.99,-12.33 -13.77,-4.08 -31.19,-7.42 -3.19,-62.93 -28.22,-440 -19.27,-468.54 13.09,2.03 32.36,21.67 43.12,4.35 9.84,-15.85 -4.56,-33.62 -11.55,-42.92 -23.63,-31.46 6.64,-56.18 16.84,-88.15 10.28,23.06 20.81,45.39 32.73,64.82 13.84,22.56 32.36,38.32 43.91,56.75 -13.59,7.08 -16.26,8.65 -27.8,19.58 -11.14,10.56 -13.09,10.14 -22.91,19.25l-3.16 27.59zm20.52 14.18c0.09,-7.83 0.8,-9.26 0.35,-18.78 -2.25,-48.45 30.6,-32.65 62.17,-72.73 18.8,-23.87 7.57,-35.87 32.59,-63.75 17.64,-19.66 26.56,-31.75 55.96,-17.52 4.53,27.93 -5.85,46.06 -13.91,72.62 -18.94,62.38 -90.65,44.19 -132.95,121.33l-4.21 -21.17zm814.1 -177.5c-19.53,20.01 -53.89,20.46 -76.28,9.34l76.28 -9.34zm-1437.04 -45.03c19.3,3.96 27.06,9.2 48.33,9.35 83.36,0.59 46.53,23.29 137.72,26.68l-47.29 12.38c-55.09,6.9 -90.56,7.11 -146.44,1l7.68 -49.41zm-31.36 62.56c-10.55,12.19 -23.02,27.8 -47.64,29.28 -68.61,4.12 -54.72,-120.45 -20.42,-158.3l37.86 19.85c3.36,61.79 20.07,80.88 30.2,109.17zm1219.55 7.71c-2.91,-28.06 -6.03,-43.11 19.47,-44.8 27.4,-1.82 36.88,-0.74 59.15,9.13 60.04,26.59 147.18,70.52 197.69,9.01 12.28,-14.95 0.09,-6.76 17.17,-17.74l58.98 -41.57c6.53,11.58 16.13,22.88 23.16,34.78 -25.92,55.94 -103.04,112.28 -189.54,112.28 -44.29,0 -63.82,-12.53 -96.34,-29.15 -24.38,-12.47 -75.29,-23.33 -89.74,-31.94zm-404.64 -85.45c76.11,29.49 243.74,62.43 332.56,43.64 4.29,8.49 10.17,30.78 12.95,43.23 -115.67,10.32 -182.73,-3.83 -293.75,-26.28 -16.61,-3.36 -63.98,-14.27 -79.12,-27.15l27.36 -33.44zm-361.58 206.68c7.03,-22.59 6.52,-55.11 22.22,-69.91 23.87,-22.49 39.8,10.44 65.69,-26.12 16.48,-23.29 39.08,-107.45 55.45,-125.95 11.55,58.33 -4.05,48.82 -20.49,86.49 -21.79,49.94 10.16,48.44 17.18,86.73 -18.55,-6.95 -14.3,-15.88 -30.56,-12.1 -21.57,5.03 1.92,12.65 -26.9,6.43 -30.31,-6.55 -51.49,-9.16 -62.84,17.06 -18.32,42.34 -28.36,95.03 -98.92,73.68 -18.99,-5.74 -30.92,-27.76 -39.32,-48.14 -17.77,-43.11 7.17,-35.01 16.9,-59.06 6.74,-16.64 -3.2,-86.81 -3.02,-99.6 0.18,-12.59 14.64,-31.35 24.25,-36.77 16.63,22.1 18.97,46.05 18.09,78.7 -1.24,46.1 -6.54,41.25 -25.19,67.15 -13.63,18.92 -14.69,100.03 87.46,61.41zm-210.32 -196.31c44.11,-10.85 50.63,-26.51 72.23,-40.97 5.86,12.35 11.21,24.43 11.5,42.99 -6.49,5.91 0.26,1.64 -11.56,7.83l-76.77 29.11c9.85,-24.17 10.21,-16.03 4.6,-38.96zm-487.86 -93.25c11.19,18.6 9.41,27.68 35.18,38.58l21.78 8.79 -13.49 90.27c-114.55,4.69 -117.11,-40.86 -85.52,-137.57l42.05 -0.07zm277.92 74.73c18.99,3.45 37.96,15.55 53.81,22.89 -13.26,-0.13 -23.98,-1.59 -36.34,-4.04 -20.66,-4.09 -17.52,0.5 -17.47,-18.85zm-14.18 -5.71c1.98,25.09 -1.72,50.76 -10.49,72.56 -12.42,-17.32 -24.27,-60.2 -25.04,-87.37l35.53 14.81zm-156.09 -0.06l30.34 0.43 -1.8 59.24 -36.23 3.43 7.69 -63.1zm960.71 4.05c5.41,-18.71 21.8,-39.77 30.66,-51.79 23.61,5.77 47.48,24.31 81.37,31.39 90.88,19 143.95,11.55 231.37,1.51l-13.44 56.49c-143.1,15.67 -173.46,4.36 -329.96,-37.6zm-102.08 104.03c-0.38,-0.79 -1.8,1.22 -2.78,1.67 -23.21,-28.56 -60.77,-96.19 -68.13,-141.31 63.43,22.23 75.8,79.91 109.63,90.56 -7.53,14.9 -10.51,17.86 -19.47,28.79l-16.56 18.53c-0.5,0.42 -2.31,2.54 -2.69,1.76zm-99.01 -377.84c21,23.92 2.11,186.26 13.12,234.8 37.09,163.49 114.81,149.21 61.81,195.45 -19.27,-19.63 -42.31,-52.58 -59.45,-84.09 -30.44,-55.97 -18.53,-56.03 -25.13,-79.47 -3.65,-12.95 -12.05,-18.29 -12.5,-20.34 -4.1,-18.51 1.6,-116.66 1.37,-147.13 2.99,-0.66 2.51,2.31 18.25,4.73l2.53 -103.95zm-495.76 246.51c85.24,-9.95 122.8,-39.19 146.97,-30.59 15.05,5.35 27.4,16.84 33.16,28.57 -14.83,11.23 -56.87,40.18 -86.92,39.47 -8.69,-0.21 -78.52,-24.38 -93.21,-37.45zm1491.15 -31.71c23.68,3.71 53.89,12.02 56.84,39.4 1.41,13.14 -0.3,7.91 -7.67,18.73 -41.97,10.48 -50.92,-20.05 -49.17,-58.13zm-3 51.53c16.91,31.94 38.57,25.08 67.48,14.6 -7.39,17.68 -5.78,13.74 -29.86,21.13 -14.09,4.32 -22.94,8.4 -36.76,10.89 -33.53,-32.32 -48.9,-63.8 -37.59,-114.93 46.97,3.04 16.33,29.77 36.73,68.31zm-229.56 -8.31c39.77,-31.61 68.14,-29.47 127.12,-28.57 -4.27,4.97 -1.71,2.97 -7.69,7.67l-20.61 10.6c-30.31,12.43 -78.3,21.34 -111.38,23.63l12.56 -13.33zm-1521.02 -0.51c0.95,-17.97 -4.29,-59.64 13.89,-60.51 10.71,-0.51 37.56,17.9 43.97,24.93l-21.72 36.64 -36.14 -1.06zm696.49 -206.72c12.56,10.14 29.7,24.05 30.6,43.95 2.37,51.67 1.99,159.58 -27.21,197.64l-3.39 -241.59zm147.6 207.53c-50.58,-44.74 -65.61,-9.41 -66.17,-95.59l17.14 13.57c31.22,32.21 58.12,53.13 101.32,72.83 -6.79,12.17 -14.46,20.56 -24.46,33.71 -17.47,-7.19 -14.02,-12.29 -27.83,-24.52zm-894.75 -51.35l-1.17 24.52c-26.46,-2.89 -39.25,-15.19 -45.23,-40.19l46.4 15.67zm1409.39 104.43c3.47,-87.62 11.8,-48.73 72.87,-68.33 29.76,-9.55 59.73,-37.67 81.28,-54.21 26.41,-20.28 54.68,-35.26 98.41,-38.64 34.45,-2.67 34.69,-7.92 50.41,16.94 13.2,20.89 20.23,13.99 36.1,28.3 -6.1,31.41 3.39,46.74 1.87,74.71 -20.67,10.56 -28.6,25.74 -52.27,39.99 -46.19,27.82 -169.28,43.74 -215.95,7.78 7.99,-5.55 53.41,-33.27 58.21,-34.17 37.38,-7.02 109.78,4.96 173.82,-45.05 15.47,-12.08 18.83,-11.94 21.09,-19.9 -62.01,-11.39 -137.03,-2.02 -177.59,29.72 -42.87,33.56 -68.04,62.89 -148.25,62.86zm-48.55 62.37c-24.86,-89.34 4.92,-67.11 8.53,-143.3 2.36,-49.61 24.58,-102.97 62.57,-111.25 10.08,41.47 15.53,90.87 -19.81,123.76 -18.46,17.18 -12.96,29.86 -17.61,60.84 -4.36,29.05 -2.5,45.94 -3.98,74.54l-29.7 -4.59zm-811.21 -161.64c21.76,-10.99 65.7,-60.02 78.13,-90.86 0.79,9.64 1.87,21.29 1.49,30.89 -1.17,29.95 -55.27,95.67 -72.45,111.35l-7.17 -51.38zm-451.39 -80.19l28.37 -3.04 -3.91 29.63c-16.22,-5.26 -26.03,-7.12 -24.46,-26.59zm830.23 163.16c7.52,-18.65 28.41,-41.39 42.1,-60.38 7.16,-9.94 13.86,-18.81 21.77,-30.74 24.13,-36.4 -9.57,-50.94 56.68,-100.91 80.07,-60.39 72.87,44.44 37.84,77.26 -21.64,20.26 -41.54,11.56 -62.66,42.36 -14.81,21.61 -29.22,40.27 -42.56,62.44 -6.76,11.25 -12.48,24.69 -25.64,27.62 -19.05,4.24 -18.53,-7.16 -27.53,-17.65zm-421.04 -130.38c19.37,-16.27 42.8,-43.71 57.11,-73.57 33.69,-70.34 3.59,-79.08 47.36,-83.53 10.02,16.38 12.26,39.43 14.16,61 4.34,49.09 -48.73,108.29 -80.39,133.99l-38.24 -37.89zm20.08 40.73c12.51,19.93 28.08,76.8 1.26,88.56 -18.23,-38.03 0.09,-44.11 -39.29,-76.76 -27.15,-22.51 -52.63,-14.98 -84.31,-29.57 -49.87,-22.96 -92.11,-65.75 -93.91,-136.49 48.98,5.7 107.6,91.41 129.39,130.5 47.46,-6.55 64.59,-11.74 86.86,23.76zm299.56 -162.39c26.25,20.45 44.73,89.96 157.55,148.91l-26.33 47.72c-34.17,-13.86 -80.01,-44.96 -99.41,-68.1 -23.81,-28.41 -31.25,-12.29 -30.23,-54.64 0.63,-25.98 -1.35,-48.78 -1.58,-73.89zm190.34 72.23c-26.77,24.32 -14.99,44.07 -29.19,62.65 -53.78,-19.27 -102.31,-74.49 -130.96,-118.42 -26.87,-41.18 -26.14,-10.79 -30.54,-47.43 26.88,12.19 40.06,30.73 78.36,33.59 6.79,-12.15 0.39,-10.95 8.75,-21.14 18.42,5.48 142,42.94 151.43,48.44 -8.47,11.76 -35.24,30.86 -47.85,42.31zm-385.03 229c-0.6,-107.57 27.66,-234.88 -7.82,-340.95 16.83,-3.43 37.56,-7.48 54.11,-1.73l6.6 395.07c-26.84,7.95 -32.26,6.23 -43.56,29.89 -8.31,17.42 -6.62,38.4 -16.68,53.3 -35.95,18.65 -62.92,5.8 -67.87,-35.07 0.31,-1.3 67.94,-52.65 15.02,-170.6 5.87,-12.27 18.18,-26.92 27.2,-38.81 10.31,-13.58 15.58,-23.89 25.86,-36.14 0.55,14.06 -11.32,209.51 -2.06,187.62 0.26,-0.62 1.09,2.59 1.85,3.76 9.38,-16.08 7.46,-26.63 7.35,-46.34zm71.41 49.79c-12.77,-21.27 -11.92,-342.36 -17.08,-395.41 26.7,-0.79 33.05,-4.01 42.25,18.62 12,29.56 1.63,231.27 9.37,293.69 3.91,31.55 -11.76,69.09 -34.54,83.1zm-568.21 -272c94.77,-34.21 174.37,-116.02 232.21,-137.62 -9.67,18.1 -26.26,30.08 -26.46,48.29 49.45,3.35 88.04,-18.21 131.62,-18.29 -8.35,17.3 -17.61,20.65 -22.1,44.97 32.16,1.84 89.17,-33.5 124.85,-39.01 -6.46,34.08 -23.98,72.5 -41.73,97.14 -34.04,47.26 -24.14,39.05 -89.17,48.7 -10.85,-39.09 -85.56,-130.69 -143.89,-129.54 -7,37.35 6.72,87.19 26.1,111.13 21.24,26.22 70.64,48.28 85.57,60.73l-18.15 10.29c-38.43,13.76 -101.33,23.47 -134.44,9.04 -144.46,-62.95 -127.03,-46.03 -124.41,-105.83zm1736.53 15.42c13.98,-26.11 9.36,-54.22 33.98,-91.78 62.46,-95.3 30.32,-122.3 61.48,-183.57 11.12,-21.85 34.75,-61.81 56.49,-63.49 4.73,22.65 -25.06,67.35 -33.52,90.85 -14.35,39.86 -4.27,82.5 -15.35,107.27 -16.72,37.38 -71.24,72.67 -67.31,150.6 0.83,16.32 0.32,14.05 7.37,22.8 59.36,26.3 296.99,-104.36 368.09,-92.64 -1.57,21.73 -12.21,19.94 -31.36,29.5 -44.57,22.23 -80.26,34.99 -129.08,50.17 -95.51,29.68 -118.2,24.65 -176.4,38.45 -38.3,9.08 -25.61,29.32 8.69,47.98 17.9,9.74 28.56,20.69 44.13,30.28 34.33,21.14 74.34,16.83 109.86,34.57 32.6,16.27 47.48,40.34 91.22,57.62 34.66,13.69 85.7,13.42 80.99,59.49 -24.16,1.58 -29.48,-19.22 -100.07,-36.01 -40.09,-9.53 -51.01,-35.64 -84.87,-55.32 -32.9,-19.13 -67.29,-23.45 -101.36,-38.75 -49.73,-22.32 -64.82,-51.5 -82.18,-54.49 -5.36,19.91 -0.91,61.57 8.26,75.91 13.37,20.91 33.89,15.14 45.94,37.12 10.75,19.61 3.75,45 16.23,66.86 12.61,22.07 27.72,29.28 37.24,46.54 -39.08,-4.92 -63.97,-53.82 -75.35,-91.41 -23.72,-78.3 -41.41,-22.98 -63.02,-103.2 -18.67,-69.31 -30.46,-53.51 -84.98,-81.29 -27.19,-13.86 -68.33,2.71 -94.14,-65.9 21.78,4.45 24.68,16.53 60.26,21.66 33.76,4.88 48.09,17.12 66.67,19.24 -9.08,-33.6 -29.04,-38.5 -27.57,-89.03 0.5,-16.88 1.95,-41 1.24,-57.38 -1.96,-45.36 -49.09,-24.61 -50.51,-122.26 -0.76,-51.62 -14.74,-52.43 -23.34,-90.22 30.59,13.51 41.82,42.84 38.8,82.23 -3.33,43.55 18.17,58.82 36.38,79.59 34.73,39.6 13.15,46.07 17.12,99.38 2.46,33.02 24.89,66.51 49.97,68.63zm-1819.87 -462.59c0,-30.59 1.22,-45.49 31.96,-48.97 12.11,19.23 13.31,35.31 13.37,66.47 0.12,57.29 -7.38,128.32 -12.78,186.21 -16.75,179.79 -60.24,247.82 76.96,173.09 33.82,-18.42 63.2,-36.38 96.6,-56.57 37.19,-22.49 163.31,-112.74 196.78,-115.98 -16.8,31.72 -47.63,59.96 -79.66,79.92 -57.93,36.09 -129.77,89.09 -184.65,121.6 -27.55,16.32 -86.46,37.42 -102.81,48.6 -0.36,35.03 35.43,48.9 65.28,65.43l266.8 120.38c-45.45,19.49 -184.95,-47.76 -195.83,-55.86 -14.23,-10.59 0.55,-9.01 -20.15,-15.34 -9.36,-2.86 -18.24,-1.62 -27.44,-3.61 -24.48,-5.32 -108.24,-69.59 -128.81,-48.95 -14.78,23.65 -26.07,274.95 -49.14,323.06l-20.98 0.15c-12.45,-38.55 35.21,-204.16 33.32,-314.34 -45.26,-25.25 -51.11,-21.07 -108.12,-13.15l-219.01 39.05c-51.21,8.43 -90.23,25.29 -104.5,4.35 3.54,-11.91 -4.96,-7.21 16.78,-13.54l175.27 -39.33c34.53,-7.75 176.09,-32.91 193.24,-47.74 2.27,-32.74 -19.32,-30.64 -38.58,-49.31l-88.9 -77.42c-15.17,-11.8 -32.58,-24.06 -47.29,-35.81 -23.93,-19.11 -190.22,-145.25 -136.62,-171.15 22.38,-6.9 78.37,55.31 95.02,68.38l184.09 148.44c18.83,14.57 69.48,71.67 96.14,67.84 -9.52,-39.86 4.83,-139.5 10.53,-187.21 9.33,-78.17 13.13,-141.13 13.13,-218.69zm590.29 -92.01c9.05,-15.96 67.86,-231.09 86.22,-278.33 14.96,33.12 24.27,111.29 30.44,151.91 6.93,45.58 27.43,114.54 30.33,150.29 45.32,-10.74 75.46,-42.85 106.43,-51.43l-1.12 37.87c26,-3.53 129.57,-51.76 191.88,-63.58 -11.17,17.64 -28.87,37.38 -41.85,53.2 -15.33,18.67 -25.48,31.65 -38.7,48.77 -23.64,30.65 -71.56,83.54 -71.14,110.58 41.26,21.02 201.29,50.94 236.87,76.74l-232.9 56.88c-12.88,-12.41 -28.69,-35.73 -45.72,-42.94 11.53,25.5 64.61,78.99 86.11,108.96 13.37,18.65 28.35,40.53 41.71,58.89 11.36,15.62 34.94,41.18 41.27,54.47 -53.45,-5.53 -127.89,-47.98 -166.04,-49.07l-3.37 6.91c-0.42,0.99 -1.01,2.36 -1.42,3.4l-3.96 12.48c-32.46,-16 -78.91,-47.47 -92.75,-49.03l-0.07 98.1c-17.31,-5.37 -44.93,-45.9 -53.89,-63.96 -8.69,-17.52 -7.29,-25.9 -32.48,-27.16 -135.01,-6.76 -159.38,41.73 -235.27,55.75 8.35,-14.06 21.96,-19.76 20.65,-44.69 -24.56,-3.06 -94.98,17.3 -129.58,20.36l130.82 -150.89c-23.53,-22.51 -226.74,-43.24 -293.38,-87.48 46.13,-24.17 222.79,-26.72 288.73,-72.68 -4.46,-22.68 -59.81,-106 -78.42,-134.2 -10.47,-15.87 -19.43,-22.12 -25.82,-43.42 40.06,7.2 84.54,26.28 119.24,41.92 41.81,18.84 17.61,87.76 52.43,110.19 -5,-65.7 -31.21,-138.93 -45.83,-198.34 11.91,7.65 20.54,16.37 33.67,25.95l63.47 50.33c7.2,5.84 9.49,9.19 15.96,14.65 13.25,11.17 -0.33,6.54 17.48,8.6zm-9.73 -17.89c-22.4,-23.17 -40.16,-37.03 -67.38,-57.98 -17.27,-13.3 -54.44,-52.02 -71.66,-54.22 -6.04,14.81 19.84,84.57 24.55,108.06 -34.35,-5.04 -106.64,-52.05 -148.97,-45.38 -3.73,40.57 91.22,140.2 105.28,185.67 -56.75,32.69 -281.49,51.15 -303.54,74.36 5.76,19.66 35.96,22.82 56.06,30.59 22.37,8.65 43.3,15.97 68.6,23.22 33.45,9.59 119.11,21.27 141.84,38.11 -32.36,12.52 -141.77,85.58 -176.31,108.71l-133.04 81.38c-27.62,14.58 -26.77,17.26 -51.39,8.16l23.58 -233.21c2.99,-38.75 6.41,-78.85 8.76,-118.1 2.93,-49.17 9.4,-77.63 -26.74,-102.26 -46.53,5.86 -40.87,38.09 -42.34,84.66 -1.34,42.68 -3.4,84.38 -6.37,126.78 -5.4,77.07 -15.82,156.91 -22.25,236.63 -14.28,-4.88 -37.29,-26.72 -46.79,-35.77 -71.43,-68.05 -156.73,-119.78 -227.76,-187.87 -14.01,-13.44 -70.35,-79.36 -98.54,-45.68 -32.73,39.13 28.45,82.69 45.83,98.45 31.91,28.96 49.97,52.11 86.83,79.38 35.6,26.32 62.68,47.65 92.63,73.72 14.11,12.28 81.31,64.74 87.86,78.68 -19.32,12.05 -157.38,36.97 -194.93,46.41 -42.61,10.71 -166.27,32.82 -190.64,48.64 -5.5,67.43 101.76,25.52 148.01,18.01 56.43,-9.17 117.07,-23.54 172.4,-30.39 -21.65,105.81 -29.18,146.59 93.82,147.18 3.82,24.81 -55.14,196.18 18.28,176.97 20.94,-5.48 17.63,-30.23 20.99,-54.87 6.03,-44.24 14.16,-84.34 20.55,-128.11 56.52,-7.9 29.09,1.26 51.47,33.87 7,10.19 18.33,21.69 34.73,24.04 25.89,3.72 45.84,-8.05 60.98,-23.88 12.91,-13.49 0.97,-8.1 17.76,-13.86 56.17,0 121.3,1.43 175.3,-7.71 64.13,-10.86 90.6,-31.38 141.07,-48.35 0.21,28.61 15.02,83.61 3.43,105.12 -9.53,6.25 -60.83,2.67 -86.96,14.07 -73.18,31.96 -108.95,116.76 -138.03,167.78 -15.2,-16.62 -37.83,-35.14 -70.48,-41.94 0.85,53.18 18.74,111.35 16.6,119.75 -6.38,25.07 -7.14,11.32 -5.01,43.47 -33.1,14.86 -101.79,108.64 -126.35,144.51 -31.64,46.22 -81.11,119.96 -86.93,188.77 -30.93,16.66 -46.85,38.52 -83.03,56.86 -72.77,36.88 -114.69,55.6 -166.46,118.02 -53.43,64.42 -23.83,26.95 -19.94,98.05 -16.73,10.04 -30.57,21.97 -45.34,33.47 -18.78,14.64 -34.65,18.9 -34.83,51.1 41.72,-2.72 72.83,-35.84 104.92,-51.41 22.91,-11.13 30.95,3.02 51.87,13.74 17.31,8.87 38.3,13.92 55.61,23.61 -8.24,34.32 -41.55,59.5 -21.16,99.46 39.97,11.53 50.82,-21.79 60.58,-52 51.31,-6.76 59.91,-6.05 84.04,-41.7 17.52,-25.86 28.71,-57.83 39.72,-91.77 9.64,-29.7 18.23,-74.49 28.72,-102.18 30.76,-81.17 144.51,-80.55 213.98,-306.51l28.62 -103.22c47.37,-17.04 56.28,-25.7 42.19,-75.63 53.19,-32.63 150.14,-157.06 202.84,-173.6 18.3,-5.74 32.77,1.92 51.92,-9.11l35.43 -32.95c10.01,133.18 7.14,269.8 17.06,398.76 3.62,47.11 -1.08,27.35 -6.93,57.87 -7.33,38.24 20.57,25.32 19.82,73.89l-0.01 126.86c0,24.83 -14.76,41.88 -23.95,64.48 -17.13,42.13 -39.42,136.21 -39.43,136.23 -17.82,38.88 -18.12,25.27 3.5,61.74 -22.65,53.82 -92.76,79.61 -138.85,108.44l-20.91 18.42c19.99,14.22 28.1,7.53 52.48,8.32 21.89,0.7 29.62,7.78 56.71,4.95 32.55,-3.39 58.06,-21.95 97.45,-25.81 -34.6,41.08 -3.69,41.77 6.45,67.9 -38.46,0.31 -84.4,-6.65 -106.95,14.86 4.13,46.52 46.95,77.6 98.9,80.09 -3.83,43.94 -24.24,51.86 -10.21,114.42 78.04,9.37 142.13,6.89 220.79,6.65 43.86,-0.13 34.1,-38.55 34.05,-74.53 -0.05,-34.15 -39,-39.84 -54.33,-56.87 13.96,-10.63 18.36,-18.68 20.91,-34.92 0.57,-3.62 0.41,-4.58 1.06,-7.76 6.39,-31.45 53.08,-17.04 76.67,-19.12 1.8,-6.22 0.86,-6.63 3.18,-13.48l5.97 -13.37c13.67,5.1 37.94,9.47 46.89,-0.73 10.23,-13.76 -10.34,-26.19 -17.44,-45.36 -8.95,-24.13 -13.15,-34.88 -33.02,-45.36 -17.26,-9.1 -42.51,-12.03 -63.37,-15.69 -11.61,-2.03 -21.5,-3.55 -33.76,-5.19 -25.98,-3.48 -17.52,0.82 -32.79,-8.99 1.46,-26.21 -0.08,-18.1 24.58,-25.74 13.82,-4.28 22.29,-7.58 32.31,-18 0.46,-18.21 -5.45,-30.38 -16.07,-38.56 -47.4,-36.49 -40.67,41.88 -37.69,-123.29 1.61,-88.65 -1.49,-60.29 63.7,-149.74 14.61,-20.05 26.87,-51.12 39.53,-67.36 12.75,14.65 11.11,32.46 22.64,46.58 14.38,17.62 32.16,12.84 47.91,26.56 68.3,59.48 88.55,9.95 86.87,-0.4 -9.05,-16.98 -17.22,-13.66 -27.16,-33.11 -8.35,-16.33 -6.07,-29.52 -17.55,-43.69 -9.27,-11.44 -21.9,-15.01 -35.42,-25.82 -12.15,-9.71 -21.43,-21.78 -32.68,-32.98 16.59,-42.67 37.93,-67.34 51.76,-119.08 13.03,-48.75 19.34,-99.3 17.67,-152.29 -1.57,-50.14 -11.35,-99.37 -26.68,-143.13 -17.45,-49.84 -37.41,-77.19 -56.73,-119.17 13.92,-32.69 37.93,-68.89 31.03,-115.2 104.82,19.82 211.53,52.02 319.07,38.77 27.67,-3.41 16.85,0.02 37.11,3.7 40.11,7.29 39.32,-10.52 83.86,5.35 88.55,31.56 169.01,99.22 299.32,-7.58 18.42,-15.09 31.01,-40.35 49.52,-55.48 16.09,-13.15 56.51,-16.01 77.99,-28.48l3.77 5.8c14.97,23.4 28.59,22.64 41.53,37.83 10.38,12.18 15.73,45.86 23.92,63.55 10.14,21.91 60.98,99.02 90.41,62.04 7.04,-23.54 -16.31,-30.42 -28.5,-45.14 -18.66,-22.52 -8.67,-34.47 -15.57,-63.4 -11.22,-47.06 -59.84,-26.88 -62.58,-94.51 28.99,18.38 42.86,33.1 83,47.9 60.33,22.25 87.95,27.06 132.75,68.66 17.41,16.18 26.25,11.39 51.05,18.72 16.45,4.86 32.41,13.88 45.39,20.52 14.97,7.65 37.46,24.33 51.54,11.37 11.6,-16.54 9.57,-36.59 -3.52,-50.69 -12.56,-13.52 -29.21,-14.32 -52.31,-22.12 -47.29,-15.97 -61.62,-34.73 -93.41,-55.3 -30.48,-19.71 -70.51,-27.42 -109.98,-38.76 -23.36,-6.71 -28.46,-16.09 -48.07,-26.33 -21.9,-11.45 -35.31,-10.46 -41.99,-30.55 12.19,-5.85 84.81,-15.26 104.95,-19.68 67.77,-14.89 130.22,-35.07 191.96,-62.28 34.92,-15.39 67.82,-20.24 57.38,-63.99 -73.83,-23.24 -256.05,90.15 -371.25,90.82 -2.08,-121.27 57.51,-94.61 70.52,-173.2 7.49,-45.27 -3.23,-60.8 15.36,-107.97 11.52,-29.23 41.72,-51.44 26.13,-88.49 -35.66,-13.01 -53.89,23.07 -71,48.22 -37.21,54.72 -15.05,108.53 -63.16,190.57l-42.13 89.23c-55.39,-57.57 15.52,-96.35 -49.2,-163.97 -45.92,-47.96 -13.59,-37.42 -23.58,-93.43 -4.66,-26.14 -31.6,-60.6 -53.43,-67.55 -34.05,19.36 -5.96,40.2 2.48,73.25 7.75,30.35 1.69,72.45 14.23,95.45 15.27,27.99 40.04,38.4 41.83,68.95 2.96,50.38 -8.12,48.7 6.34,105.1 -67.38,4.72 -61.09,-21.68 -107.31,-24.33l-1.6 15.52c-0.3,1.19 -0.79,2.54 -1.12,3.64l-2.99 6.98c-139.31,0.59 -142.7,95.65 -244.86,102.24 4.93,-27.93 16.59,-44.09 16.66,-77.36 0.17,-83.9 -53,-58.65 -82.28,-4.41 -14.69,27.22 -17.14,48.05 -17.19,82.72 -88.59,8.98 -220.41,32.2 -297.32,-25.49 43.43,-19.53 93.29,-86.23 52,-131.96 -12.46,-13.81 -21.03,-15.62 -35.7,-34.36 -26.5,-33.85 -107.88,-124.72 -121.73,-158.64 39.37,-13.24 89.08,-22.91 132.22,-32.71 22.5,-5.11 45.48,-10.59 67.6,-15.63 20.67,-4.71 51.42,-7.27 60.44,-20.93 -31.52,-32.57 -229.39,-62.03 -263.84,-87.49 8.6,-18.65 28.78,-42.58 40.65,-58.87 28.56,-39.21 55.06,-79.55 90.02,-111.26 13.85,-12.56 37.37,-37.05 44.42,-59.28 -22.09,2.67 -83.93,25.98 -108.52,34.4 -33.34,11.41 -77.89,31.74 -108.68,38.73l7.22 -42.26c-25.41,2.69 -79.27,46.57 -115.14,54.99 -25.69,-90.56 -32.16,-191.04 -54.38,-283.53 -4.58,-19.05 -4.01,-24.17 -20.13,-26.74 -32.55,35.16 -66.25,261.13 -92.61,287.05z"/>
   <path class="fil2" d="M1311.13 592.05l-38.18 -42.67c1.66,17.31 23.57,37.7 38.18,42.67z"/>
  </g>
 </g>
</svg>
