<?xml version="1.0" encoding="UTF-8"?>
<!DOCTYPE svg PUBLIC "-//W3C//DTD SVG 1.1//EN" "http://www.w3.org/Graphics/SVG/1.1/DTD/svg11.dtd">
<!-- Creator: CorelDRAW 2017 -->
<svg xmlns="http://www.w3.org/2000/svg" xml:space="preserve" width="215.9mm" height="279.4mm" version="1.1" style="shape-rendering:geometricPrecision; text-rendering:geometricPrecision; image-rendering:optimizeQuality; fill-rule:evenodd; clip-rule:evenodd"
viewBox="0 0 21590 27940"
 xmlns:xlink="http://www.w3.org/1999/xlink">
 <defs>
  <style type="text/css">
   <![CDATA[
    .fil8 {fill:#21231E}
    .fil9 {fill:#41413B}
    .fil3 {fill:#767976}
    .fil7 {fill:#8BA5A4}
    .fil0 {fill:#8BA5A4}
    .fil5 {fill:#8C5A39}
    .fil11 {fill:#9F9F9F}
    .fil4 {fill:#BDD4D2}
    .fil6 {fill:#C58244}
    .fil2 {fill:#D6A75A}
    .fil1 {fill:#E6CF91}
    .fil10 {fill:#EBF1F0}
   ]]>
  </style>
 </defs>
 <g id="Capa_x0020_1">
  <metadata id="CorelCorpID_0Corel-Layer"/>
  <path class="fil0" d="M14004.92 10635.02l755.6 1553.51 -733.67 0c-273.31,-525.42 -322.03,-1058.51 -21.93,-1553.51z"/>
  <g id="_2398880972400">
   <g>
    <path class="fil1" d="M15578.12 13796.51c111.25,10.48 64.21,-22.28 168.72,-56.36 147.23,-48 73,39.49 129,4.28 -10.75,-68.57 -9.37,-69.26 -76.56,-107.55 -79.75,0.58 -198.48,85.32 -221.16,159.63z"/>
    <path class="fil1" d="M16712.89 13093.94c57.13,-21.4 72.97,-82.28 67.91,-142.63l-71.88 -13.16 -50.99 112.21c3.38,68.98 -19.09,8.87 54.96,43.58z"/>
   </g>
   <g>
    <path class="fil2" d="M15578.12 13796.51c47.01,132.22 128.05,417.77 176.75,523.31 379.28,5.71 225.56,-481.52 120.97,-575.39 -56,35.21 18.23,-52.28 -129,-4.28 -104.51,34.08 -57.47,66.84 -168.72,56.36z"/>
    <path class="fil2" d="M14647.48 13374.56l16.99 -94.89 -154.48 -165.73 -83.81 37.58c-12.52,20.48 -111.89,208.35 -114.21,239.23 -6.74,89.68 73.6,218.32 147.15,258.25 102.11,-44.04 167.48,-161.8 188.36,-274.44z"/>
    <path class="fil2" d="M15786.48 12741.44l282.81 283.36c88.6,-13.58 21.25,19.74 61.54,-41.44 29.11,-44.21 34.71,-63.57 41.47,-122.05 -39.62,-59.93 -54.59,-73.2 -106.64,-121.73 -66.93,-62.42 -63.99,-87.23 -124.4,-77.63l-87.21 -12.23c-53.81,89.28 -16.94,-23.86 -67.57,91.72z"/>
    <path class="fil2" d="M16712.89 13093.94l0 30.12c196.36,132.51 251.61,238.55 325.13,157.4 108.28,-119.53 -161.52,-298.46 -257.22,-330.15 5.06,60.35 -10.78,121.23 -67.91,142.63z"/>
    <path class="fil2" d="M15293.03 13273.6c8.22,-105.36 15.8,-273.56 -58.98,-336.09l-71.86 -10.18c-40.43,144 -46.19,369.26 24.65,494.65 20.68,-21.29 16.1,-41.54 102.69,-69.57l3.5 -78.81z"/>
    <path class="fil2" d="M14469.54 12842.01c16.48,78.19 -4.88,21.46 54.34,67.62 44.77,34.9 19.53,-4.65 67.41,62.62 22.39,-73.32 -5.27,-5.42 52.33,-41.52 57.46,-37.95 86.81,-92.75 77.27,-165.18 -67.09,-74.12 -35.95,-59.83 -136.7,-78.12l-114.65 154.58z"/>
    <path class="fil2" d="M14497.74 12395.31l32.95 164.91 50.21 -21.29c47.52,-109.84 45.95,-69.46 133.65,-136.81l-38.99 -84.6 -164.17 -40.02 -13.65 117.81z"/>
    <path class="fil2" d="M16169.01 11531.04l-19.93 54.05c80.05,86.71 13.06,58.98 92.95,79.11l77.49 -82.02c-49.69,-59.47 -16.36,-20.87 -67.04,-30.58l31.79 -83.65c-31.97,-27.77 19.95,-45.75 -63.49,2.62l-51.77 60.47z"/>
   </g>
   <g>
    <path class="fil3" d="M9695.52 10564.09c112.94,-30.03 118.75,-118.85 442.43,-77.89 365.3,46.21 299.03,-46.93 509.52,-7.74 -49.68,-93.14 -343.3,-329.24 -434.81,-385.97 -87.9,39.4 -464.04,377.68 -517.14,471.6z"/>
    <path class="fil3" d="M5809.36 12817.47c67.69,60.16 40.66,54.25 27.04,103.6 114.41,-10.76 61.72,79.46 61.75,93.44l64.82 -113.97c-79.7,30.44 -95.14,-55.19 -126.27,-211.75 -57.11,-287.15 -29.16,-803.44 179.85,-931.59 171.83,125.41 168.11,625.84 190.32,827.18l31.37 0 9.55 -51.8c19.96,-167.22 39.41,-239.45 -28.7,-487.43 -38.84,-141.4 -76.19,-275.28 -200.32,-369.47 -259.76,171.9 -312.87,671.47 -246.53,971.72 12.24,55.42 31.62,108.3 37.12,170.07z"/>
    <path class="fil3" d="M7570.52 12921.07l27.22 0c-53.98,-142.97 -120.6,-247.99 -130.78,-413.91l20.07 -385.2c31.33,-111.98 19.4,-65.18 75.05,-114.07l52.75 -92.73c67.58,59.68 221.41,330.3 232.42,421.11 67.87,71.52 80.46,76.68 74.56,301.47 -2.39,91.22 -22.09,208.71 -72.31,282.31 19.71,5.41 67.83,0.61 124.05,54.33 -68.06,59.74 -49.87,22.77 -141.13,62.47 -43.21,18.8 -82.95,45.62 -118.81,67.8 96.11,21.53 4.97,-36.26 101.66,53.23l0.77 -89.95 179.91 -70.68 68.99 -102.08 -141.42 -8.49c-10.1,-134.84 109.24,-327.5 -24.51,-604.89 -57.79,-119.86 -186.66,-416.6 -302.59,-448.49 -165.53,115.64 -223.33,574.61 -143.98,843.26 33.3,112.71 97.33,167.85 118.08,244.51z"/>
    <path class="fil3" d="M8996.14 19654.93l1.6 103.6c173.48,133.05 227.97,361.69 769.02,303.71 102.19,-10.95 9.25,-24.49 130.57,7.08l-21.85 -68.45c-176.85,41.91 -437.89,91.68 -569.57,-51.58l-208.24 -139.09c-70.77,-56.38 -40.52,-7.02 -81.09,-103.47 49.13,-98.56 58.94,-89.63 186.66,-114.31 196.09,-37.89 485.31,8.82 643.76,132.16 76.18,-107.15 21.18,-34.48 89.35,-45.85l-34.88 -52.84c-119.7,69.26 -242.68,-62.22 -414.55,-74.4 -237.49,-16.84 -306.05,-20.94 -490.78,103.44z"/>
    <path class="fil3" d="M11901.37 13253.08l-4.59 82.38c21.04,302.02 394.41,524.49 655.43,388.5 -44.38,-73.1 -21.66,-40.86 -110.38,-87.68l39.95 68.73c-387.07,46.84 -658.75,-257.53 -530.33,-626.99 -56.56,61.79 -53.77,83.65 -50.08,175.06z"/>
   </g>
   <g>
    <path class="fil4" d="M5962.97 12900.54l234.88 -189.08 2.8 -23.48 14.2 -77.7 -7.98 -25.9c-22.21,-201.34 -18.49,-701.77 -190.32,-827.18 -209.01,128.15 -236.96,644.44 -179.85,931.59 31.13,156.56 46.57,242.19 126.27,211.75z"/>
    <path class="fil4" d="M7506.26 9799.16l1177.94 0.53c300.7,-2 335.67,-42.65 337.8,56.47 65.83,-107.52 59.95,-106.02 58.36,-245.98 -81.23,-197.03 -559.82,-28.15 -709.72,-2.33 -337.17,58.1 -421.04,20.31 -535.24,163.64 -101.3,0.53 -251.78,-21.37 -329.14,27.67z"/>
    <path class="fil4" d="M7562.08 12007.89c-60.93,268.21 -129.33,685.28 107.6,875.6l132.33 -8.47c97.73,-158.8 58.31,-361.9 45.24,-538.75 -11.01,-90.81 -164.84,-361.43 -232.42,-421.11l-52.75 92.73z"/>
    <path class="fil4" d="M9097.67 19810.2l208.24 139.09c197.7,19.96 349.91,99.26 525.5,-23.93 58.19,-315.64 -534.51,-347.94 -753.22,-248.57l19.48 133.41z"/>
    <path class="fil4" d="M8792.79 8736.25l54.33 54.08c106.96,-28.8 206.49,-32.39 295.53,-89.11 -144.43,-43.58 -18.2,2.09 -111.48,-63.89 -34.72,-24.56 -47.44,-29.81 -77.87,-50.3 -54.74,-36.86 -95.48,-67.26 -154.14,-103.32 -95.54,-58.73 -234.38,-166.73 -321.51,-183.13l315.14 435.67z"/>
    <path class="fil4" d="M10872.71 13433.3l0.32 53.02 168.35 45.58c81.47,-62.93 105.34,-75.72 109.75,-168.91l-261.24 2.35 -17.18 67.96z"/>
    <path class="fil4" d="M12367.97 15516.9l9.05 102.63 39.71 29.48 53.92 2.74c-14.51,-112.84 -16.7,-165.84 -89.81,-231.35l-12.87 96.5z"/>
   </g>
   <g>
    <path class="fil5" d="M14408.1 11109.8l41.14 101.91c-41.6,77.01 -130.67,162.83 -215.25,161.47 65.95,188.54 -41.71,339.36 45.89,483.33 70.51,115.88 177.67,142.84 232.64,309.88l-38.97 82.07c136.02,-2.73 131.87,-4.22 226.03,-94.24 109.5,49.2 144.98,49.92 230.51,-24.84l-40.66 -9.8c24.89,-190.49 46.54,-509.94 91.78,-673.13 58.74,-211.92 226.95,-282.75 298.24,-493.61l-58.11 15.4 -107.42 -60.74 3.16 -161.85c-153.44,637.77 -322.88,181.16 -362.77,1114.68 -9.67,226.24 -33.66,153.29 -97.35,184.46 -87.31,-105.31 -21.47,-115.22 -112.49,-218.97 -73.9,-84.25 -104.51,-63.39 -111.01,-198.63 -8.54,-177.61 97.84,-398.28 -25.36,-517.39z"/>
    <path class="fil5" d="M15097.53 12189.54l-33.47 23.9c66.41,87.03 98.69,125.94 201.94,143.51l-60.8 -56.64c120.08,-226.01 225.28,-285.49 402.04,-433.83 248.2,-208.29 464.03,3.81 634.79,-202.28 -79.89,-20.13 -12.9,7.6 -92.95,-79.11l19.93 -54.05c-297,122.18 -529.79,-5.5 -708.05,189.58 -62.56,68.46 -149.37,160.71 -204.72,236.58 -46.5,63.76 -95.14,207.79 -158.71,232.34z"/>
    <path class="fil5" d="M5759.47 13032.25l88.54 -67.29c-101.78,-33.56 -68.04,-8.7 -113.41,-127.72 -136.58,-358.3 -145.96,-66.07 -255.45,-371.21 -53.4,-148.82 -39.38,-149.32 -160.37,-244.88 -106.02,-83.74 -113.8,-169.44 -250.76,-119.82 2.61,102.54 113.25,146.09 183.94,212.74 120.58,113.68 58.53,179.48 135.44,279.98 63.34,82.78 143.32,90.59 210.62,206.11 62.88,107.94 45.45,189.3 161.45,232.09z"/>
    <path class="fil5" d="M5014.84 13171.47c116.55,34.31 189.45,-29.84 301.91,-3.88 113.81,26.27 90.32,95.59 231.4,90.19 3.28,-36.28 67.62,-117.65 -190.25,-198.46 -132.23,-41.44 -173.67,46.13 -316.2,-42.78 -126.85,-79.14 -101.06,-117 -267.43,-134.16 -128.32,-13.23 -207.81,-45.91 -196.83,103.77 126.28,32.74 137.82,-25.09 260.35,52.81 57.67,36.67 119.85,115.67 177.05,132.51z"/>
    <path class="fil5" d="M12633.54 21092.95c92.64,-24.28 136.94,-268.89 158.14,-370.06 18.54,-88.49 91.09,-387.95 32.05,-442.22 -268.64,-247 -198.92,738.03 -190.19,812.28z"/>
    <path class="fil5" d="M5348.93 14485.88c178.86,-118.77 137.59,-270 178.33,-420.18 40.52,-149.34 279.43,-202.53 152.03,-393.7 -102.59,10.81 -55.18,62.52 -163.83,172.13 -78.55,79.24 -96.73,103.12 -100.69,216.39 -6.64,189.8 13.06,103.28 -93.08,239.23 -78.4,100.4 -69.48,131.12 27.24,186.13z"/>
    <path class="fil5" d="M6130.21 13830.22l-113.84 -16.12c28.15,232.91 -106.06,296.95 -14.02,498.16 79.58,173.96 -23.82,356.97 130.7,378.17 94.41,-247.82 -28.33,-420.76 -38.48,-456.85 -31.99,-113.8 2.42,-118.79 32.76,-219.55 34.07,-113.17 7.35,-74.45 2.88,-183.81z"/>
    <path class="fil5" d="M13172.2 20173.86l-8.54 -97.33 101.88 -50.47c51.2,50.99 26.23,21.69 74.72,94.93 -27.61,-150.14 -14.12,-310.97 -148.02,-385.14 -221.61,47.4 -101.37,345.19 -20.04,438.01z"/>
    <path class="fil5" d="M11940.3 19762.52c88.56,2 164.33,19.05 143.43,116.2 85.26,-40.35 143.43,-128.26 156.28,-224.37l-84.01 -91.49c-118.35,21.95 -165.4,101.42 -215.7,199.66z"/>
    <path class="fil5" d="M11347.3 20669.87c98.52,36.77 328.62,52.93 400.12,-25.04 -84.95,-39.96 -402.86,-136.51 -400.12,25.04z"/>
    <path class="fil5" d="M6278.06 12664.01c103.26,-5.95 182.44,-96.43 169.75,-197.38 -87.26,-15.86 -65.2,-15.89 -106.11,49.61 -30.41,48.7 -51.42,94.98 -63.64,147.77z"/>
    <path class="fil5" d="M6396.7 13627.04c74.7,54.31 162.22,92.5 256.81,89.49 -57.25,-107.79 -98.03,-75.61 -168.5,-150.04 -47.85,46.65 -28.19,31.11 -88.31,60.55z"/>
    <path class="fil5" d="M6805.19 14020.52c35.59,61.46 82.96,134.71 179.39,127.57 -3.06,-92.39 -79.46,-161.42 -179.39,-127.57z"/>
    <path class="fil5" d="M11250.75 20376.67l89.87 -16.88c-145.72,-87.91 -77.74,4.22 -89.87,16.88z"/>
   </g>
   <g>
    <path class="fil6" d="M14930.09 12129.38c-85.53,74.76 -121.01,74.04 -230.51,24.84 -94.16,90.02 -90.01,91.51 -226.03,94.24 -16.4,86.22 -20.61,91.68 24.19,146.85l13.65 -117.81 164.17 40.02 38.99 84.6c-87.7,67.35 -86.13,26.97 -133.65,136.81 66.88,32.51 26.09,82.16 3.29,148.5 100.75,18.29 69.61,4 136.7,78.12l-19.85 -138.72 83.57 126.54c319.59,54.45 300.68,306.36 338.96,583.01 30.82,222.71 288.37,337.64 454.55,460.13 22.68,-74.31 141.41,-159.05 221.16,-159.63 -60.63,-98.14 -142.92,-121.64 -250.28,-171.23 -179.35,-82.84 -143.84,-43.09 -255.97,-192.05l-3.5 78.81c-86.59,28.03 -82.01,48.28 -102.69,69.57 -70.84,-125.39 -65.08,-350.65 -24.65,-494.65l71.86 10.18c-72.6,-143.81 -172.01,-137.9 -241.31,-235.75l161.99 54.44 95.27 -126.03c210.23,34.33 340.03,42.87 536.48,111.27 50.63,-115.58 13.76,-2.44 67.57,-91.72l87.21 12.23c-163.28,-169.04 -524.69,-156.86 -744.74,-167.46l81.4 -58.44 -11.92 -79.1c-103.25,-17.57 -135.53,-56.48 -201.94,-143.51l33.47 -23.9c7.9,-113.01 -4.21,-124.56 -120.3,-149.01l-47.14 88.85z"/>
    <path class="fil6" d="M15117.08 10745.65l-3.16 161.85 107.42 60.74 58.11 -15.4c29.46,-169.88 -32.83,-323.22 21.92,-533.43 32.29,-123.98 139.3,-354.51 96.39,-458.6 -153.52,-60.23 -248.58,116.07 -279.78,250.19 -40.34,173.45 39.08,366.34 -0.9,534.65z"/>
    <path class="fil6" d="M16220.78 11470.57c83.44,-48.37 31.52,-30.39 63.49,-2.62l-31.79 83.65c50.68,9.71 17.35,-28.89 67.04,30.58 134.51,-91.69 104.51,-184.83 280.95,-251.75 142.42,-54.01 291.34,-63.29 409.8,-105.61 5.98,-72.76 -2.17,-75.03 -42.06,-130.88 -369.97,-84.7 -595.77,61.5 -747.43,376.63z"/>
    <path class="fil6" d="M7292.99 21493.79c96.46,74.58 356.28,126.49 463.68,76.64 41.75,-103.28 37.27,-212.26 -6.79,-312.61 -124.68,-11.67 -417.85,105.28 -456.89,235.97z"/>
    <path class="fil6" d="M14233.99 11373.18c84.58,1.36 173.65,-84.46 215.25,-161.47l-41.14 -101.91c0.62,-103.26 -132.27,-247.45 -236.1,-265.25l-100.03 96.16 162.02 432.47z"/>
    <path class="fil6" d="M6737.94 21338.26l-79.57 44.08c-22.31,133.07 362.62,190.21 462.06,153.29 40.23,-112.25 38.69,-199.95 -3.96,-311.34 -125.6,-14.83 -264.93,63.75 -378.53,113.97z"/>
    <path class="fil6" d="M16069.29 13024.8c74.31,85.39 158.95,72.94 280.7,70.16 162.51,-3.72 203.34,-8.28 362.9,29.1l0 -30.12c-74.05,-34.71 -51.58,25.4 -54.96,-43.58l50.99 -112.21 71.88 13.16c-24.64,-66.92 -442.74,22.26 -608.5,-90 -6.76,58.48 -12.36,77.84 -41.47,122.05 -40.29,61.18 27.06,27.86 -61.54,41.44z"/>
    <path class="fil6" d="M12083.73 19878.72c20.9,-97.15 -54.87,-114.2 -143.43,-116.2 -104.33,115.41 -227.82,335.62 -252.67,486 110.68,-31.89 354.87,-267.96 396.1,-369.8z"/>
    <path class="fil6" d="M14426.18 13151.52l83.81 -37.58 154.48 165.73 -16.99 94.89c88.56,-164.06 -21.88,-240.79 -3.86,-443.83 -57.6,36.1 -29.94,-31.8 -52.33,41.52 -47.88,-67.27 -22.64,-27.72 -67.41,-62.62 -59.22,-46.16 -37.86,10.57 -54.34,-67.62 -102.31,76.65 -44.28,179.9 -43.36,309.51z"/>
    <path class="fil6" d="M13172.2 20173.86c21.99,115.71 104.66,276.72 205.99,311.92l-37.93 -364.79c-48.49,-73.24 -23.52,-43.94 -74.72,-94.93l-101.88 50.47 8.54 97.33z"/>
    <path class="fil6" d="M10125.75 21286.85c-76.06,-55.8 -299.58,-122.93 -396.62,-75.25l-7.97 106.38c119.62,21.84 309.13,25.47 404.59,-31.13z"/>
   </g>
   <g>
    <path class="fil7" d="M9072.69 11907.26l55.74 15.8c-79.68,-127.14 -50.56,-69.19 -107.72,-211.9 -259.95,241.98 -834.74,-204.66 -776.43,-496.35 218.63,-19.04 579.78,70.19 748.91,231.11 133.24,126.77 24.36,119.64 220.57,108.41 -7.94,134.11 -21.46,62.28 46.26,130.82l-13.74 -188.55c-244.12,0 -35.94,-25.15 -381.38,-206.61 -113.39,-59.56 -252.73,-104.43 -387.9,-104.18 25.45,-67.11 -23.44,-18.23 166.36,-144.44l554.38 -369.11c6.01,106.2 -27.67,138.72 -17.02,276.01 112.16,-18.82 183.99,-117.14 285.43,-176.85l0 -38.03c-121,42.56 -116.84,69.44 -211.44,136.53 -40.51,-77.28 115.54,-637.72 98.82,-819.41 -41.12,88.72 -67.31,272.48 -89.27,387.75 -24.85,130.39 -113.61,179.52 -217.04,255.54 -140.15,103 -412.94,335.93 -567.09,366.52 13.12,-80.33 490.31,-1130.99 541.87,-1204.16 -2.13,-99.12 -37.1,-58.47 -337.8,-56.47l-1177.94 -0.53 -73.41 -36.95c110.37,-88.44 834.73,-514.06 957.52,-554.19 173.12,-56.58 796.86,383.07 1009.23,438.38 -92.4,-155.41 -1040.86,-505.79 -1230.12,-662.32 207.77,-134.68 926.43,-154.29 1108.93,-282.04l-135.76 -0.82c-89.04,56.72 -188.57,60.31 -295.53,89.11l-54.33 -54.08c-66.42,-35.13 -586.54,-657.07 -729.69,-814.57 -64.96,-71.47 -63.07,-46.54 -78.49,-127.61 312.67,72.13 1270.82,470.15 1387.64,480.08 25.31,-304.63 59.24,-613.57 68.13,-921.59 6.87,-238.42 20.91,-660.27 69.46,-878.47 37.76,27.19 10.07,-7.14 54.82,55.42 0.71,1 26.75,48.35 27.21,49.26l578.41 1239.93c-0.91,124.94 -187.82,301.05 -188.62,466.09 145.52,-123.57 521.28,-1039.4 669.06,-1105.14 56.01,123.26 12.66,1215.14 18.9,1456.35 5.41,-6.7 11.62,-14.78 14.75,-21.21 32.42,-66.73 32.05,-17.49 30.83,-174.44 -0.5,-64.02 -6.79,-135.92 7.28,-195.68 36.78,-156.22 650.22,-433.19 783.22,-458.09l-224.01 690.74 -241.53 64.74c219.26,25.62 1077.31,-147.14 1486.98,-112.39 -12.24,37.1 -8.21,31.18 -31.26,62.17l-288.12 235.18c-219.44,155.1 -917.1,666.99 -1093.53,707.69l7.75 67.59 126.83 -30.36 546.92 544.93c100.71,80.12 145.8,101.49 183.53,196.51l-889.55 -65.26c-43.43,-89.75 -55.44,-489.3 -150.78,-609.47 -27.78,76.28 183.87,1044.17 187,1267.45 -117.77,-24.35 -104.29,-57.81 -209.83,-109.5 46.06,46.63 41.21,38.64 68.84,100.72 77.22,35.53 105,104.61 207.06,125.06 9.77,-127.27 -80.17,-542.41 -68.82,-690.41 74.16,-5.76 153.6,-7.31 229.65,-5.53 230.8,5.4 272.92,57.23 719.75,22.55 -27.8,-137.78 -662.07,-628.07 -794,-815.46 78.39,-79.39 254.27,-174.85 359.16,-240.97 191.83,-120.89 569.88,-363.76 730.68,-512.49 78.41,-72.52 297.71,-199.2 285.68,-299.81 -161.25,-57.71 -1246.6,59.2 -1295.53,86.11 13.8,-128.82 234.94,-666.72 208.31,-758.93 -69.72,-20.26 -4.04,-29.68 -102.71,14 -177.55,78.6 -645.85,361.03 -731.12,378.41l-32.06 -1054.59c-135.77,24.84 -339.14,509.58 -488.73,700.36 -141.34,-226.73 -595.15,-1335.17 -725.18,-1428.91 -63.46,125.29 -64.13,237.67 -77.12,414.97l-78.28 1475.69c-96.28,-23.32 -241.88,-86.46 -336.87,-129.31l-1113.5 -362.78c13.38,153.94 316.18,411.6 414.39,543.89 127.07,171.15 303.67,330.33 436.93,509.02 -97.57,71.24 -521.64,93.07 -666.66,199.24 86.32,116.43 195.52,91.54 286.58,197.66 -114.34,89.13 -584.12,316.61 -807.76,466.92 -117.72,79.12 -222.25,77.39 -233.27,207.03l1653.13 0.13c-24.6,127.74 -511.62,996.25 -569.79,1316.3l-212.13 11.33c-63.3,203.46 288.29,773.96 788.58,638.38l101.38 102.08z"/>
    <path class="fil7" d="M7597.74 12921.07l-1.32 21.93 31.69 64.32c-94.97,116.02 -155.49,193.5 -144.36,354.8 10.34,149.89 112.89,217.06 160.01,335.94 488.12,197.09 507.81,-82.51 696.59,-72.32l313.51 24.96c6.56,83.5 -3.78,147.08 71.73,191.97l83.57 -149.79c307.58,-10.12 314.17,-33.66 394.15,63.1 176.86,-111.78 44.58,-38.89 226.22,-61.62l76.23 -25.5c112.53,-33.35 197.74,3.4 289.34,82.95 80.83,70.19 111.54,60.25 204.02,101.51 -35.23,-108.87 28.36,-21 -74.03,-102.3 -175.78,-139.57 -531.32,-165.12 -777.52,-258.46 -375.15,-142.23 -525.65,-430.49 -661.97,-523.42l9.4 48.62 -69.67 6.98c89.42,78.87 79.96,24.54 150.26,108.75 53.33,63.89 46,59.31 110.67,122.39 94.6,92.3 85.85,227.36 22.85,331.99 -201.55,45.68 -384.32,-34.24 -565.48,-96.88l11.73 87.47c-285.68,79.35 -240.25,-16.09 -411.71,-132.04 -184.46,-124.75 -121.97,-186.81 -30.04,-341.77 35.86,-22.18 75.6,-49 118.81,-67.8 91.26,-39.7 73.07,-2.73 141.13,-62.47 -56.22,-53.72 -104.34,-48.92 -124.05,-54.33 50.22,-73.6 69.92,-191.09 72.31,-282.31 5.9,-224.79 -6.69,-229.95 -74.56,-301.47 13.07,176.85 52.49,379.95 -45.24,538.75l-132.33 8.47c-236.93,-190.32 -168.53,-607.39 -107.6,-875.6 -55.65,48.89 -43.72,2.09 -75.05,114.07l-20.07 385.2c10.18,165.92 76.8,270.94 130.78,413.91z"/>
    <path class="fil7" d="M8218.01 16657.48c58.58,-53.23 72.91,-117.17 157.88,-135.25 3.21,-0.68 294.58,-4.34 310.35,-3.26 138.09,9.46 106.28,56.32 190.14,96.58 237.12,113.86 245.53,-85.53 241.28,250.15 209.82,-30.88 338.79,-134.17 602.51,-131.39 147.27,-127.75 82.12,-347.2 -103.59,-370.9l-282.53 55.55 -79.94 -52.46c44.35,112.66 26.84,188.53 -31.68,290.95 -293.79,-151.5 -101.71,-122.55 -560.2,-212.94 -297.11,-58.57 -366.28,16.4 -627.62,76.06 -494.11,112.81 -995.08,-252.34 -1006.46,-466.37 623.81,-344.9 1027.88,-2.51 1215.75,61.53 -191.67,-357.51 -1018.31,-327.73 -1290.53,-51.94 400.61,720.64 1121.66,502.49 1137.36,506.88l127.28 86.81z"/>
    <path class="fil7" d="M9097.67 19810.2l-19.48 -133.41c218.71,-99.37 811.41,-67.07 753.22,248.57 -175.59,123.19 -327.8,43.89 -525.5,23.93 131.68,143.26 392.72,93.49 569.57,51.58l21.85 68.45c5.87,36.74 -2.74,30.16 30.04,9.84 477.42,113.72 324.58,69.76 776.98,-17.45 196.16,-92.56 156.99,-336.32 -23.21,-432.68 -89.06,222.01 -156.15,132.16 -356.13,162.47 -115.22,17.47 -318.64,-13.7 -388.66,-112.77 -68.17,11.37 -13.17,-61.3 -89.35,45.85 -158.45,-123.34 -447.67,-170.05 -643.76,-132.16 -127.72,24.68 -137.53,15.75 -186.66,114.31 40.57,96.45 10.32,47.09 81.09,103.47z"/>
    <path class="fil7" d="M11901.37 16208.7c106.27,19.17 181.59,73.19 216.55,171.39 -85.47,-8.34 -179.31,-86.08 -216.55,-171.39zm437.75 -801.41c-12.86,115.84 -8.7,55.93 28.85,109.61l12.87 -96.5c73.11,65.51 75.3,118.51 89.81,231.35l-53.92 -2.74c80.56,138 212.35,250.1 37.64,397.86 -103.17,32.71 -133.25,-0.09 -205.26,28.87 -42.98,17.3 -56.17,62.61 -125.25,82.64 -149.77,43.42 -170.88,-55.78 -305.83,-91.28 0,144.65 -13.3,181.27 96.15,280.14 88.89,80.29 167.09,119.35 289.42,122.06 79.29,-92.36 430.23,-70.29 533.94,-414.39 51.22,-265.21 -31.88,-229.59 -161.42,-369.6 -90.54,-97.86 -15.34,-234.21 -197.18,-351.15l-39.82 73.13z"/>
    <path class="fil7" d="M10843.32 13309.56c-2.05,93.55 -19.77,60.57 29.39,123.74l17.18 -67.96 261.24 -2.35c-4.41,93.19 -28.28,105.98 -109.75,168.91l-168.35 -45.58c-8.39,177.3 -389.26,223.4 -539.98,217.54l-51.69 -83.5 -33.59 61.02 -79.91 16.68 -7.27 207.19 71.29 -22.59c40.18,94.25 39.05,91.56 135.78,100.31 118.35,-30.43 217.74,-22.73 346.86,-65.43 101.37,-33.52 205.38,-96.73 300.63,-120.64 111.14,-148.65 -11.42,-119.58 108.92,-248.92 76.96,-82.72 126.75,-113.94 119.73,-233.98 -194.38,-70.5 -234.71,-8.54 -400.48,-4.44z"/>
    <path class="fil7" d="M11254.91 11444.8l69.47 74.61c134.25,-198.28 291.92,-598.89 900.66,-480.33 27.66,284.82 -415.55,578.16 -676.17,635.79 -261.9,57.92 -213.09,-154.34 -523.78,-34.23 -210.59,81.42 -238.05,186.47 -308.28,342.41l-65.07 -70.57 67.07 153.91 74.7 25.9 -18.98 -156.67c202.15,-244.33 166.69,-57.16 322.34,-176.22 195.02,-149.18 161.87,-18.9 306.77,63.28l31.98 -87.86c236.5,-19.17 395.49,-67.06 578.04,-223.88 134.27,-115.35 319.69,-304.28 253.54,-515.31 -619.78,-204.81 -913.71,402.16 -1012.29,449.17z"/>
    <path class="fil7" d="M13890.11 12647.13c70.08,221.79 25.16,357.3 258.87,506.03 126.86,48.88 42.13,59.84 207.06,64.63 17.5,-157.53 50.22,-258.39 -60.93,-392.53 -102.74,-124.01 -107.2,-283.21 -91.38,-440.9 -72.98,72.02 -50.92,79.13 -56.61,202.52l-177.48 98.85c-21.88,-140.96 21.07,-182.47 62.65,-311.29 -124.54,100.16 -63.41,201.56 -142.18,272.69z"/>
    <path class="fil7" d="M5759.47 13032.25c-70.93,141.79 -131.01,204.16 -111.2,381.96 21.47,192.76 87.33,204.04 173.04,335.64 40.57,54.05 67.08,64.58 143.44,65.03l51.62 -0.78 113.84 16.12c-90.7,-227.26 -155.49,-123.56 -175.75,-460.83 -133.56,-107.05 -149.08,-198.44 -56.31,-354.88 -0.03,-13.98 52.66,-104.2 -61.75,-93.44l14.26 0 -2.65 43.89 -88.54 67.29z"/>
    <path class="fil7" d="M11991.06 13030.25c-45.79,15.73 -30.09,-28.77 -39.61,47.77 -128.42,369.46 143.26,673.83 530.33,626.99l-39.95 -68.73c-219.43,-79.3 -175.86,-135.32 -175.24,-327.15 -87.91,-66.5 -102.98,-99.79 -114.17,-211.3 66.69,-153.33 145.95,-134.79 210.06,-254.33 -211.03,91.54 -280.24,228.71 -372.42,262.77l1 -76.02z"/>
    <path class="fil7" d="M7803.61 20725.39l68.18 -34.48c-128.6,-29.16 -320.52,44.48 -489.23,2.92 -152.89,-37.67 -284.7,-119.59 -369.83,-238.99 45.62,-174.83 283.51,-295.94 448.57,-358.09 340.8,-128.29 457.56,-3.76 724.23,-7.8l-132.64 -87 75.24 -34.5c0,-44.28 9.67,-30.43 -39.62,-30.43 -105.31,34.46 -42.48,55.01 -152.05,52.52 -84.14,-1.91 -188.63,-73.74 -537.36,63.76 -168.12,66.29 -403.76,234.96 -450.17,404.51 175.53,270.74 526.16,389.82 854.68,267.58z"/>
    <path class="fil7" d="M12296.94 12739.78l-19.71 57.74 99.98 -20.21c-41.57,-86.23 -44.99,-9.24 -42.92,-166.01 5.12,-388.51 480.92,-926.6 623.06,-987.85 69.52,152.16 6.85,379.49 -14.43,546.87 40.39,0 31.96,11.05 31.96,-26.23 80.25,-123.44 85.52,-448.22 10.84,-572.01 -176.61,20.97 -389.22,309.96 -484.11,452.71 -148.94,224.06 -258.57,432.71 -204.67,714.99z"/>
    <path class="fil7" d="M6396.7 13627.04c60.12,-29.44 40.46,-13.9 88.31,-60.55l23.63 -22.08c75.21,-169.42 -9.95,-280.61 -25.9,-432.87 -67.65,24.05 -205.86,207.99 -258.41,275.62 36.64,94.47 91.62,182.95 172.37,239.88z"/>
    <path class="fil7" d="M14744.67 13239.27c87.2,18.74 62.3,18.12 156.38,-31.85 55.07,-29.26 78.09,-45.83 126.53,-79.15 24.2,-103.39 40.68,-90.19 -32.07,-169.54l-296.5 83.81 45.66 196.73z"/>
    <path class="fil7" d="M13941.78 10949.87c68.53,-53.26 31.63,21.39 69.71,-107.84 12.33,-41.87 18.2,-84.99 32.02,-131.13 25.56,-85.37 44.78,-136.81 107.06,-196.25 123.31,65.12 154.24,246.34 226.06,362.69l-45.48 -2.19c31.4,70.03 56.55,116.78 128.62,145.9 -17.66,-167.94 -156.65,-490.9 -301.91,-581.88 -150.82,96.99 -216.08,332.12 -216.08,510.7z"/>
    <path class="fil7" d="M12465.51 18782.2c111.19,-2.6 112.45,-3.63 181.73,-85.42l-105.63 37.32c65.72,-309.52 309.34,-302.2 575.88,-284.55 -75.51,-66.99 -141.49,-56.68 -256.14,-46.7l-85.04 0.24c-189.49,48.39 -272.56,195.06 -310.8,379.11z"/>
    <path class="fil7" d="M8950.17 20012.95c220.44,6.71 140.45,280.48 71.81,341.78 -50.84,45.39 -44.1,2.63 -118.31,86.74l117.22 -25.3c62.13,-51.37 52.1,-14.77 86.36,-78.6 10.25,-19.12 40.28,-144.45 40.22,-165.04 -0.4,-124.59 -62.89,-181.53 -164.51,-232.71l-32.79 73.13z"/>
    <path class="fil7" d="M8347.5 12728.43l87.38 97.64c-27.07,-135.69 -60.08,-117.24 -39.76,-271.76 132.99,-14.53 174.62,16.75 300.76,32.49l-94.67 -80.12 -237.08 6.07 -16.63 215.68z"/>
    <path class="fil7" d="M12854.01 13348.23l0 -130.64c-88.39,-4.48 -135.39,15.16 -204.77,69.37 60.45,62.79 113.34,72.2 204.77,61.27z"/>
    <path class="fil7" d="M13414.87 18924.74c25.13,68.7 13.82,50.85 86.62,77.32 44.98,-167.96 37.18,-206.02 -25.9,-364.69l-50.46 -9.81c40.26,106.84 57.29,158.27 54.97,288.98l-65.23 8.2z"/>
    <path class="fil7" d="M10014.79 14112.45c108.34,-70.35 151.49,-58.56 171.57,-207.07 -73.4,34.96 -53.2,11.47 -108.7,86.88 11.12,-158.51 -6.08,-67.44 -36.68,-112.78l-26.19 232.97z"/>
   </g>
   <g>
    <path class="fil8" d="M8213.84 19947.02c-227.46,-324.87 -43.08,-2515.98 52.57,-3088.67 31.3,-187.39 -0.43,-316.8 224.64,-279.35 142.56,23.73 299.66,-77.4 385.58,108.82l192.07 18.7c17.56,112.28 -43.96,259.49 -67.16,380.31 -23.69,123.3 -39.15,240.43 -54.26,372 -48.4,421.3 -92.58,1264.82 -57.68,1678.12 17.46,206.85 71.31,651.97 29.81,834.1 -111.14,25.78 -92.77,2.77 -174.9,-13.12 -94.17,-18.21 -50.65,7.84 -140.83,34.22 -120.83,35.33 -134.59,-8.47 -389.84,-45.13zm4.17 -3289.54c-3.77,172.51 -131.71,755.46 -128.97,1185.02 0.97,152.84 -27.41,249.62 -26.55,413.74 1.52,292.81 -24.77,553.58 -25.82,854.84l51.84 825.94c49.29,0 39.62,-13.85 39.62,30.43 69.75,48.85 310.56,100.59 400.76,99.69 104.48,-1.04 119.55,-38.67 199.89,-34.78 93.2,4.52 129.02,53.28 221.39,-19.41l32.79 -73.13 14.78 -181.29 -1.6 -103.6c-6.58,-379.54 -70.41,-1401.87 -16.42,-1724.64 21.17,-126.58 20.52,-437.26 58.19,-524.17l449.21 1083.29c137.15,302.55 394.4,829.16 414.35,1136.48l34.88 52.84c70.02,99.07 273.44,130.24 388.66,112.77 199.98,-30.31 267.07,59.54 356.13,-162.47 -16.3,-424.26 -262.2,-1099.76 -420.75,-1498.49 -109.33,-274.94 -519.03,-1176.17 -540.22,-1396.23 -263.72,-2.78 -392.69,100.51 -602.51,131.39 4.25,-335.68 -4.16,-136.29 -241.28,-250.15 -83.86,-40.26 -52.05,-87.12 -190.14,-96.58 -15.77,-1.08 -307.14,2.58 -310.35,3.26 -84.97,18.08 -99.3,82.02 -157.88,135.25z"/>
    <path class="fil8" d="M7292.99 21493.79c39.04,-130.69 332.21,-247.64 456.89,-235.97 44.06,100.35 48.54,209.33 6.79,312.61 -107.4,49.85 -367.22,-2.06 -463.68,-76.64zm2436.14 -282.19c97.04,-47.68 320.56,19.45 396.62,75.25 -95.46,56.6 -284.97,52.97 -404.59,31.13l7.97 -106.38zm-757.89 -528.66c29.63,37.28 97.89,228.89 284.43,295.87 181.44,65.14 265.8,4.11 418.13,145.86 3.27,167.63 -18.28,190.9 -134.92,282.75 -204.76,-8 -425.33,-115.48 -591.65,-208.84 -113.98,-63.99 -153.57,-59.69 -133.32,-247.51 11.99,-111.22 66.62,-219.09 157.33,-268.13zm-1775.14 338.48c422.49,-59.61 347.75,-42.85 652.07,-207.4 250.48,-135.44 -28.63,-98.82 356.5,-135.35 724.17,-68.69 368.1,600.24 149.95,744.5 -216.04,142.85 1.08,52.35 -173.15,135.78 6.34,-34.87 161.09,-456.95 -247.49,-470.07 -138.97,-4.47 -238.21,-16.1 -373.09,-25.13 -164.76,-11.03 -276.95,22.87 -364.79,-42.33zm4151.2 -351.55c-2.74,-161.55 315.17,-65 400.12,-25.04 -71.5,77.97 -301.6,61.81 -400.12,25.04zm-96.55 -293.2c12.13,-12.66 -55.85,-104.79 89.87,-16.88l-89.87 16.88zm-1323.38 -297.51c-42.33,227 -153.11,243.08 -355.63,282.02 -110.91,21.32 -454.94,76.11 -550.85,54.99l-117.22 25.3c-160.14,55.45 -403.2,44.12 -599,27.69 -97.87,-8.21 -352.13,154.26 -432.88,221.75l-68.18 34.48c-157.64,319.63 -1073,104.28 -1065.67,612.87 113.6,-50.22 252.93,-128.8 378.53,-113.97 42.65,111.39 44.19,199.09 3.96,311.34 -99.44,36.92 -484.37,-20.22 -462.06,-153.29l-82.52 22.78c95.5,124.05 116.52,67.55 197.28,186.77 65.89,97.25 119.94,130.3 236.87,151.63 196.07,35.76 552.66,8.23 771.34,9.38 329.76,1.74 549.68,-148.88 755.67,-406.3 68.15,-85.17 86.88,-168.27 147.75,-246.35 208.39,167.44 421.14,284.64 674.22,340.58 308.31,68.15 203.53,-44.62 388.52,-75.12 177.24,-29.22 303.14,47.84 466.98,-51 -43.09,-141.45 -328.4,-148.89 -461.75,-164.27 -217.15,-276.75 -159.54,-103.64 -392.93,-219.78 191.88,-21.02 391.11,-66.1 586.05,-143.58 260.55,-103.57 240.55,-135.57 395.91,-333.71 160.87,203.04 204.38,268.42 465.72,367.5 142.83,54.15 203.81,51.72 363.56,52.07 201.81,0.45 183.33,8.2 316.96,-123.58 78.53,-37.72 260.09,23.59 381.83,-84.35 -34.3,-82.04 -24.47,-59.88 -279.05,-109.45 -179.43,-34.94 -132.94,-47.71 -260.4,-140.67 65.35,-52.61 91.01,-34.88 82.14,-121.36 -85.85,-28.65 -81.56,-8.02 -161.6,-19.7 -77.1,-11.25 -72.26,-29.84 -137.75,-43.54 -108.09,-22.62 -241.6,-1.4 -352.58,-10.01l-56.24 -158.57c-452.4,87.21 -299.56,131.17 -776.98,17.45z"/>
    <path class="fil8" d="M15279.45 10952.84c-71.29,210.86 -239.5,281.69 -298.24,493.61 -45.24,163.19 -66.89,482.64 -91.78,673.13l40.66 9.8 47.14 -88.85c116.09,24.45 128.2,36 120.3,149.01 63.57,-24.55 112.21,-168.58 158.71,-232.34 55.35,-75.87 142.16,-168.12 204.72,-236.58 178.26,-195.08 411.05,-67.4 708.05,-189.58l51.77 -60.47c151.66,-315.13 377.46,-461.33 747.43,-376.63 39.89,55.85 48.04,58.12 42.06,130.88 -118.46,42.32 -267.38,51.6 -409.8,105.61 -176.44,66.92 -146.44,160.06 -280.95,251.75l-77.49 82.02c-170.76,206.09 -386.59,-6.01 -634.79,202.28 -176.76,148.34 -281.96,207.82 -402.04,433.83l60.8 56.64 11.92 79.1 -81.4 58.44c220.05,10.6 581.46,-1.58 744.74,167.46 60.41,-9.6 57.47,15.21 124.4,77.63 52.05,48.53 67.02,61.8 106.64,121.73 165.76,112.26 583.86,23.08 608.5,90 95.7,31.69 365.5,210.62 257.22,330.15 -73.52,81.15 -128.77,-24.89 -325.13,-157.4 -159.56,-37.38 -200.39,-32.82 -362.9,-29.1 -121.75,2.78 -206.39,15.23 -280.7,-70.16l-282.81 -283.36c-196.45,-68.4 -326.25,-76.94 -536.48,-111.27l-95.27 126.03 -161.99 -54.44c69.3,97.85 168.71,91.94 241.31,235.75 74.78,62.53 67.2,230.73 58.98,336.09 112.13,148.96 76.62,109.21 255.97,192.05 107.36,49.59 189.65,73.09 250.28,171.23 67.19,38.29 65.81,38.98 76.56,107.55 104.59,93.87 258.31,581.1 -120.97,575.39 -48.7,-105.54 -129.74,-391.09 -176.75,-523.31 -166.18,-122.49 -423.73,-237.42 -454.55,-460.13 -38.28,-276.65 -19.37,-528.56 -338.96,-583.01l-83.57 -126.54 19.85 138.72c9.54,72.43 -19.81,127.23 -77.27,165.18 -18.02,203.04 92.42,279.77 3.86,443.83 -20.88,112.64 -86.25,230.4 -188.36,274.44 -73.55,-39.93 -153.89,-168.57 -147.15,-258.25 2.32,-30.88 101.69,-218.75 114.21,-239.23 -0.92,-129.61 -58.95,-232.86 43.36,-309.51l114.65 -154.58c22.8,-66.34 63.59,-115.99 -3.29,-148.5l-50.21 21.29 -32.95 -164.91c-44.8,-55.17 -40.59,-60.63 -24.19,-146.85l38.97 -82.07c-54.97,-167.04 -162.13,-194 -232.64,-309.88 -87.6,-143.97 20.06,-294.79 -45.89,-483.33l-162.02 -432.47 100.03 -96.16c103.83,17.8 236.72,161.99 236.1,265.25 123.2,119.11 16.82,339.78 25.36,517.39 6.5,135.24 37.11,114.38 111.01,198.63 91.02,103.75 25.18,113.66 112.49,218.97 63.69,-31.17 87.68,41.78 97.35,-184.46 39.89,-933.52 209.33,-476.91 362.77,-1114.68 39.98,-168.31 -39.44,-361.2 0.9,-534.65 31.2,-134.12 126.26,-310.42 279.78,-250.19 42.91,104.09 -64.1,334.62 -96.39,458.6 -54.75,210.21 7.54,363.55 -21.92,533.43zm-819.68 68.21c-72.07,-29.12 -97.22,-75.87 -128.62,-145.9 -51.79,-30.22 -105.3,-108.7 -159.15,-30.6 -89.08,23.84 -84.43,39.27 -147.57,107.65 21.16,199.96 176.17,329.36 174.06,569.2 -2.3,262.53 -26.6,374.42 206.33,528.22 31.69,48.76 34.69,20.82 19.9,162.04 -23.07,220.18 6.76,251.56 -150,325.93 -37.23,-154.29 50.66,-239.69 139.46,-362.91l-55.41 11.49c-94.93,48.87 -116.61,112.51 -155.04,198.19 -15.82,157.69 -11.36,316.89 91.38,440.9 111.15,134.14 78.43,235 60.93,392.53l-134.8 188.16 99.46 187.04c-279.37,238.62 -641.77,433.59 -1023.75,368.87 -143.25,-24.27 -782,-328.12 -957.56,-416.89 -38.11,-125.66 -27.35,-120.07 -0.86,-238.3 379.67,-0.6 759.15,282.62 975.27,350.56 383.04,120.42 655.74,-181.93 880.05,-413.44 -1.41,-116.96 10.13,-14.77 -44.87,-57.25 -117.61,149.07 -372.38,378.73 -558.05,420.22 -196.31,43.87 -618.82,-110.5 -736.92,-258.53 -91.43,10.93 -144.32,1.52 -204.77,-61.27 69.38,-54.21 116.38,-73.85 204.77,-69.37 89.6,-108.49 303.57,-222.87 421.07,-341.63 128.91,-130.29 246.01,-293.9 435.83,-345.6l179.2 116.77 5.94 -95.22c-877.23,-410.9 -974.9,377.44 -1527.78,750.95 -55.68,-26.17 -240.17,-101.9 -127.42,-267.37 24.1,-35.35 176.29,-148.51 223.04,-193.52 356.27,-342.98 461.1,-757.31 935.26,-763.18 284.61,-3.52 410.57,-3.29 626.44,188.78l70.9 -19.75 89.43 -57.98 -123.31 -175.25c-279.84,75.16 -556.62,-47.47 -841.57,30.34 -87.94,24.02 -161.23,79.21 -246.16,99.16 0,37.28 8.43,26.23 -31.96,26.23 -25.26,78.96 -497.17,656.51 -580.44,673.18 -64.11,119.54 -143.37,101 -210.06,254.33 11.19,111.51 26.26,144.8 114.17,211.3 -0.62,191.83 -44.19,247.85 175.24,327.15 88.72,46.82 66,14.58 110.38,87.68 235.8,61.91 584.68,365.58 912.1,326.8 346,-40.98 601.52,-130.27 874.84,-400.06l119.62 79.2c152.89,-118.79 272.54,-290.45 285.9,-490.63l-45.66 -196.73 296.5 -83.81c72.75,79.35 56.27,66.15 32.07,169.54 33.11,119.22 27.24,281.27 88.94,379.22 53.23,84.5 169.6,155 255.11,211.09 252.79,165.82 236.02,374.33 322.43,635.84 193.5,96.45 363.6,-116.6 364.82,-119.14 23.72,-201.59 -54.15,-449.47 -177.67,-611.9 -141.31,-185.83 -381.22,-193.03 -508.3,-320.48 -32.74,-278.22 3.4,-270.42 -157.61,-502.44 41.7,-73.26 19.15,-45.87 79.91,-105.82 624.99,79.26 442.19,133.77 744.8,407.35 118.43,107.08 360.14,41.64 517.49,52.3 202.2,13.71 240.61,98.66 386.4,209.29l186.76 -63 -3.25 -146.41c-63.16,-59.18 -49.74,-77.38 -154.83,-155.97 -373.34,-279.2 -561.32,-38.68 -772.24,-186.03 -123.59,-86.34 -153.15,-206.44 -344.37,-277.22 -228.77,-84.67 -422.33,-87.3 -523.47,-124.02l-42.47 -156.37c125.27,-118.74 205.86,-221.54 341.7,-337.08 176.69,-150.28 373.63,-39.06 572.08,-127.2 142.11,-63.12 235.14,-276.34 338.4,-360.89 137.91,-112.91 413.18,-91.59 527.24,-172.05 31.6,-299.46 -286.84,-264.76 -490.34,-205.45 -274.5,80.01 -259.56,178.99 -419.56,383.33 -156.03,199.26 -460.68,20.39 -644.01,158.87 -181.13,136.81 -325.31,376.19 -389.04,439.74l-154.54 -61.37c134.36,-932.94 77.96,-449.46 339.04,-919.6 79.01,-142.27 8.95,-416.03 34.68,-586.91 23.56,-156.49 134.93,-367.51 117.51,-516.65 -212.29,-167.85 -326.23,60.47 -398.42,236.31 -84.48,205.77 76.27,396.89 -11.42,635.49 -47.33,128.77 -200.79,349.61 -278.46,472.63 -111.43,176.47 -65.73,457.29 -88.68,666.84 -39.73,-73.03 -22.75,-74.53 -89.15,-160.94 -149.39,-194.41 -122.93,-129.57 -68.76,-496.17 22.94,-155.24 -38.45,-136.58 -68.53,-282.41z"/>
    <path class="fil8" d="M11222.34 14293.74c207.96,136.01 728.25,704.87 751.08,958.28 -70.4,-50.57 -351.38,-354.71 -414.76,-439.91 -90.53,-121.7 -302.52,-378.85 -336.32,-518.37zm0 0l-25.9 -25.9 25.9 25.9zm-25.9 -25.9l0 0zm-828.78 -284.87c298.16,695.44 406.63,1067.03 990.66,1651.06 132.34,132.33 362.58,312.77 459.71,433.07 134.95,35.5 156.06,134.7 305.83,91.28 69.08,-20.03 82.27,-65.34 125.25,-82.64 72.01,-28.96 102.09,3.84 205.26,-28.87 174.71,-147.76 42.92,-259.86 -37.64,-397.86l-39.71 -29.48 -9.05 -102.63c-37.55,-53.68 -41.71,6.23 -28.85,-109.61 -127.28,-375.43 -282.03,-649.72 -528.74,-950.5 -108.66,-132.49 -215.81,-267.25 -350.49,-374.69 -113.17,-90.27 -386.82,-226.31 -444.74,-285.2 -95.25,23.91 -199.26,87.12 -300.63,120.64 -129.12,42.7 -228.51,35 -346.86,65.43z"/>
    <path class="fil8" d="M12633.54 21092.95c-8.73,-74.25 -78.45,-1059.28 190.19,-812.28 59.04,54.27 -13.51,353.73 -32.05,442.22 -21.2,101.17 -65.5,345.78 -158.14,370.06zm706.72 -971.96l37.93 364.79c-101.33,-35.2 -184,-196.21 -205.99,-311.92 -81.33,-92.82 -201.57,-390.61 20.04,-438.01 133.9,74.17 120.41,235 148.02,385.14zm-1256.53 -242.27c-41.23,101.84 -285.42,337.91 -396.1,369.8 24.85,-150.38 148.34,-370.59 252.67,-486 50.3,-98.24 97.35,-177.71 215.7,-199.66l84.01 91.49c-12.85,96.11 -71.02,184.02 -156.28,224.37zm-178.94 -637.32c271.2,-263.18 663.43,-516.37 1053.49,-502.61 293.79,10.36 329.65,130.38 466.18,318.67 90.93,125.4 205.47,423.49 181.14,580.82 -121.05,-116.39 -22.21,-182.42 -259.07,-298.61 -188.37,1.42 -587.25,123.83 -728.1,83.21 -105.89,-55.77 -181.85,-393.31 -713.64,-181.48zm742.45 -544.62c-69.28,81.79 -70.54,82.82 -181.73,85.42 -243.37,111.55 -432.89,232.17 -628.27,425.75 -302.69,299.93 -230.91,454.24 -47.91,697.56 -62.88,97.76 -172.01,306.76 -175.13,419.44 161.93,6 292.09,-165.35 411.02,-261.24 220.62,141.9 201.96,29.92 269.27,306.13 42.47,174.31 137.63,201.27 268.46,301.33 19.8,185.6 -30.93,369.87 55.72,514.07 153.13,-41.54 213.32,-318.46 239.78,-464 203.92,-73.26 253.53,-118.1 375.17,-284.89 92.38,91.19 74.54,145.37 185.73,146.52l5.95 -299.74c535.85,-411.51 118.61,-1088.41 76.19,-1281.07 -72.8,-26.47 -61.49,-8.62 -86.62,-77.32 -70.82,-83.8 -184.84,-193.42 -294.23,-230.04 -181.25,-60.68 -349.16,24.59 -473.4,2.08z"/>
    <path class="fil8" d="M6805.19 14020.52c99.93,-33.85 176.33,35.18 179.39,127.57 -96.43,7.14 -143.8,-66.11 -179.39,-127.57zm-296.55 -476.11l-23.63 22.08c70.47,74.43 111.25,42.25 168.5,150.04 -94.59,3.01 -182.11,-35.18 -256.81,-89.49 -80.75,-56.93 -135.73,-145.41 -172.37,-239.88 52.55,-67.63 190.76,-251.57 258.41,-275.62 212.22,-394.14 583.23,17.19 882.9,221.61 89.74,61.21 44.17,-5.75 75.38,80.01 -261.22,5.53 -441.56,273.25 -701.5,287.12 -130.06,-98.7 -62.83,-84.55 -230.88,-155.87zm-230.58 -880.4c12.22,-52.79 33.23,-99.07 63.64,-147.77 40.91,-65.5 18.85,-65.47 106.11,-49.61 12.69,100.95 -66.49,191.43 -169.75,197.38zm-30.27 -131.43l-9.55 51.8c16.62,37.74 19.86,25.9 -23.39,25.9l-14.2 77.7 -2.8 23.48 -234.88 189.08 -64.82 113.97c-92.77,156.44 -77.25,247.83 56.31,354.88 20.26,337.27 85.05,233.57 175.75,460.83 4.47,109.36 31.19,70.64 -2.88,183.81 -30.34,100.76 -64.75,105.75 -32.76,219.55 10.15,36.09 132.89,209.03 38.48,456.85 -154.52,-21.2 -51.12,-204.21 -130.7,-378.17 -92.04,-201.21 42.17,-265.25 14.02,-498.16l-51.62 0.78c0,308.92 -90.25,310.79 -30.73,483.12 38.18,110.53 52.02,71.14 56.92,202.65 5.07,136.01 -25.26,121.58 58.17,226.72l144.26 6.34c12.28,-161.81 62.6,-292.4 -3.88,-431.67 -42.96,-89.99 -63.06,-95.56 -33.41,-203.39 31.42,-114.21 33.42,-77.36 48.43,-217.08 302.67,219.1 269.54,152.28 530.57,159.84 86.09,109.72 203.51,255.81 319.67,99.16 -30.53,-101.69 -45.11,-68.82 -101.38,-148.74 188.12,-150.94 453.12,-278.13 690.39,-293.77 -47.12,-118.88 -149.67,-186.05 -160.01,-335.94 -11.13,-161.3 49.39,-238.78 144.36,-354.8l-31.69 -64.32c-34.41,5.28 -25.9,12.74 -25.9,-21.93 -174.63,-115.53 -201.74,-262.93 -436.31,-340.67 -398.94,-132.21 -476.52,41.08 -675.15,23.22 36.03,-67.63 87.06,-152.2 -13.33,-192.21 -117.81,-46.96 -113.65,63.83 -197.94,121.17z"/>
    <path class="fil8" d="M12203.6 16469.3c242.41,426.61 495.61,819.16 567,1326.57 44.36,315.25 8.77,424.2 5.71,607.22l85.04 -0.24c0.19,-114.68 -7.89,-379.32 32.06,-472.09 100.77,-52.95 449.2,-45.8 506.77,62.18 100.68,188.82 -41.41,453.81 37.06,626.98l-12.11 7.64 50.46 9.81c-0.5,-241.22 170.55,-495.86 153.34,-740.15 -4.66,-66.09 -19.89,-91.41 -23.82,-184.76 -3.27,-77.45 -11.51,-134.03 -27.31,-205.8 -107.89,-489.98 -313.69,-804.1 -627.85,-1185.1 -70.14,-85.06 -133.59,-203.98 -212.41,-266.65 -103.71,344.1 -454.65,322.03 -533.94,414.39z"/>
    <path class="fil8" d="M10145.69 13625.49l40.67 47.22 56.95 -180.21 38.05 127.86 51.69 83.5c150.72,5.86 531.59,-40.24 539.98,-217.54l-0.32 -53.02c-49.16,-63.17 -31.44,-30.19 -29.39,-123.74 -52.65,-215.88 -64.27,-373.09 -98.08,-584.77 -23.02,-144.1 -56.17,-521.37 -26.43,-658.4l-67.07 -153.91c-59.53,-119.81 -8.33,-150.84 23.37,-251.44l17.23 -101.43c-92.56,-119.09 -91.92,-454.39 -166.29,-622.02 -95.04,168.48 57.71,549.39 46.9,683.97 -9.37,116.62 -30.9,-75.28 -41.24,367.95 -8.31,356.16 -214.6,1378.39 -406.75,1552.44l20.73 83.54z"/>
    <path class="fil8" d="M5348.93 14485.88c-96.72,-55.01 -105.64,-85.73 -27.24,-186.13 106.14,-135.95 86.44,-49.43 93.08,-239.23 3.96,-113.27 22.14,-137.15 100.69,-216.39 108.65,-109.61 61.24,-161.32 163.83,-172.13 127.4,191.17 -111.51,244.36 -152.03,393.7 -40.74,150.18 0.53,301.41 -178.33,420.18zm199.22 -1228.1c-141.08,5.4 -117.59,-63.92 -231.4,-90.19 -112.46,-25.96 -185.36,38.19 -301.91,3.88 -57.2,-16.84 -119.38,-95.84 -177.05,-132.51 -122.53,-77.9 -134.07,-20.07 -260.35,-52.81 -10.98,-149.68 68.51,-117 196.83,-103.77 166.37,17.16 140.58,55.02 267.43,134.16 142.53,88.91 183.97,1.34 316.2,42.78 257.87,80.81 193.53,162.18 190.25,198.46zm273.16 492.07c-85.71,-131.6 -151.57,-142.88 -173.04,-335.64 -19.81,-177.8 40.27,-240.17 111.2,-381.96 -116,-42.79 -98.57,-124.15 -161.45,-232.09 -67.3,-115.52 -147.28,-123.33 -210.62,-206.11 -76.91,-100.5 -14.86,-166.3 -135.44,-279.98 -70.69,-66.65 -181.33,-110.2 -183.94,-212.74 136.96,-49.62 144.74,36.08 250.76,119.82 120.99,95.56 106.97,96.06 160.37,244.88 109.49,305.14 118.87,12.91 255.45,371.21 45.37,119.02 11.63,94.16 113.41,127.72l2.65 -43.89c-39.67,-37.71 -40.43,46.81 -41.3,-103.6 -100.02,-113.35 -29.48,-105.57 -186.4,-227.99 -94.01,-73.36 -84.41,-171.11 -140.62,-273.77 -57.82,-105.61 -129.38,-127.48 -210.26,-204.16 -108.6,-102.98 -135.89,-136.14 -258.95,-38.5 -11.35,115.09 67.1,171.57 156.45,244.62 174.76,142.9 65.2,108.19 147.15,267.25 22.07,42.86 382.71,295.96 320.21,500.43 -142.81,47.9 -111.45,4.81 -223.35,-53.38 -128.05,-66.59 -178.35,-9.62 -293.76,-42.96 -1.03,-0.29 -401.43,-306.76 -593.19,-106.31 -65.34,68.3 -43.86,82.76 -21.13,150.85l241.88 19.58c127.11,31.82 166.7,166.97 336.05,179.46 206.01,15.2 246.9,-48.17 424,93.99 25.35,75.94 11.47,93.61 33.62,174.15 21.59,78.48 83.72,172.42 -52.16,317.16 -244.72,260.69 -30.94,173.9 -154.71,389.18 -53.37,92.83 -90.68,100.68 -122.74,218.39 70.02,92.27 63.81,99.08 183.52,101.38l22.67 -29.12c341.67,-503.36 1.57,-267.03 269.03,-559.75 98.97,-108.32 25.92,-128.23 134.64,-188.12z"/>
    <path class="fil8" d="M9498.09 10715.18l-31.94 18.21 0 38.03c-10.96,112.54 -165.17,638.63 -219.87,725.18l13.74 188.55 172.97 131.6 -36.58 193.27c-48.7,68.62 42.42,33.81 -113.53,67.57 77.62,51.75 49.57,66.28 0.81,177.1 -72.67,165.17 -99.02,210.16 -273,295.24 -96.66,47.27 -123.49,38.62 -209.68,-39.8 1.84,-163.6 273.46,-398.32 315.12,-509.4 3.36,-146.37 9.77,-18.47 -43.44,-78.59 -150.15,163.98 -272.23,468.07 -471.48,584.54l94.67 80.12c202.44,29.4 292.85,163.84 430.58,215.38l72.05 -12.29c14.19,-137.75 124.63,-356.66 173.23,-507.23 56.23,-174.25 115.91,-347.43 150.63,-528.24 49.24,-256.5 189.58,-936.74 144.96,-1142.27 -24.87,34.23 -184.69,950.19 -236.88,1122.58 -276.91,-71.91 -38.3,-289.31 52.84,-806.63 8.83,-50.11 25.43,-95.56 31.19,-125.88 18.13,-95.44 52.39,-37.3 -16.39,-87.04z"/>
    <path class="fil8" d="M9205.63 16298.02l48.48 68.48 79.94 52.46 282.53 -55.55c-33.16,-68.31 -102.7,-499.59 -104.64,-592.36 -8.92,-426.63 103.18,-709.71 270.99,-1129.66 57.92,-144.95 139.32,-379.89 217.11,-503.04 -56.85,-52.8 10.81,-48.03 -72.61,-40.36 -62.53,169.64 -159.25,345.98 -223,522.16l-524.14 1576.49 25.34 101.38z"/>
    <path class="fil8" d="M8725.59 13842.67c-62.36,329.04 -120.15,530.1 -118.53,866.02 0.6,125.81 -31.53,204.96 -23.66,307.52 7.92,103.19 39.79,27.95 -25.39,238.89 -73.75,238.66 -184.61,621.61 -184.61,851.47l75.58 -37.53c3.22,-247.5 334.35,-1363.26 422.26,-1499.38 63.11,-97.71 83.68,-162.91 133.7,-266.3 63.87,-132.04 230.91,-416.85 243.4,-529.82 -152.53,51.82 -342.4,646.98 -468.06,801.38 -191.87,-92.65 -8.02,-521.33 -5.66,-619.74 3.75,-156.32 41.2,-47.35 -49.03,-112.51z"/>
    <path class="fil8" d="M10793.51 12092.29c179.89,215.89 261.68,470.15 487.03,692.89 96.95,95.82 188.2,188.67 284.6,285.18 100.71,100.81 249.95,182.56 331.64,265.1l4.59 -82.38c-113.35,-134.36 -313.79,-229.4 -610.7,-580.76 -164.94,-195.18 -390.28,-469.34 -452.17,-729.97 102.83,-114.63 51.95,-75.44 264.39,-69.07 112.03,-399.18 273.95,193.64 501.98,404.96 35.47,32.88 149.85,109.33 165.04,123.2l220.31 190.17c27.57,26.96 60.21,47.61 91.14,65.86 123.91,73.08 87.56,128.56 194.91,82.31 -83.49,-75.71 -175.87,-131.97 -262.21,-196.03 -92.04,-68.29 -149.1,-132.56 -228.42,-211.88 -124.09,-124.09 -342.2,-334.23 -382,-509.19 -144.9,-82.18 -111.75,-212.46 -306.77,-63.28 -155.65,119.06 -120.19,-68.11 -322.34,176.22l18.98 156.67z"/>
    <path class="fil8" d="M8143.63 13490.99c-126.81,-9.98 -286.28,-209.43 -328.36,-333.11 -96.69,-89.49 -5.55,-31.7 -101.66,-53.23 -91.93,154.96 -154.42,217.02 30.04,341.77 171.46,115.95 126.03,211.39 411.71,132.04l-11.73 -87.47z"/>
    <path class="fil8" d="M8064.94 12895.17l-68.99 102.08c187.61,-16.77 250.73,-5.75 429.38,27.49l69.67 -6.98 -9.4 -48.62 -50.72 -143.07 -87.38 -97.64c-80.43,75.27 -176.72,139.94 -282.56,166.74z"/>
    <polygon class="fil8" points="6658.37,21382.34 6737.94,21338.26 6670.1,21313.19 "/>
   </g>
   <g>
    <path class="fil9" d="M9695.52 10564.09l-197.43 151.09c68.78,49.74 34.52,-8.4 16.39,87.04 -5.76,30.32 -22.36,75.77 -31.19,125.88 -91.14,517.32 -329.75,734.72 -52.84,806.63 52.19,-172.39 212.01,-1088.35 236.88,-1122.58 44.62,205.53 -95.72,885.77 -144.96,1142.27 -34.72,180.81 -94.4,353.99 -150.63,528.24 -48.6,150.57 -159.04,369.48 -173.23,507.23l-72.05 12.29c51.62,97.66 267.69,372.04 349.16,492.78 131.33,40.76 251.15,40.07 384.55,113.34 105.95,58.2 192.6,154.32 285.52,217.19l-20.73 -83.54c192.15,-174.05 398.44,-1196.28 406.75,-1552.44 10.34,-443.23 31.87,-251.33 41.24,-367.95 10.81,-134.58 -141.94,-515.49 -46.9,-683.97 74.37,167.63 73.73,502.93 166.29,622.02l-17.23 101.43c252.86,-164.99 95.89,-135.95 421.64,-231.36 52.5,-15.37 47.7,-10.56 84.62,-36.67 -72.4,-103.34 -198.22,-479.04 -196.43,-595.69 -27.63,-62.08 -22.78,-54.09 -68.84,-100.72l-268.63 -218.14c-210.49,-39.19 -144.22,53.95 -509.52,7.74 -323.68,-40.96 -329.49,47.86 -442.43,77.89z"/>
    <path class="fil9" d="M8213.84 19947.02c255.25,36.66 269.01,80.46 389.84,45.13 90.18,-26.38 46.66,-52.43 140.83,-34.22 82.13,15.89 63.76,38.9 174.9,13.12 41.5,-182.13 -12.35,-627.25 -29.81,-834.1 -34.9,-413.3 9.28,-1256.82 57.68,-1678.12 15.11,-131.57 30.57,-248.7 54.26,-372 23.2,-120.82 84.72,-268.03 67.16,-380.31l-192.07 -18.7c-85.92,-186.22 -243.02,-85.09 -385.58,-108.82 -225.07,-37.45 -193.34,91.96 -224.64,279.35 -95.65,572.69 -280.03,2763.8 -52.57,3088.67z"/>
    <path class="fil9" d="M8725.59 13842.67c90.23,65.16 52.78,-43.81 49.03,112.51 -2.36,98.41 -186.21,527.09 5.66,619.74 125.66,-154.4 315.53,-749.56 468.06,-801.38 -12.49,112.97 -179.53,397.78 -243.4,529.82 -50.02,103.39 -70.59,168.59 -133.7,266.3 -87.91,136.12 -419.04,1251.88 -422.26,1499.38l-75.58 37.53c-35.04,-34.86 -25.9,-37.55 -25.9,11.66 522.06,8.96 403.94,-25.15 858.13,179.79l-25.34 -101.38 524.14 -1576.49c63.75,-176.18 160.47,-352.52 223,-522.16 83.42,-7.67 15.76,-12.44 72.61,40.36l14.75 -25.9 26.19 -232.97 -41.86 -26.16c-92.48,-41.26 -123.19,-31.32 -204.02,-101.51 -91.6,-79.55 -176.81,-116.3 -289.34,-82.95l-76.23 25.5c-181.64,22.73 -49.36,-50.16 -226.22,61.62 -79.98,-96.76 -86.57,-73.22 -394.15,-63.1l-83.57 149.79z"/>
    <path class="fil9" d="M11901.37 13253.08c-3.69,-91.41 -6.48,-113.27 50.08,-175.06 9.52,-76.54 -6.18,-32.04 39.61,-47.77 31.92,-104.8 170.51,-212.24 286.17,-232.73l19.71 -57.74 -20.67 0c-107.35,46.25 -71,-9.23 -194.91,-82.31 -30.93,-18.25 -63.57,-38.9 -91.14,-65.86l-220.31 -190.17c-15.19,-13.87 -129.57,-90.32 -165.04,-123.2 -228.03,-211.32 -389.95,-804.14 -501.98,-404.96 -212.44,-6.37 -161.56,-45.56 -264.39,69.07 61.89,260.63 287.23,534.79 452.17,729.97 296.91,351.36 497.35,446.4 610.7,580.76z"/>
    <path class="fil9" d="M11904.79 19241.4c531.79,-211.83 607.75,125.71 713.64,181.48 140.85,40.62 539.73,-81.79 728.1,-83.21 236.86,116.19 138.02,182.22 259.07,298.61 24.33,-157.33 -90.21,-455.42 -181.14,-580.82 -136.53,-188.29 -172.39,-308.31 -466.18,-318.67 -390.06,-13.76 -782.29,239.43 -1053.49,502.61z"/>
    <path class="fil9" d="M13890.11 12647.13c78.77,-71.13 17.64,-172.53 142.18,-272.69l64.2 -126.62 -70.9 19.75c-215.87,-192.07 -341.83,-192.3 -626.44,-188.78 -474.16,5.87 -578.99,420.2 -935.26,763.18 -46.75,45.01 -198.94,158.17 -223.04,193.52 -112.75,165.47 71.74,241.2 127.42,267.37 552.88,-373.51 650.55,-1161.85 1527.78,-750.95l-5.94 95.22z"/>
    <path class="fil9" d="M14356.04 13217.79c-164.93,-4.79 -80.2,-15.75 -207.06,-64.63l0 33.38c55,42.48 43.46,-59.71 44.87,57.25 -224.31,231.51 -497.01,533.86 -880.05,413.44 -216.12,-67.94 -595.6,-351.16 -975.27,-350.56 -26.49,118.23 -37.25,112.64 0.86,238.3 175.56,88.77 814.31,392.62 957.56,416.89 381.98,64.72 744.38,-130.25 1023.75,-368.87l-99.46 -187.04 134.8 -188.16z"/>
    <path class="fil9" d="M7196.1 21021.42c87.84,65.2 200.03,31.3 364.79,42.33 134.88,9.03 234.12,20.66 373.09,25.13 408.58,13.12 253.83,435.2 247.49,470.07 174.23,-83.43 -42.89,7.07 173.15,-135.78 218.15,-144.26 574.22,-813.19 -149.95,-744.5 -385.13,36.53 -106.02,-0.09 -356.5,135.35 -304.32,164.55 -229.58,147.79 -652.07,207.4z"/>
    <path class="fil9" d="M8971.24 20682.94c-90.71,49.04 -145.34,156.91 -157.33,268.13 -20.25,187.82 19.34,183.52 133.32,247.51 166.32,93.36 386.89,200.84 591.65,208.84 116.64,-91.85 138.19,-115.12 134.92,-282.75 -152.33,-141.75 -236.69,-80.72 -418.13,-145.86 -186.54,-66.98 -254.8,-258.59 -284.43,-295.87z"/>
    <path class="fil9" d="M12861.35 18402.85c114.65,-9.98 180.63,-20.29 256.14,46.7 136.71,10.76 216.48,108.82 319.75,170.37 -78.47,-173.17 63.62,-438.16 -37.06,-626.98 -57.57,-107.98 -406,-115.13 -506.77,-62.18 -39.95,92.77 -31.87,357.41 -32.06,472.09z"/>
    <path class="fil9" d="M9396.41 12010.02c-133.74,12.46 -165.41,-0.65 -267.98,-86.96l-55.74 -15.8 0 14.88c53.21,60.12 46.8,-67.78 43.44,78.59 -41.66,111.08 -313.28,345.8 -315.12,509.4 86.19,78.42 113.02,87.07 209.68,39.8 173.98,-85.08 200.33,-130.07 273,-295.24 48.76,-110.82 76.81,-125.35 -0.81,-177.1 155.95,-33.76 64.83,1.05 113.53,-67.57z"/>
    <path class="fil9" d="M14358.77 12186.17l55.41 -11.49c-88.8,123.22 -176.69,208.62 -139.46,362.91 156.76,-74.37 126.93,-105.75 150,-325.93 14.79,-141.22 11.79,-113.28 -19.9,-162.04l-46.05 136.55z"/>
   </g>
   <g>
    <path class="fil10" d="M8792.79 8736.25l-315.14 -435.67c87.13,16.4 225.97,124.4 321.51,183.13 58.66,36.06 99.4,66.46 154.14,103.32 30.43,20.49 43.15,25.74 77.87,50.3 93.28,65.98 -32.95,20.31 111.48,63.89l135.76 0.82c-182.5,127.75 -901.16,147.36 -1108.93,282.04 189.26,156.53 1137.72,506.91 1230.12,662.32 -212.37,-55.31 -836.11,-494.96 -1009.23,-438.38 -122.79,40.13 -847.15,465.75 -957.52,554.19l73.41 36.95c77.36,-49.04 227.84,-27.14 329.14,-27.67 114.2,-143.33 198.07,-105.54 535.24,-163.64 149.9,-25.82 628.49,-194.7 709.72,2.33 1.59,139.96 7.47,138.46 -58.36,245.98 -51.56,73.17 -528.75,1123.83 -541.87,1204.16 154.15,-30.59 426.94,-263.52 567.09,-366.52 103.43,-76.02 192.19,-125.15 217.04,-255.54 21.96,-115.27 48.15,-299.03 89.27,-387.75 16.72,181.69 -139.33,742.13 -98.82,819.41 94.6,-67.09 90.44,-93.97 211.44,-136.53l31.94 -18.21 197.43 -151.09c53.1,-93.92 429.24,-432.2 517.14,-471.6 91.51,56.73 385.13,292.83 434.81,385.97l268.63 218.14c105.54,51.69 92.06,85.15 209.83,109.5 -3.13,-223.28 -214.78,-1191.17 -187,-1267.45 95.34,120.17 107.35,519.72 150.78,609.47l889.55 65.26c-37.73,-95.02 -82.82,-116.39 -183.53,-196.51l-546.92 -544.93 -126.83 30.36 -7.75 -67.59c176.43,-40.7 874.09,-552.59 1093.53,-707.69l288.12 -235.18c23.05,-30.99 19.02,-25.07 31.26,-62.17 -409.67,-34.75 -1267.72,138.01 -1486.98,112.39l241.53 -64.74 224.01 -690.74c-133,24.9 -746.44,301.87 -783.22,458.09 -14.07,59.76 -7.78,131.66 -7.28,195.68 1.22,156.95 1.59,107.71 -30.83,174.44 -3.13,6.43 -9.34,14.51 -14.75,21.21 -6.24,-241.21 37.11,-1333.09 -18.9,-1456.35 -147.78,65.74 -523.54,981.57 -669.06,1105.14 0.8,-165.04 187.71,-341.15 188.62,-466.09l-578.41 -1239.93c-0.46,-0.91 -26.5,-48.26 -27.21,-49.26 -44.75,-62.56 -17.06,-28.23 -54.82,-55.42 -48.55,218.2 -62.59,640.05 -69.46,878.47 -8.89,308.02 -42.82,616.96 -68.13,921.59 -116.82,-9.93 -1074.97,-407.95 -1387.64,-480.08 15.42,81.07 13.53,56.14 78.49,127.61 143.15,157.5 663.27,779.44 729.69,814.57z"/>
    <path class="fil10" d="M7871.79 20690.91c80.75,-67.49 335.01,-229.96 432.88,-221.75 195.8,16.43 438.86,27.76 599,-27.69 74.21,-84.11 67.47,-41.35 118.31,-86.74 68.64,-61.3 148.63,-335.07 -71.81,-341.78 -92.37,72.69 -128.19,23.93 -221.39,19.41 -80.34,-3.89 -95.41,33.74 -199.89,34.78 -90.2,0.9 -331.01,-50.84 -400.76,-99.69l-75.24 34.5 132.64 87c-266.67,4.04 -383.43,-120.49 -724.23,7.8 -165.06,62.15 -402.95,183.26 -448.57,358.09 85.13,119.4 216.94,201.32 369.83,238.99 168.71,41.56 360.63,-32.08 489.23,-2.92z"/>
    <path class="fil10" d="M9254.11 16366.5l-48.48 -68.48c-454.19,-204.94 -336.07,-170.83 -858.13,-179.79l-103.6 -2.5c-187.87,-64.04 -591.94,-406.43 -1215.75,-61.53 11.38,214.03 512.35,579.18 1006.46,466.37 261.34,-59.66 330.51,-134.63 627.62,-76.06 458.49,90.39 266.41,61.44 560.2,212.94 58.52,-102.42 76.03,-178.29 31.68,-290.95z"/>
    <path class="fil10" d="M8434.88 12826.07l50.72 143.07c136.32,92.93 286.82,381.19 661.97,523.42 246.2,93.34 601.74,118.89 777.52,258.46 102.39,81.3 38.8,-6.57 74.03,102.3l41.86 26.16c30.6,45.34 47.8,-45.73 36.68,112.78 55.5,-75.41 35.3,-51.92 108.7,-86.88l-25.77 -0.13 7.27 -207.19 18.5 -25.35 -40.67 -47.22c-92.92,-62.87 -179.57,-158.99 -285.52,-217.19 -133.4,-73.27 -253.22,-72.58 -384.55,-113.34 -81.47,-120.74 -297.54,-395.12 -349.16,-492.78 -137.73,-51.54 -228.14,-185.98 -430.58,-215.38 -126.14,-15.74 -167.77,-47.02 -300.76,-32.49 -20.32,154.52 12.69,136.07 39.76,271.76z"/>
    <path class="fil10" d="M11254.91 11444.8c-18.46,-36.02 22.86,-3.05 -25.52,-33.71 -56.52,-35.81 -5.78,-5.43 -48.02,-18.08 -36.92,26.11 -32.12,21.3 -84.62,36.67 -325.75,95.41 -168.78,66.37 -421.64,231.36 -31.7,100.6 -82.9,131.63 -23.37,251.44l65.07 70.57c70.23,-155.94 97.69,-260.99 308.28,-342.41 310.69,-120.11 261.88,92.15 523.78,34.23 260.62,-57.63 703.83,-350.97 676.17,-635.79 -608.74,-118.56 -766.41,282.05 -900.66,480.33l-69.47 -74.61z"/>
    <path class="fil10" d="M13941.78 10949.87c-30.86,21.04 -0.09,-84.07 -34.11,96.51 -50.86,270.04 -24.42,768.1 154.94,968.21l123.31 175.25 -89.43 57.98 -64.2 126.62c-41.58,128.82 -84.53,170.33 -62.65,311.29l177.48 -98.85c5.69,-123.39 -16.37,-130.5 56.61,-202.52 38.43,-85.68 60.11,-149.32 155.04,-198.19l46.05 -136.55c-232.93,-153.8 -208.63,-265.69 -206.33,-528.22 2.11,-239.84 -152.9,-369.24 -174.06,-569.2 63.14,-68.38 58.49,-83.81 147.57,-107.65 53.85,-78.1 107.36,0.38 159.15,30.6l45.48 2.19c-71.82,-116.35 -102.75,-297.57 -226.06,-362.69 -62.28,59.44 -81.5,110.88 -107.06,196.25 -13.82,46.14 -19.69,89.26 -32.02,131.13 -38.08,129.23 -1.18,54.58 -69.71,107.84z"/>
    <path class="fil10" d="M9128.43 11923.06c102.57,86.31 134.24,99.42 267.98,86.96l36.58 -193.27 -172.97 -131.6c-67.72,-68.54 -54.2,3.29 -46.26,-130.82 -196.21,11.23 -87.33,18.36 -220.57,-108.41 -169.13,-160.92 -530.28,-250.15 -748.91,-231.11 -58.31,291.69 516.48,738.33 776.43,496.35 57.16,142.71 28.04,84.76 107.72,211.9z"/>
    <path class="fil10" d="M7815.27 13157.88c42.08,123.68 201.55,323.13 328.36,333.11 181.16,62.64 363.93,142.56 565.48,96.88 63,-104.63 71.75,-239.69 -22.85,-331.99 -64.67,-63.08 -57.34,-58.5 -110.67,-122.39 -70.3,-84.21 -60.84,-29.88 -150.26,-108.75 -178.65,-33.24 -241.77,-44.26 -429.38,-27.49l-179.91 70.68 -0.77 89.95z"/>
    <path class="fil10" d="M12277.23 12797.52c-115.66,20.49 -254.25,127.93 -286.17,232.73l-1 76.02c92.18,-34.06 161.39,-171.23 372.42,-262.77 83.27,-16.67 555.18,-594.22 580.44,-673.18 21.28,-167.38 83.95,-394.71 14.43,-546.87 -142.14,61.25 -617.94,599.34 -623.06,987.85 -2.07,156.77 1.35,79.78 42.92,166.01l-99.98 20.21z"/>
    <path class="fil10" d="M12647.24 18696.78c124.24,22.51 292.15,-62.76 473.4,-2.08 109.39,36.62 223.41,146.24 294.23,230.04l65.23 -8.2c2.32,-130.71 -14.71,-182.14 -54.97,-288.98l12.11 -7.64c-103.27,-61.55 -183.04,-159.61 -319.75,-170.37 -266.54,-17.65 -510.16,-24.97 -575.88,284.55l105.63 -37.32z"/>
    <path class="fil10" d="M11901.37 16208.7c37.24,85.31 131.08,163.05 216.55,171.39 -34.96,-98.2 -110.28,-152.22 -216.55,-171.39z"/>
   </g>
  </g>
  <path class="fil11" d="M8447.49 12583.58l116.92 -2.2 22.74 130.65 -259.27 -20.24 0 33.48c438.7,38.54 340.73,142.54 593.85,337.58 200.82,154.79 422.74,165.83 603.8,269.32 -244.44,96.31 -106.27,-167.31 -447.73,508.98 -133.85,265.1 -207.74,561.97 -282.45,653.02l57.33 -645.98 -59.65 -11.72 -2.52 -85.22c-110.2,124.63 -82.42,679.4 -103.81,879.99 112.33,44.75 81.4,7.12 53.68,163.62 39.87,-44.29 425.1,-1068.45 636.35,-1373.6 88.88,-5.41 84.36,1.78 166.06,-16.78 270.22,-61.34 79.47,-38.89 449.18,149.41l11.68 101.77 57.66 56.04 60.38 -84.82c-154.84,-89.26 -1.73,-83.61 -208.51,-180.72 -108.76,-51.08 -87.45,-72.29 -208.88,-115.6l-497.97 -160.95c-295.92,-125.55 -497.81,-358.38 -626.23,-638.77l-23.91 -42.04c-60.56,96.38 -3.77,-58.79 -108.7,94.78zm986.42 -1815.85l83.7 11.63 -29.22 248.63c79.56,-96.04 62.08,-236.77 157.71,-367.7 58.49,167.45 -110.32,751.07 -134.67,967.41l-129.88 -72.61 2.84 -104.36 -88.01 0.05c59.96,229.97 67.45,110.9 174.53,259.71 -20.19,129.82 5.45,110.75 -103.48,157.23 122.78,108.23 24.64,22.17 3.57,236.73 -58.84,110.57 -30.76,273.83 -148.07,414.13 -130.47,-74.52 -202.66,-141.27 -364,-181.26l-0.84 -53.59 -112.89 50.27c136.42,101.01 240.56,51.08 462.21,262.91 161.68,154.51 194.94,217.38 305.25,414.97 123.28,38.76 203.21,37.58 345.7,99.88 154.31,67.45 156.98,118.53 268.1,196.25 32.34,-48.47 10.51,-16.16 29.49,-81.6 -90.35,-38.86 -171.85,-108.51 -259.24,-152.11 -89.56,-44.69 -210.67,-65.28 -285.02,-107.7 -119.67,-68.3 -289.14,-316.52 -331.23,-449.98l131.13 -355.01c251.76,-605.18 243.33,-1482.86 408.26,-1648.86 110.12,-110.84 251.65,-272.73 393.24,-323 363.1,255.04 437.71,378.68 633.98,629.49l-12 -103.11 65.56 20.5c-51.19,-67.14 -647.43,-584.63 -718.99,-615.76 -41.38,30.3 -741.39,638.46 -747.73,646.86zm3510.51 1536.46l-11.98 -20.93c-176.11,44.72 -304.65,212.43 -426.18,348.05 -59.6,66.5 -95.86,137.53 -156.82,202.26 -68.2,72.4 -152.6,105.88 -190.79,188.41 153.79,-54.16 301.17,-198.95 400.71,-337.31 157.02,-218.27 253.75,-230.96 385.06,-380.48zm-3877.27 -1541.49c124.56,-17.78 42.84,-24.68 71.5,42.7l73.56 -42.11c9.01,143.32 -26.22,87.72 50.49,180.2 -19.16,-103.13 -57.34,-193.49 67.81,-195.75 32.36,-124.56 141.26,-582.38 105.45,-672.36 -84.84,144 -39.95,291.9 -109.09,423.83 -67.69,129.09 -178.98,140.07 -259.72,263.49zm-457.33 -1429.27l840.18 399.65c-43.45,-98.45 -736.73,-431.62 -872.59,-474.32l32.41 74.67zm2381.4 1182.88c2.17,47.21 17.75,140.73 18.29,172.9 2.02,120.39 43.07,52.44 -45.46,93.64 48.4,49.9 -13.46,44.15 79.21,25.22 5.85,-216.51 -12.5,-57.91 63.4,-122.07l-43.91 -374.76 377.05 5.95c-104.58,-63.35 -290.14,-72.29 -419.32,-8.51l31.21 228.97 -60.47 -21.34zm-301.1 1336.7c9.75,7.83 23.31,2.21 31.26,20.76 63.12,147.05 -46.47,-60.77 59.09,45.32l-13.62 -148.04c117.55,-76.63 108.33,-25.14 185.5,-58.98 120.3,-52.77 -21.04,-76.24 187.77,-93.61l95.11 127.72 -16.99 -117.58 156.78 -75.47 -114.07 6.34c-95.31,-112.42 -322.07,-85.25 -442.52,-22.72 -190.18,98.76 -123.65,172.73 -156.56,314.89 -230.95,-301.71 175.78,-545.23 463.17,-493.71 -7.38,-6.66 -16.91,-14.37 -23.03,-19.01 -5.73,-4.33 -15.12,-12.21 -22,-17.31 -7.35,-5.44 -32.89,-22.32 -40.49,-27.73 -0.93,-0.67 -71.87,-53.96 -74.67,-56.27l-6.59 47.15c-519.7,220.28 -344.94,218.81 -460.56,560.55 -104.81,309.76 -9.22,460.7 -345.81,1349.76 131.94,2.1 41.16,-35.15 141.91,41.72 -1.29,-191.16 149.18,-733.94 213.12,-1025.02 36.51,-166.18 18.94,-254.99 36.48,-411.95 126.95,170.82 -21.28,759.11 130.91,958.02l-56.41 -746.61c-0.79,-183.65 -14.73,-88.75 52.94,-148.17l-4.43 -5.63 23.71 -4.42zm-1804.83 1679.32l72.38 -112.19 309.32 -30.61c-78.24,-83.42 -75.07,-48.93 -195.76,-43.31 -158.48,7.37 -78.72,-33.69 -200.59,72.08l-0.74 -109.71 -39.75 80.97c85.49,107.58 63.87,2.28 55.14,142.77zm1346.95 -5432.15l-91.78 -72.66c21.92,236.9 -128.85,279.79 -157.48,473.96 83.25,-44.21 200.15,-301.18 249.26,-401.3zm-612.29 1547.61c90.57,-80.13 180.73,-219.89 203.05,-331.3 -120.57,49.76 -190.43,199.9 -203.05,331.3zm2847.56 3446.9l-0.26 -37.4 51.91 -23.18 -2.55 -166.68 -76.52 -0.74 -1.67 62.98c-120.38,8.29 -72.65,-11.87 -151.23,71.43 71.54,66.89 82.48,62.23 180.32,93.59zm-3335.93 1349.9c8.97,-8.23 67.56,-50.3 80.89,-93.53 56.58,-183.54 3.61,-71.06 -37.41,-122.34 -28.53,130.82 -46.87,78.78 -43.48,215.87zm763.55 -5195.88c66.83,-95.02 -14.77,-138.19 -95.84,-218.59l95.84 218.59zm2200.72 3229.94l-23.85 72.95 -109.48 -32.84c-85.51,79.56 -52.38,69.47 -170.69,107.37 -200.11,-188.66 -502.77,-409.84 -638.97,-630.77 -43.75,-70.95 -86.65,-176.48 -151.45,-214.7 31.22,162.51 215.45,360.52 326.03,490.3 268.54,315.12 295.68,261.75 441.41,397.58 -57.88,151.59 -54.19,47.55 -75.85,237.28 70.66,-46.53 20.71,12.78 88.63,-77.84 268.24,-358.04 226.53,-152.04 381.29,-316.39l-67.07 -32.94zm-3808.06 751.35c-146.94,17.46 -177.08,-56.52 -278.17,-123.97 -101.2,-67.54 -132.07,-108.23 -40.56,-215.94l318.73 339.91zm95.06 74.53l89.24 -51.76c-118.98,-129.78 -379.04,-116.39 -413.48,-431.35l194.42 -88.38c-36.83,-28.81 -52.41,-37.23 -84.63,-59.91 -91.7,119.7 -424.61,188.8 -265.03,420.38 197.48,286.55 443.16,162.23 479.48,211.02zm1589.83 -1114.24c135.65,-155.48 273.17,-1104.94 255.96,-1341.84 -32.72,68.22 -268.18,1249.32 -255.96,1341.84 -64.04,58.62 -250.88,695.55 -209.21,767.42 114.41,-102.07 82.44,-233.02 116.79,-379.07 31.23,-132.82 95.35,-241.9 92.42,-388.35zm1003.14 -1831.62l-10.98 -149.16 133.76 1.25 -116.28 -51.76c-21.79,-153.14 -19.14,-421.69 -150.8,-509.75 13.88,162.42 61.89,609.78 144.3,709.42zm-689.8 2915.85c-3.33,150.26 -138.68,86.36 -9.7,267.54l-13.76 -160.56c148.26,2.29 424.12,-45.87 545,-115.93l-27.76 -199.93 -60.69 5.04 19.04 137.27c-104.88,97.61 -238.83,106.96 -381.64,126.09l-70.49 -59.52zm289.95 -1833.84c38.52,-75.22 -17.86,-213.46 -35.53,-326.66 -21.66,-138.9 -13.17,-252.1 -88.73,-359.73 -25.31,226.59 8.46,496.32 124.26,686.39zm-636.42 -171.59c56.08,-76.03 131.8,-656.82 93.6,-744.2 -66.93,106.06 -120.86,623.57 -93.6,744.2zm1198.79 -1688.42l-33.74 -92.67 -103.23 28.45c-86.46,-91.77 -125.79,-182.02 -218.76,-225.66 29.73,100.34 202.53,306.15 261.02,381.44 78.21,-167.9 -13.74,-22.33 94.71,-91.56zm810.74 3331.12l5.85 -95.75 148.52 -185.39c-120.31,-23.96 -192.12,22.21 -246.38,132.35 13.23,60.12 3.06,28.62 34.76,76.63 4.47,6.79 52.03,65.19 57.25,72.16zm-4224.29 229.37l77.57 164.81c-86.64,51.45 -49.61,-0.75 -125.43,68.23 138.99,-16.84 110.92,-49.05 236.17,-39.41 -141.03,-181.09 -67.92,-87.26 -147.59,-284.13 15.31,-184.81 36.02,-154.92 117.93,-298.69 -75.17,-31.82 -12.84,11.91 -97.73,-65.49 17.03,124.57 -47.02,196.86 -89.41,324.21l69.21 39.97 -40.72 90.5zm2437.52 -3416.31c80.3,-21.09 269.07,-173.87 282.07,-246.67 -105.52,-0.37 -72.2,7.21 -159.2,94.86 -79.14,79.74 -112.55,59.77 -122.87,151.81zm828.97 1254.7c68.05,-61.59 -20.12,-1.72 60.74,-37.01 42.18,-18.43 16,8.54 95.27,-37.52 -17.41,-101.59 -0.13,-79.69 -56.03,-142.32l19.93 151.65 -145.33 -26.11c-13.39,106.45 -22.7,21.83 25.42,91.31zm-1614.84 -52.89c72.29,-38.22 27.6,-25.7 49.11,6.52 32.05,-38.9 62.9,11.49 8.34,-85.68l-57.45 79.16zm-1448.47 880.22l-52.27 -66.75 -38.12 35.64 90.39 31.11zm1739.81 641.3c112.46,-131.39 300.09,-950.85 242.15,-1074.62 -46.43,93.18 -249.05,962.57 -242.15,1074.62zm624.23 1115.88c152.68,110.23 37.84,19.9 147.09,143.16l8.06 -65.05c74.88,-11.91 147.04,-16.57 215.99,-38.17 41.97,-13.14 66.3,-33.75 112.05,-42.93 151.44,-30.35 46.94,-22.44 96.53,24.95l87.1 55.49c-16.41,-115.64 -23.65,-47.48 42.67,-74.34 -81.32,-71.87 -94.07,-42.51 -158.78,-120.51 -238.39,107.67 -266.59,158.2 -550.71,117.4zm-473.73 -2511.97c42.09,-98.46 76.82,-301.2 8.95,-376.67 -36.38,93.58 -55.98,308.97 -8.95,376.67zm1051.25 2365.75c84.21,-83.77 38.48,-105.26 118.45,-238.72 -120.86,40.16 -16.89,26.73 -139.4,10.27 13.67,125.06 69.28,52.57 20.95,228.45z"/>
 </g>
</svg>
